<?xml version="1.0" encoding="utf-8" standalone="no"?>
<!DOCTYPE svg PUBLIC "-//W3C//DTD SVG 1.1//EN"
  "http://www.w3.org/Graphics/SVG/1.1/DTD/svg11.dtd">
<svg height="345.6pt" version="1.1" viewBox="0 0 460.8 345.6" width="460.8pt" xmlns="http://www.w3.org/2000/svg" xmlns:xlink="http://www.w3.org/1999/xlink">
 <metadata>
  <rdf:RDF xmlns:cc="http://creativecommons.org/ns#" xmlns:dc="http://purl.org/dc/elements/1.1/" xmlns:rdf="http://www.w3.org/1999/02/22-rdf-syntax-ns#">
   <cc:Work>
    <dc:type rdf:resource="http://purl.org/dc/dcmitype/StillImage"/>
    <dc:date>2021-04-24T11:38:01.886522</dc:date>
    <dc:format>image/svg+xml</dc:format>
    <dc:creator>
     <cc:Agent>
      <dc:title>Matplotlib v3.4.1, https://matplotlib.org/</dc:title>
     </cc:Agent>
    </dc:creator>
   </cc:Work>
  </rdf:RDF>
 </metadata>
 <defs>
  <style type="text/css">*{stroke-linecap:butt;stroke-linejoin:round;}</style>
 </defs>
 <g id="figure_1">
  <g id="patch_1">
   <path d="M 0 345.6 
L 460.8 345.6 
L 460.8 0 
L 0 0 
z
" style="fill:#ffffff;"/>
  </g>
  <g id="axes_1">
   <g id="patch_2">
    <path d="M 69.12 307.584 
L 414.72 307.584 
L 414.72 41.472 
L 69.12 41.472 
z
" style="fill:#ffffff;"/>
   </g>
   <g id="matplotlib.axis_1">
    <g id="xtick_1">
     <g id="line2d_1">
      <defs>
       <path d="M 0 0 
L 0 3.5 
" id="m7b88e6bd7c" style="stroke:#000000;stroke-width:0.8;"/>
      </defs>
      <g>
       <use style="stroke:#000000;stroke-width:0.8;" x="138.212349" xlink:href="#m7b88e6bd7c" y="307.584"/>
      </g>
     </g>
     <g id="text_1">
      <!-- 2000 -->
      <g transform="translate(125.487349 322.182437)scale(0.1 -0.1)">
       <defs>
        <path d="M 1228 531 
L 3431 531 
L 3431 0 
L 469 0 
L 469 531 
Q 828 903 1448 1529 
Q 2069 2156 2228 2338 
Q 2531 2678 2651 2914 
Q 2772 3150 2772 3378 
Q 2772 3750 2511 3984 
Q 2250 4219 1831 4219 
Q 1534 4219 1204 4116 
Q 875 4013 500 3803 
L 500 4441 
Q 881 4594 1212 4672 
Q 1544 4750 1819 4750 
Q 2544 4750 2975 4387 
Q 3406 4025 3406 3419 
Q 3406 3131 3298 2873 
Q 3191 2616 2906 2266 
Q 2828 2175 2409 1742 
Q 1991 1309 1228 531 
z
" id="DejaVuSans-32" transform="scale(0.015625)"/>
        <path d="M 2034 4250 
Q 1547 4250 1301 3770 
Q 1056 3291 1056 2328 
Q 1056 1369 1301 889 
Q 1547 409 2034 409 
Q 2525 409 2770 889 
Q 3016 1369 3016 2328 
Q 3016 3291 2770 3770 
Q 2525 4250 2034 4250 
z
M 2034 4750 
Q 2819 4750 3233 4129 
Q 3647 3509 3647 2328 
Q 3647 1150 3233 529 
Q 2819 -91 2034 -91 
Q 1250 -91 836 529 
Q 422 1150 422 2328 
Q 422 3509 836 4129 
Q 1250 4750 2034 4750 
z
" id="DejaVuSans-30" transform="scale(0.015625)"/>
       </defs>
       <use xlink:href="#DejaVuSans-32"/>
       <use x="63.623047" xlink:href="#DejaVuSans-30"/>
       <use x="127.246094" xlink:href="#DejaVuSans-30"/>
       <use x="190.869141" xlink:href="#DejaVuSans-30"/>
      </g>
     </g>
    </g>
    <g id="xtick_2">
     <g id="line2d_2">
      <g>
       <use style="stroke:#000000;stroke-width:0.8;" x="207.339262" xlink:href="#m7b88e6bd7c" y="307.584"/>
      </g>
     </g>
     <g id="text_2">
      <!-- 4000 -->
      <g transform="translate(194.614262 322.182437)scale(0.1 -0.1)">
       <defs>
        <path d="M 2419 4116 
L 825 1625 
L 2419 1625 
L 2419 4116 
z
M 2253 4666 
L 3047 4666 
L 3047 1625 
L 3713 1625 
L 3713 1100 
L 3047 1100 
L 3047 0 
L 2419 0 
L 2419 1100 
L 313 1100 
L 313 1709 
L 2253 4666 
z
" id="DejaVuSans-34" transform="scale(0.015625)"/>
       </defs>
       <use xlink:href="#DejaVuSans-34"/>
       <use x="63.623047" xlink:href="#DejaVuSans-30"/>
       <use x="127.246094" xlink:href="#DejaVuSans-30"/>
       <use x="190.869141" xlink:href="#DejaVuSans-30"/>
      </g>
     </g>
    </g>
    <g id="xtick_3">
     <g id="line2d_3">
      <g>
       <use style="stroke:#000000;stroke-width:0.8;" x="276.466175" xlink:href="#m7b88e6bd7c" y="307.584"/>
      </g>
     </g>
     <g id="text_3">
      <!-- 6000 -->
      <g transform="translate(263.741175 322.182437)scale(0.1 -0.1)">
       <defs>
        <path d="M 2113 2584 
Q 1688 2584 1439 2293 
Q 1191 2003 1191 1497 
Q 1191 994 1439 701 
Q 1688 409 2113 409 
Q 2538 409 2786 701 
Q 3034 994 3034 1497 
Q 3034 2003 2786 2293 
Q 2538 2584 2113 2584 
z
M 3366 4563 
L 3366 3988 
Q 3128 4100 2886 4159 
Q 2644 4219 2406 4219 
Q 1781 4219 1451 3797 
Q 1122 3375 1075 2522 
Q 1259 2794 1537 2939 
Q 1816 3084 2150 3084 
Q 2853 3084 3261 2657 
Q 3669 2231 3669 1497 
Q 3669 778 3244 343 
Q 2819 -91 2113 -91 
Q 1303 -91 875 529 
Q 447 1150 447 2328 
Q 447 3434 972 4092 
Q 1497 4750 2381 4750 
Q 2619 4750 2861 4703 
Q 3103 4656 3366 4563 
z
" id="DejaVuSans-36" transform="scale(0.015625)"/>
       </defs>
       <use xlink:href="#DejaVuSans-36"/>
       <use x="63.623047" xlink:href="#DejaVuSans-30"/>
       <use x="127.246094" xlink:href="#DejaVuSans-30"/>
       <use x="190.869141" xlink:href="#DejaVuSans-30"/>
      </g>
     </g>
    </g>
    <g id="xtick_4">
     <g id="line2d_4">
      <g>
       <use style="stroke:#000000;stroke-width:0.8;" x="345.593087" xlink:href="#m7b88e6bd7c" y="307.584"/>
      </g>
     </g>
     <g id="text_4">
      <!-- 8000 -->
      <g transform="translate(332.868087 322.182437)scale(0.1 -0.1)">
       <defs>
        <path d="M 2034 2216 
Q 1584 2216 1326 1975 
Q 1069 1734 1069 1313 
Q 1069 891 1326 650 
Q 1584 409 2034 409 
Q 2484 409 2743 651 
Q 3003 894 3003 1313 
Q 3003 1734 2745 1975 
Q 2488 2216 2034 2216 
z
M 1403 2484 
Q 997 2584 770 2862 
Q 544 3141 544 3541 
Q 544 4100 942 4425 
Q 1341 4750 2034 4750 
Q 2731 4750 3128 4425 
Q 3525 4100 3525 3541 
Q 3525 3141 3298 2862 
Q 3072 2584 2669 2484 
Q 3125 2378 3379 2068 
Q 3634 1759 3634 1313 
Q 3634 634 3220 271 
Q 2806 -91 2034 -91 
Q 1263 -91 848 271 
Q 434 634 434 1313 
Q 434 1759 690 2068 
Q 947 2378 1403 2484 
z
M 1172 3481 
Q 1172 3119 1398 2916 
Q 1625 2713 2034 2713 
Q 2441 2713 2670 2916 
Q 2900 3119 2900 3481 
Q 2900 3844 2670 4047 
Q 2441 4250 2034 4250 
Q 1625 4250 1398 4047 
Q 1172 3844 1172 3481 
z
" id="DejaVuSans-38" transform="scale(0.015625)"/>
       </defs>
       <use xlink:href="#DejaVuSans-38"/>
       <use x="63.623047" xlink:href="#DejaVuSans-30"/>
       <use x="127.246094" xlink:href="#DejaVuSans-30"/>
       <use x="190.869141" xlink:href="#DejaVuSans-30"/>
      </g>
     </g>
    </g>
    <g id="xtick_5">
     <g id="line2d_5">
      <g>
       <use style="stroke:#000000;stroke-width:0.8;" x="414.72" xlink:href="#m7b88e6bd7c" y="307.584"/>
      </g>
     </g>
     <g id="text_5">
      <!-- 10000 -->
      <g transform="translate(398.81375 322.182437)scale(0.1 -0.1)">
       <defs>
        <path d="M 794 531 
L 1825 531 
L 1825 4091 
L 703 3866 
L 703 4441 
L 1819 4666 
L 2450 4666 
L 2450 531 
L 3481 531 
L 3481 0 
L 794 0 
L 794 531 
z
" id="DejaVuSans-31" transform="scale(0.015625)"/>
       </defs>
       <use xlink:href="#DejaVuSans-31"/>
       <use x="63.623047" xlink:href="#DejaVuSans-30"/>
       <use x="127.246094" xlink:href="#DejaVuSans-30"/>
       <use x="190.869141" xlink:href="#DejaVuSans-30"/>
       <use x="254.492188" xlink:href="#DejaVuSans-30"/>
      </g>
     </g>
    </g>
    <g id="text_6">
     <!-- Hinzugefügte Elemente -->
     <g transform="translate(183.052031 335.860562)scale(0.1 -0.1)">
      <defs>
       <path d="M 628 4666 
L 1259 4666 
L 1259 2753 
L 3553 2753 
L 3553 4666 
L 4184 4666 
L 4184 0 
L 3553 0 
L 3553 2222 
L 1259 2222 
L 1259 0 
L 628 0 
L 628 4666 
z
" id="DejaVuSans-48" transform="scale(0.015625)"/>
       <path d="M 603 3500 
L 1178 3500 
L 1178 0 
L 603 0 
L 603 3500 
z
M 603 4863 
L 1178 4863 
L 1178 4134 
L 603 4134 
L 603 4863 
z
" id="DejaVuSans-69" transform="scale(0.015625)"/>
       <path d="M 3513 2113 
L 3513 0 
L 2938 0 
L 2938 2094 
Q 2938 2591 2744 2837 
Q 2550 3084 2163 3084 
Q 1697 3084 1428 2787 
Q 1159 2491 1159 1978 
L 1159 0 
L 581 0 
L 581 3500 
L 1159 3500 
L 1159 2956 
Q 1366 3272 1645 3428 
Q 1925 3584 2291 3584 
Q 2894 3584 3203 3211 
Q 3513 2838 3513 2113 
z
" id="DejaVuSans-6e" transform="scale(0.015625)"/>
       <path d="M 353 3500 
L 3084 3500 
L 3084 2975 
L 922 459 
L 3084 459 
L 3084 0 
L 275 0 
L 275 525 
L 2438 3041 
L 353 3041 
L 353 3500 
z
" id="DejaVuSans-7a" transform="scale(0.015625)"/>
       <path d="M 544 1381 
L 544 3500 
L 1119 3500 
L 1119 1403 
Q 1119 906 1312 657 
Q 1506 409 1894 409 
Q 2359 409 2629 706 
Q 2900 1003 2900 1516 
L 2900 3500 
L 3475 3500 
L 3475 0 
L 2900 0 
L 2900 538 
Q 2691 219 2414 64 
Q 2138 -91 1772 -91 
Q 1169 -91 856 284 
Q 544 659 544 1381 
z
M 1991 3584 
L 1991 3584 
z
" id="DejaVuSans-75" transform="scale(0.015625)"/>
       <path d="M 2906 1791 
Q 2906 2416 2648 2759 
Q 2391 3103 1925 3103 
Q 1463 3103 1205 2759 
Q 947 2416 947 1791 
Q 947 1169 1205 825 
Q 1463 481 1925 481 
Q 2391 481 2648 825 
Q 2906 1169 2906 1791 
z
M 3481 434 
Q 3481 -459 3084 -895 
Q 2688 -1331 1869 -1331 
Q 1566 -1331 1297 -1286 
Q 1028 -1241 775 -1147 
L 775 -588 
Q 1028 -725 1275 -790 
Q 1522 -856 1778 -856 
Q 2344 -856 2625 -561 
Q 2906 -266 2906 331 
L 2906 616 
Q 2728 306 2450 153 
Q 2172 0 1784 0 
Q 1141 0 747 490 
Q 353 981 353 1791 
Q 353 2603 747 3093 
Q 1141 3584 1784 3584 
Q 2172 3584 2450 3431 
Q 2728 3278 2906 2969 
L 2906 3500 
L 3481 3500 
L 3481 434 
z
" id="DejaVuSans-67" transform="scale(0.015625)"/>
       <path d="M 3597 1894 
L 3597 1613 
L 953 1613 
Q 991 1019 1311 708 
Q 1631 397 2203 397 
Q 2534 397 2845 478 
Q 3156 559 3463 722 
L 3463 178 
Q 3153 47 2828 -22 
Q 2503 -91 2169 -91 
Q 1331 -91 842 396 
Q 353 884 353 1716 
Q 353 2575 817 3079 
Q 1281 3584 2069 3584 
Q 2775 3584 3186 3129 
Q 3597 2675 3597 1894 
z
M 3022 2063 
Q 3016 2534 2758 2815 
Q 2500 3097 2075 3097 
Q 1594 3097 1305 2825 
Q 1016 2553 972 2059 
L 3022 2063 
z
" id="DejaVuSans-65" transform="scale(0.015625)"/>
       <path d="M 2375 4863 
L 2375 4384 
L 1825 4384 
Q 1516 4384 1395 4259 
Q 1275 4134 1275 3809 
L 1275 3500 
L 2222 3500 
L 2222 3053 
L 1275 3053 
L 1275 0 
L 697 0 
L 697 3053 
L 147 3053 
L 147 3500 
L 697 3500 
L 697 3744 
Q 697 4328 969 4595 
Q 1241 4863 1831 4863 
L 2375 4863 
z
" id="DejaVuSans-66" transform="scale(0.015625)"/>
       <path d="M 544 1381 
L 544 3500 
L 1119 3500 
L 1119 1403 
Q 1119 906 1312 657 
Q 1506 409 1894 409 
Q 2359 409 2629 706 
Q 2900 1003 2900 1516 
L 2900 3500 
L 3475 3500 
L 3475 0 
L 2900 0 
L 2900 538 
Q 2691 219 2414 64 
Q 2138 -91 1772 -91 
Q 1169 -91 856 284 
Q 544 659 544 1381 
z
M 1991 3584 
L 1991 3584 
z
M 2278 4850 
L 2912 4850 
L 2912 4219 
L 2278 4219 
L 2278 4850 
z
M 1056 4850 
L 1690 4850 
L 1690 4219 
L 1056 4219 
L 1056 4850 
z
" id="DejaVuSans-fc" transform="scale(0.015625)"/>
       <path d="M 1172 4494 
L 1172 3500 
L 2356 3500 
L 2356 3053 
L 1172 3053 
L 1172 1153 
Q 1172 725 1289 603 
Q 1406 481 1766 481 
L 2356 481 
L 2356 0 
L 1766 0 
Q 1100 0 847 248 
Q 594 497 594 1153 
L 594 3053 
L 172 3053 
L 172 3500 
L 594 3500 
L 594 4494 
L 1172 4494 
z
" id="DejaVuSans-74" transform="scale(0.015625)"/>
       <path id="DejaVuSans-20" transform="scale(0.015625)"/>
       <path d="M 628 4666 
L 3578 4666 
L 3578 4134 
L 1259 4134 
L 1259 2753 
L 3481 2753 
L 3481 2222 
L 1259 2222 
L 1259 531 
L 3634 531 
L 3634 0 
L 628 0 
L 628 4666 
z
" id="DejaVuSans-45" transform="scale(0.015625)"/>
       <path d="M 603 4863 
L 1178 4863 
L 1178 0 
L 603 0 
L 603 4863 
z
" id="DejaVuSans-6c" transform="scale(0.015625)"/>
       <path d="M 3328 2828 
Q 3544 3216 3844 3400 
Q 4144 3584 4550 3584 
Q 5097 3584 5394 3201 
Q 5691 2819 5691 2113 
L 5691 0 
L 5113 0 
L 5113 2094 
Q 5113 2597 4934 2840 
Q 4756 3084 4391 3084 
Q 3944 3084 3684 2787 
Q 3425 2491 3425 1978 
L 3425 0 
L 2847 0 
L 2847 2094 
Q 2847 2600 2669 2842 
Q 2491 3084 2119 3084 
Q 1678 3084 1418 2786 
Q 1159 2488 1159 1978 
L 1159 0 
L 581 0 
L 581 3500 
L 1159 3500 
L 1159 2956 
Q 1356 3278 1631 3431 
Q 1906 3584 2284 3584 
Q 2666 3584 2933 3390 
Q 3200 3197 3328 2828 
z
" id="DejaVuSans-6d" transform="scale(0.015625)"/>
      </defs>
      <use xlink:href="#DejaVuSans-48"/>
      <use x="75.195312" xlink:href="#DejaVuSans-69"/>
      <use x="102.978516" xlink:href="#DejaVuSans-6e"/>
      <use x="166.357422" xlink:href="#DejaVuSans-7a"/>
      <use x="218.847656" xlink:href="#DejaVuSans-75"/>
      <use x="282.226562" xlink:href="#DejaVuSans-67"/>
      <use x="345.703125" xlink:href="#DejaVuSans-65"/>
      <use x="407.226562" xlink:href="#DejaVuSans-66"/>
      <use x="442.431641" xlink:href="#DejaVuSans-fc"/>
      <use x="505.810547" xlink:href="#DejaVuSans-67"/>
      <use x="569.287109" xlink:href="#DejaVuSans-74"/>
      <use x="608.496094" xlink:href="#DejaVuSans-65"/>
      <use x="670.019531" xlink:href="#DejaVuSans-20"/>
      <use x="701.806641" xlink:href="#DejaVuSans-45"/>
      <use x="764.990234" xlink:href="#DejaVuSans-6c"/>
      <use x="792.773438" xlink:href="#DejaVuSans-65"/>
      <use x="854.296875" xlink:href="#DejaVuSans-6d"/>
      <use x="951.708984" xlink:href="#DejaVuSans-65"/>
      <use x="1013.232422" xlink:href="#DejaVuSans-6e"/>
      <use x="1076.611328" xlink:href="#DejaVuSans-74"/>
      <use x="1115.820312" xlink:href="#DejaVuSans-65"/>
     </g>
    </g>
   </g>
   <g id="matplotlib.axis_2">
    <g id="ytick_1">
     <g id="line2d_6">
      <defs>
       <path d="M 0 0 
L -3.5 0 
" id="md3226675aa" style="stroke:#000000;stroke-width:0.8;"/>
      </defs>
      <g>
       <use style="stroke:#000000;stroke-width:0.8;" x="69.12" xlink:href="#md3226675aa" y="255.776515"/>
      </g>
     </g>
     <g id="text_7">
      <!-- 0.02 -->
      <g transform="translate(39.854375 259.575733)scale(0.1 -0.1)">
       <defs>
        <path d="M 684 794 
L 1344 794 
L 1344 0 
L 684 0 
L 684 794 
z
" id="DejaVuSans-2e" transform="scale(0.015625)"/>
       </defs>
       <use xlink:href="#DejaVuSans-30"/>
       <use x="63.623047" xlink:href="#DejaVuSans-2e"/>
       <use x="95.410156" xlink:href="#DejaVuSans-30"/>
       <use x="159.033203" xlink:href="#DejaVuSans-32"/>
      </g>
     </g>
    </g>
    <g id="ytick_2">
     <g id="line2d_7">
      <g>
       <use style="stroke:#000000;stroke-width:0.8;" x="69.12" xlink:href="#md3226675aa" y="203.967819"/>
      </g>
     </g>
     <g id="text_8">
      <!-- 0.04 -->
      <g transform="translate(39.854375 207.767038)scale(0.1 -0.1)">
       <use xlink:href="#DejaVuSans-30"/>
       <use x="63.623047" xlink:href="#DejaVuSans-2e"/>
       <use x="95.410156" xlink:href="#DejaVuSans-30"/>
       <use x="159.033203" xlink:href="#DejaVuSans-34"/>
      </g>
     </g>
    </g>
    <g id="ytick_3">
     <g id="line2d_8">
      <g>
       <use style="stroke:#000000;stroke-width:0.8;" x="69.12" xlink:href="#md3226675aa" y="152.159123"/>
      </g>
     </g>
     <g id="text_9">
      <!-- 0.06 -->
      <g transform="translate(39.854375 155.958342)scale(0.1 -0.1)">
       <use xlink:href="#DejaVuSans-30"/>
       <use x="63.623047" xlink:href="#DejaVuSans-2e"/>
       <use x="95.410156" xlink:href="#DejaVuSans-30"/>
       <use x="159.033203" xlink:href="#DejaVuSans-36"/>
      </g>
     </g>
    </g>
    <g id="ytick_4">
     <g id="line2d_9">
      <g>
       <use style="stroke:#000000;stroke-width:0.8;" x="69.12" xlink:href="#md3226675aa" y="100.350427"/>
      </g>
     </g>
     <g id="text_10">
      <!-- 0.08 -->
      <g transform="translate(39.854375 104.149646)scale(0.1 -0.1)">
       <use xlink:href="#DejaVuSans-30"/>
       <use x="63.623047" xlink:href="#DejaVuSans-2e"/>
       <use x="95.410156" xlink:href="#DejaVuSans-30"/>
       <use x="159.033203" xlink:href="#DejaVuSans-38"/>
      </g>
     </g>
    </g>
    <g id="ytick_5">
     <g id="line2d_10">
      <g>
       <use style="stroke:#000000;stroke-width:0.8;" x="69.12" xlink:href="#md3226675aa" y="48.541732"/>
      </g>
     </g>
     <g id="text_11">
      <!-- 0.10 -->
      <g transform="translate(39.854375 52.34095)scale(0.1 -0.1)">
       <use xlink:href="#DejaVuSans-30"/>
       <use x="63.623047" xlink:href="#DejaVuSans-2e"/>
       <use x="95.410156" xlink:href="#DejaVuSans-31"/>
       <use x="159.033203" xlink:href="#DejaVuSans-30"/>
      </g>
     </g>
    </g>
    <g id="text_12">
     <!-- Gesamtlaufzeit in Sekunden -->
     <g transform="translate(33.774687 244.892844)rotate(-90)scale(0.1 -0.1)">
      <defs>
       <path d="M 3809 666 
L 3809 1919 
L 2778 1919 
L 2778 2438 
L 4434 2438 
L 4434 434 
Q 4069 175 3628 42 
Q 3188 -91 2688 -91 
Q 1594 -91 976 548 
Q 359 1188 359 2328 
Q 359 3472 976 4111 
Q 1594 4750 2688 4750 
Q 3144 4750 3555 4637 
Q 3966 4525 4313 4306 
L 4313 3634 
Q 3963 3931 3569 4081 
Q 3175 4231 2741 4231 
Q 1884 4231 1454 3753 
Q 1025 3275 1025 2328 
Q 1025 1384 1454 906 
Q 1884 428 2741 428 
Q 3075 428 3337 486 
Q 3600 544 3809 666 
z
" id="DejaVuSans-47" transform="scale(0.015625)"/>
       <path d="M 2834 3397 
L 2834 2853 
Q 2591 2978 2328 3040 
Q 2066 3103 1784 3103 
Q 1356 3103 1142 2972 
Q 928 2841 928 2578 
Q 928 2378 1081 2264 
Q 1234 2150 1697 2047 
L 1894 2003 
Q 2506 1872 2764 1633 
Q 3022 1394 3022 966 
Q 3022 478 2636 193 
Q 2250 -91 1575 -91 
Q 1294 -91 989 -36 
Q 684 19 347 128 
L 347 722 
Q 666 556 975 473 
Q 1284 391 1588 391 
Q 1994 391 2212 530 
Q 2431 669 2431 922 
Q 2431 1156 2273 1281 
Q 2116 1406 1581 1522 
L 1381 1569 
Q 847 1681 609 1914 
Q 372 2147 372 2553 
Q 372 3047 722 3315 
Q 1072 3584 1716 3584 
Q 2034 3584 2315 3537 
Q 2597 3491 2834 3397 
z
" id="DejaVuSans-73" transform="scale(0.015625)"/>
       <path d="M 2194 1759 
Q 1497 1759 1228 1600 
Q 959 1441 959 1056 
Q 959 750 1161 570 
Q 1363 391 1709 391 
Q 2188 391 2477 730 
Q 2766 1069 2766 1631 
L 2766 1759 
L 2194 1759 
z
M 3341 1997 
L 3341 0 
L 2766 0 
L 2766 531 
Q 2569 213 2275 61 
Q 1981 -91 1556 -91 
Q 1019 -91 701 211 
Q 384 513 384 1019 
Q 384 1609 779 1909 
Q 1175 2209 1959 2209 
L 2766 2209 
L 2766 2266 
Q 2766 2663 2505 2880 
Q 2244 3097 1772 3097 
Q 1472 3097 1187 3025 
Q 903 2953 641 2809 
L 641 3341 
Q 956 3463 1253 3523 
Q 1550 3584 1831 3584 
Q 2591 3584 2966 3190 
Q 3341 2797 3341 1997 
z
" id="DejaVuSans-61" transform="scale(0.015625)"/>
       <path d="M 3425 4513 
L 3425 3897 
Q 3066 4069 2747 4153 
Q 2428 4238 2131 4238 
Q 1616 4238 1336 4038 
Q 1056 3838 1056 3469 
Q 1056 3159 1242 3001 
Q 1428 2844 1947 2747 
L 2328 2669 
Q 3034 2534 3370 2195 
Q 3706 1856 3706 1288 
Q 3706 609 3251 259 
Q 2797 -91 1919 -91 
Q 1588 -91 1214 -16 
Q 841 59 441 206 
L 441 856 
Q 825 641 1194 531 
Q 1563 422 1919 422 
Q 2459 422 2753 634 
Q 3047 847 3047 1241 
Q 3047 1584 2836 1778 
Q 2625 1972 2144 2069 
L 1759 2144 
Q 1053 2284 737 2584 
Q 422 2884 422 3419 
Q 422 4038 858 4394 
Q 1294 4750 2059 4750 
Q 2388 4750 2728 4690 
Q 3069 4631 3425 4513 
z
" id="DejaVuSans-53" transform="scale(0.015625)"/>
       <path d="M 581 4863 
L 1159 4863 
L 1159 1991 
L 2875 3500 
L 3609 3500 
L 1753 1863 
L 3688 0 
L 2938 0 
L 1159 1709 
L 1159 0 
L 581 0 
L 581 4863 
z
" id="DejaVuSans-6b" transform="scale(0.015625)"/>
       <path d="M 2906 2969 
L 2906 4863 
L 3481 4863 
L 3481 0 
L 2906 0 
L 2906 525 
Q 2725 213 2448 61 
Q 2172 -91 1784 -91 
Q 1150 -91 751 415 
Q 353 922 353 1747 
Q 353 2572 751 3078 
Q 1150 3584 1784 3584 
Q 2172 3584 2448 3432 
Q 2725 3281 2906 2969 
z
M 947 1747 
Q 947 1113 1208 752 
Q 1469 391 1925 391 
Q 2381 391 2643 752 
Q 2906 1113 2906 1747 
Q 2906 2381 2643 2742 
Q 2381 3103 1925 3103 
Q 1469 3103 1208 2742 
Q 947 2381 947 1747 
z
" id="DejaVuSans-64" transform="scale(0.015625)"/>
      </defs>
      <use xlink:href="#DejaVuSans-47"/>
      <use x="77.490234" xlink:href="#DejaVuSans-65"/>
      <use x="139.013672" xlink:href="#DejaVuSans-73"/>
      <use x="191.113281" xlink:href="#DejaVuSans-61"/>
      <use x="252.392578" xlink:href="#DejaVuSans-6d"/>
      <use x="349.804688" xlink:href="#DejaVuSans-74"/>
      <use x="389.013672" xlink:href="#DejaVuSans-6c"/>
      <use x="416.796875" xlink:href="#DejaVuSans-61"/>
      <use x="478.076172" xlink:href="#DejaVuSans-75"/>
      <use x="541.455078" xlink:href="#DejaVuSans-66"/>
      <use x="576.660156" xlink:href="#DejaVuSans-7a"/>
      <use x="629.150391" xlink:href="#DejaVuSans-65"/>
      <use x="690.673828" xlink:href="#DejaVuSans-69"/>
      <use x="718.457031" xlink:href="#DejaVuSans-74"/>
      <use x="757.666016" xlink:href="#DejaVuSans-20"/>
      <use x="789.453125" xlink:href="#DejaVuSans-69"/>
      <use x="817.236328" xlink:href="#DejaVuSans-6e"/>
      <use x="880.615234" xlink:href="#DejaVuSans-20"/>
      <use x="912.402344" xlink:href="#DejaVuSans-53"/>
      <use x="975.878906" xlink:href="#DejaVuSans-65"/>
      <use x="1037.402344" xlink:href="#DejaVuSans-6b"/>
      <use x="1092.1875" xlink:href="#DejaVuSans-75"/>
      <use x="1155.566406" xlink:href="#DejaVuSans-6e"/>
      <use x="1218.945312" xlink:href="#DejaVuSans-64"/>
      <use x="1282.421875" xlink:href="#DejaVuSans-65"/>
      <use x="1343.945312" xlink:href="#DejaVuSans-6e"/>
     </g>
    </g>
   </g>
   <g id="line2d_11">
    <path clip-path="url(#p179ad61f02)" d="M 69.12 307.584 
L 85.779586 307.391368 
L 137.382826 306.820056 
L 152.210549 306.660121 
L 152.348803 306.454494 
L 171.082196 306.253636 
L 171.22045 305.742454 
L 199.251413 305.441111 
L 266.339082 304.698981 
L 266.477336 304.227005 
L 357.275536 303.12334 
L 357.413789 302.980401 
L 366.192907 302.887537 
L 366.331161 302.761867 
L 409.777426 302.282072 
L 409.91568 301.737416 
L 414.72 301.683116 
L 414.72 301.683116 
" style="fill:none;stroke:#1f77b4;stroke-linecap:square;stroke-width:1.5;"/>
   </g>
   <g id="line2d_12">
    <path clip-path="url(#p179ad61f02)" d="M 69.12 307.100166 
L 70.087777 306.699413 
L 70.364284 306.602078 
L 70.502538 306.045687 
L 71.159244 305.809526 
L 71.297498 305.43596 
L 73.613249 304.566986 
L 73.751503 304.268397 
L 74.477336 303.999269 
L 74.61559 303.351979 
L 75.72162 302.852112 
L 77.173285 302.312001 
L 77.311539 302.015475 
L 78.590387 301.52381 
L 78.728641 301.026352 
L 79.454473 300.752146 
L 79.592727 300.537083 
L 82.703438 299.303325 
L 82.876256 298.894641 
L 86.332601 297.470586 
L 86.401728 297.413149 
L 86.539982 296.8888 
L 87.02387 296.697786 
L 87.162124 296.025816 
L 87.404068 295.938548 
L 87.542322 295.015632 
L 87.71514 294.947436 
L 87.853393 294.41386 
L 88.682916 294.104525 
L 88.82117 293.877962 
L 90.791287 293.069723 
L 90.929541 292.878956 
L 94.178506 291.612428 
L 94.351323 291.49239 
L 97.669415 290.187138 
L 97.876796 290.078278 
L 99.086517 289.602436 
L 99.22477 289.006173 
L 101.229451 288.218352 
L 101.367705 287.478347 
L 101.471395 287.433595 
L 101.609649 287.146012 
L 107.208929 284.816359 
L 107.347183 284.66901 
L 109.075356 284.008528 
L 109.213609 283.506277 
L 110.112259 283.150522 
L 110.250513 282.609918 
L 110.803528 282.393817 
L 110.941782 281.882437 
L 112.808209 281.122051 
L 112.946463 280.93378 
L 113.741422 280.619812 
L 113.879676 280.168366 
L 115.089397 279.689448 
L 115.227651 279.183491 
L 118.165545 277.969855 
L 120.273915 277.095051 
L 120.412169 276.667555 
L 120.757804 276.517402 
L 122.347723 275.855438 
L 122.485977 275.351791 
L 124.386967 274.505174 
L 125.112799 274.211477 
L 125.251053 273.737031 
L 127.359424 272.879396 
L 127.497678 272.697399 
L 130.884896 271.314748 
L 131.02315 271.050511 
L 131.9218 270.627376 
L 132.094617 270.492762 
L 132.785887 270.212813 
L 132.92414 269.663796 
L 133.649973 269.370717 
L 133.788227 268.964998 
L 134.202988 268.787559 
L 134.514059 268.659912 
L 134.652313 268.444478 
L 134.756004 268.401282 
L 134.894257 268.167666 
L 136.933501 267.293516 
L 137.071755 266.757038 
L 138.799928 265.94954 
L 139.283816 265.73087 
L 141.184806 264.783781 
L 141.32306 264.575005 
L 143.949883 263.367149 
L 144.088137 262.868431 
L 144.675716 262.617929 
L 144.813969 261.990538 
L 145.678056 261.579557 
L 145.81631 261.365013 
L 149.238092 259.87307 
L 149.376346 259.678746 
L 149.61829 259.573049 
L 149.756544 258.938815 
L 151.41559 258.24786 
L 151.553843 258.01349 
L 154.31892 256.724827 
L 154.491737 256.570141 
L 157.325941 255.33448 
L 157.464194 254.880143 
L 158.743042 254.248516 
L 160.851413 253.361903 
L 161.093357 253.252253 
L 161.231611 252.95921 
L 163.72018 251.84995 
L 163.858434 251.331826 
L 166.727201 249.894307 
L 166.865455 249.377542 
L 166.900018 249.36062 
L 167.038272 249.141258 
L 171.496958 247.119395 
L 171.911719 246.90411 
L 172.049973 246.319173 
L 172.637552 246.063879 
L 172.775806 245.820998 
L 172.983186 245.684482 
L 173.225131 245.573918 
L 173.363384 245.315314 
L 173.467075 245.270908 
L 173.605329 244.775487 
L 175.402628 243.996783 
L 175.540882 243.529204 
L 178.098578 242.220753 
L 178.236832 241.798457 
L 178.513339 241.676727 
L 178.651593 241.176267 
L 186.462934 237.439888 
L 186.601188 237.381993 
L 186.739442 236.745907 
L 188.052853 236.156116 
L 188.191107 235.93332 
L 192.61523 233.896623 
L 192.753483 233.447684 
L 193.133681 233.26539 
L 193.271935 232.795514 
L 193.341062 232.763053 
L 193.548443 232.052199 
L 195.069235 231.339047 
L 195.207489 231.142586 
L 195.483996 231.016013 
L 195.62225 230.637902 
L 196.382646 230.273661 
L 196.5209 230.065923 
L 199.493357 228.542396 
L 199.631611 228.003977 
L 201.359784 227.152222 
L 202.742322 226.490851 
L 202.776886 226.471483 
L 202.91514 226.264658 
L 203.157084 226.144892 
L 203.295338 225.580979 
L 204.263114 225.136079 
L 204.401368 224.626663 
L 207.131881 223.351365 
L 207.304698 222.243945 
L 210.000648 220.950378 
L 210.138902 220.650171 
L 215.254293 218.175293 
L 215.392547 217.593469 
L 215.841872 217.382038 
L 215.980126 216.805723 
L 218.676076 215.447752 
L 218.848893 215.303059 
L 219.125401 215.169408 
L 219.263654 214.619095 
L 220.473375 214.028291 
L 220.611629 213.634567 
L 220.71532 213.584269 
L 220.853573 213.070901 
L 221.233771 212.897847 
L 221.372025 212.647481 
L 221.475716 212.597257 
L 221.613969 212.084396 
L 222.512619 211.645215 
L 222.650873 211.423877 
L 222.72 211.391625 
L 222.858254 210.856233 
L 224.62099 209.957021 
L 224.759244 209.436353 
L 225.346823 209.153192 
L 225.485077 208.724931 
L 226.487417 208.195431 
L 226.625671 207.7468 
L 227.386067 207.353014 
L 227.662574 206.556522 
L 228.595788 206.120059 
L 228.734041 205.839047 
L 228.872295 205.773049 
L 229.010549 205.538037 
L 232.086697 204.034508 
L 234.609829 202.784915 
L 234.748083 201.757734 
L 234.955464 201.661116 
L 235.093717 201.436998 
L 235.266535 201.350829 
L 235.404788 200.745463 
L 237.063834 199.941226 
L 237.202088 199.44903 
L 239.275896 198.384249 
L 239.552403 198.247968 
L 239.794347 197.417471 
L 241.038632 196.808769 
L 241.176886 196.317351 
L 243.112439 195.315579 
L 243.250693 195.055022 
L 243.31982 195.022684 
L 243.458074 194.497137 
L 247.709379 192.339796 
L 247.847633 191.610809 
L 249.126481 190.990854 
L 249.264734 190.467765 
L 249.714059 190.251602 
L 249.852313 189.949666 
L 250.059694 189.850639 
L 250.197948 189.637873 
L 250.750963 189.363939 
L 250.92378 188.899041 
L 251.165725 188.769467 
L 251.303978 188.093286 
L 251.995248 187.742768 
L 252.410009 187.454976 
L 252.548263 186.899487 
L 253.688857 186.328879 
L 253.827111 185.685937 
L 255.244212 184.965954 
L 255.382466 184.445064 
L 255.728101 184.271195 
L 255.866355 183.77428 
L 256.592187 183.413091 
L 256.730441 182.817186 
L 259.841152 181.227945 
L 261.154563 180.57102 
L 261.292817 180.095314 
L 261.742142 179.868664 
L 261.880396 179.411906 
L 261.914959 179.394515 
L 262.053213 178.735292 
L 262.295158 178.611907 
L 262.433411 178.359009 
L 264.299838 177.412772 
L 264.438092 177.187691 
L 267.341422 175.700207 
L 267.479676 175.026372 
L 268.101818 174.706056 
L 268.240072 173.8377 
L 269.484356 173.206678 
L 269.62261 172.614849 
L 272.42225 171.133652 
L 272.560504 170.624521 
L 272.767885 170.418067 
L 272.906139 170.342176 
L 273.044392 169.764935 
L 273.977606 169.276098 
L 275.291017 168.585329 
L 275.429271 168.339891 
L 276.466175 167.80466 
L 276.604428 167.302335 
L 278.332601 166.41088 
L 278.470855 164.941418 
L 279.991647 164.159539 
L 280.129901 163.638537 
L 280.510099 163.405254 
L 280.648353 163.131061 
L 280.890297 162.999869 
L 281.028551 162.415921 
L 282.100018 161.839495 
L 282.238272 161.147083 
L 282.480216 161.021325 
L 282.61847 160.150338 
L 283.413429 159.748078 
L 283.551683 159.156817 
L 284.346643 158.754445 
L 284.484896 158.259272 
L 286.005689 157.454505 
L 286.143942 157.129804 
L 287.111719 156.640164 
L 287.249973 156.397024 
L 288.909019 155.532522 
L 289.32378 155.323795 
L 289.462034 154.889827 
L 290.533501 154.32096 
L 290.671755 154.014689 
L 291.501278 153.56297 
L 291.674095 152.69433 
L 294.300918 151.284529 
L 294.439172 150.562286 
L 295.648893 149.766177 
L 295.82171 149.607971 
L 295.890837 149.561144 
L 296.029091 149.297734 
L 297.549883 148.479144 
L 297.688137 147.755654 
L 298.033771 147.54563 
L 298.172025 146.923193 
L 299.41631 146.255163 
L 299.554563 145.422146 
L 302.768965 143.712299 
L 302.907219 143.069147 
L 303.32198 142.85233 
L 303.460234 142.637822 
L 303.944122 142.360096 
L 304.082376 141.745861 
L 305.01559 141.250564 
L 305.153843 140.738765 
L 306.329001 140.096477 
L 306.467255 139.549771 
L 309.785347 137.763983 
L 309.9236 137.214003 
L 311.029631 136.481891 
L 311.202448 136.33301 
L 314.140342 134.711283 
L 314.278596 134.180548 
L 314.589667 133.999058 
L 314.727921 133.771334 
L 317.078236 132.518133 
L 318.11514 131.937965 
L 318.253393 131.362206 
L 318.391647 131.281485 
L 318.529901 130.7476 
L 322.435572 128.620818 
L 322.642952 128.499038 
L 322.781206 127.931259 
L 323.437912 127.557483 
L 323.576166 126.907364 
L 324.336562 126.475409 
L 324.474815 125.90868 
L 325.096958 125.56361 
L 325.235212 125.323966 
L 325.82279 125.006269 
L 325.961044 124.275145 
L 326.997948 123.602916 
L 327.170765 122.581232 
L 327.965725 122.139469 
L 328.103978 121.558869 
L 329.244572 120.911356 
L 329.382826 120.504624 
L 331.456634 119.297102 
L 331.491197 119.277055 
L 331.629451 119.04565 
L 332.355284 118.599799 
L 332.493537 118.326149 
L 333.945203 117.448158 
L 334.083456 116.87666 
L 335.189487 116.230853 
L 335.327741 115.637122 
L 336.1227 115.210441 
L 336.260954 115.02485 
L 338.196508 113.922877 
L 338.334761 113.102249 
L 343.726661 110.095809 
L 343.864914 109.568853 
L 343.899478 109.550461 
L 344.037732 109.04574 
L 344.798128 108.613192 
L 344.936382 108.320903 
L 345.109199 108.159139 
L 345.558524 107.901893 
L 345.696778 107.532576 
L 345.731341 107.512479 
L 345.869595 106.972294 
L 348.11622 105.640794 
L 348.980306 105.134022 
L 350.328281 104.33128 
L 350.466535 103.764563 
L 350.846733 103.547412 
L 350.984986 103.066531 
L 354.061134 101.291415 
L 354.510459 101.013158 
L 354.648713 100.77087 
L 355.270855 100.379937 
L 355.409109 100.154423 
L 355.754743 99.844051 
L 355.996688 99.704237 
L 356.134941 99.050462 
L 357.102718 98.477087 
L 357.240972 98.258405 
L 357.344662 98.194791 
L 357.482916 97.744308 
L 358.830891 96.929189 
L 358.969145 96.456892 
L 360.247993 95.693961 
L 360.386247 94.939319 
L 362.21811 93.795175 
L 362.563744 93.583966 
L 362.701998 93.156557 
L 366.503978 90.93727 
L 366.642232 90.429917 
L 367.713699 89.8037 
L 367.851953 89.17852 
L 369.856634 87.975877 
L 370.893537 87.311282 
L 371.031791 86.85335 
L 371.273735 86.709102 
L 371.411989 86.036082 
L 372.103258 85.52516 
L 372.241512 85.442821 
L 372.379766 84.468656 
L 372.759964 84.241438 
L 372.898218 83.025516 
L 373.693177 82.549254 
L 373.831431 82.084344 
L 374.31532 81.800405 
L 374.453573 81.299834 
L 375.110279 80.809379 
L 375.352223 80.65825 
L 375.490477 79.951423 
L 376.008929 79.642088 
L 376.112619 79.581303 
L 376.250873 79.057016 
L 376.492817 78.913434 
L 376.631071 78.691305 
L 379.01595 77.261309 
L 379.154203 77.030175 
L 379.292457 76.91136 
L 379.430711 75.937392 
L 380.191107 75.425556 
L 380.329361 74.27142 
L 385.064554 71.371739 
L 385.202808 71.153155 
L 387.207489 69.919064 
L 387.345743 69.390194 
L 388.348083 68.796908 
L 393.325221 65.762662 
L 393.463474 65.537297 
L 393.843672 65.304237 
L 393.981926 64.530251 
L 394.811449 64.04386 
L 394.949703 63.428698 
L 395.813789 62.878063 
L 395.952043 62.191543 
L 396.090297 62.107128 
L 396.228551 61.553678 
L 397.196328 60.88986 
L 397.334581 60.574831 
L 399.270135 59.309526 
L 399.442952 59.153716 
L 400.099658 58.754333 
L 400.237912 57.902072 
L 401.032871 57.401253 
L 401.205689 56.499064 
L 402.069775 55.953531 
L 402.208029 55.353192 
L 403.625131 54.499559 
L 403.763384 53.952013 
L 404.109019 53.723053 
L 404.281836 51.679031 
L 404.52378 51.528446 
L 404.696598 50.574822 
L 407.530801 48.724865 
L 407.669055 48.500722 
L 408.636832 47.830692 
L 408.775086 47.128682 
L 409.22441 46.865668 
L 409.362664 46.2426 
L 411.471035 44.910754 
L 411.609289 44.270183 
L 411.747543 44.184892 
L 411.885797 43.667583 
L 413.164644 42.82503 
L 413.302898 42.324793 
L 414.72 41.472 
L 414.72 41.472 
" style="fill:none;stroke:#ff7f0e;stroke-linecap:square;stroke-width:1.5;"/>
   </g>
   <g id="patch_3">
    <path d="M 69.12 307.584 
L 69.12 41.472 
" style="fill:none;stroke:#000000;stroke-linecap:square;stroke-linejoin:miter;stroke-width:0.8;"/>
   </g>
   <g id="patch_4">
    <path d="M 414.72 307.584 
L 414.72 41.472 
" style="fill:none;stroke:#000000;stroke-linecap:square;stroke-linejoin:miter;stroke-width:0.8;"/>
   </g>
   <g id="patch_5">
    <path d="M 69.12 307.584 
L 414.72 307.584 
" style="fill:none;stroke:#000000;stroke-linecap:square;stroke-linejoin:miter;stroke-width:0.8;"/>
   </g>
   <g id="patch_6">
    <path d="M 69.12 41.472 
L 414.72 41.472 
" style="fill:none;stroke:#000000;stroke-linecap:square;stroke-linejoin:miter;stroke-width:0.8;"/>
   </g>
   <g id="text_13">
    <!-- Messung_Ubuntu__Mittelwerte.csv -->
    <g transform="translate(138.526875 21.700875)scale(0.12 -0.12)">
     <defs>
      <path d="M 628 4666 
L 1569 4666 
L 2759 1491 
L 3956 4666 
L 4897 4666 
L 4897 0 
L 4281 0 
L 4281 4097 
L 3078 897 
L 2444 897 
L 1241 4097 
L 1241 0 
L 628 0 
L 628 4666 
z
" id="DejaVuSans-4d" transform="scale(0.015625)"/>
      <path d="M 3263 -1063 
L 3263 -1509 
L -63 -1509 
L -63 -1063 
L 3263 -1063 
z
" id="DejaVuSans-5f" transform="scale(0.015625)"/>
      <path d="M 556 4666 
L 1191 4666 
L 1191 1831 
Q 1191 1081 1462 751 
Q 1734 422 2344 422 
Q 2950 422 3222 751 
Q 3494 1081 3494 1831 
L 3494 4666 
L 4128 4666 
L 4128 1753 
Q 4128 841 3676 375 
Q 3225 -91 2344 -91 
Q 1459 -91 1007 375 
Q 556 841 556 1753 
L 556 4666 
z
" id="DejaVuSans-55" transform="scale(0.015625)"/>
      <path d="M 3116 1747 
Q 3116 2381 2855 2742 
Q 2594 3103 2138 3103 
Q 1681 3103 1420 2742 
Q 1159 2381 1159 1747 
Q 1159 1113 1420 752 
Q 1681 391 2138 391 
Q 2594 391 2855 752 
Q 3116 1113 3116 1747 
z
M 1159 2969 
Q 1341 3281 1617 3432 
Q 1894 3584 2278 3584 
Q 2916 3584 3314 3078 
Q 3713 2572 3713 1747 
Q 3713 922 3314 415 
Q 2916 -91 2278 -91 
Q 1894 -91 1617 61 
Q 1341 213 1159 525 
L 1159 0 
L 581 0 
L 581 4863 
L 1159 4863 
L 1159 2969 
z
" id="DejaVuSans-62" transform="scale(0.015625)"/>
      <path d="M 269 3500 
L 844 3500 
L 1563 769 
L 2278 3500 
L 2956 3500 
L 3675 769 
L 4391 3500 
L 4966 3500 
L 4050 0 
L 3372 0 
L 2619 2869 
L 1863 0 
L 1184 0 
L 269 3500 
z
" id="DejaVuSans-77" transform="scale(0.015625)"/>
      <path d="M 2631 2963 
Q 2534 3019 2420 3045 
Q 2306 3072 2169 3072 
Q 1681 3072 1420 2755 
Q 1159 2438 1159 1844 
L 1159 0 
L 581 0 
L 581 3500 
L 1159 3500 
L 1159 2956 
Q 1341 3275 1631 3429 
Q 1922 3584 2338 3584 
Q 2397 3584 2469 3576 
Q 2541 3569 2628 3553 
L 2631 2963 
z
" id="DejaVuSans-72" transform="scale(0.015625)"/>
      <path d="M 3122 3366 
L 3122 2828 
Q 2878 2963 2633 3030 
Q 2388 3097 2138 3097 
Q 1578 3097 1268 2742 
Q 959 2388 959 1747 
Q 959 1106 1268 751 
Q 1578 397 2138 397 
Q 2388 397 2633 464 
Q 2878 531 3122 666 
L 3122 134 
Q 2881 22 2623 -34 
Q 2366 -91 2075 -91 
Q 1284 -91 818 406 
Q 353 903 353 1747 
Q 353 2603 823 3093 
Q 1294 3584 2113 3584 
Q 2378 3584 2631 3529 
Q 2884 3475 3122 3366 
z
" id="DejaVuSans-63" transform="scale(0.015625)"/>
      <path d="M 191 3500 
L 800 3500 
L 1894 563 
L 2988 3500 
L 3597 3500 
L 2284 0 
L 1503 0 
L 191 3500 
z
" id="DejaVuSans-76" transform="scale(0.015625)"/>
     </defs>
     <use xlink:href="#DejaVuSans-4d"/>
     <use x="86.279297" xlink:href="#DejaVuSans-65"/>
     <use x="147.802734" xlink:href="#DejaVuSans-73"/>
     <use x="199.902344" xlink:href="#DejaVuSans-73"/>
     <use x="252.001953" xlink:href="#DejaVuSans-75"/>
     <use x="315.380859" xlink:href="#DejaVuSans-6e"/>
     <use x="378.759766" xlink:href="#DejaVuSans-67"/>
     <use x="442.236328" xlink:href="#DejaVuSans-5f"/>
     <use x="492.236328" xlink:href="#DejaVuSans-55"/>
     <use x="565.429688" xlink:href="#DejaVuSans-62"/>
     <use x="628.90625" xlink:href="#DejaVuSans-75"/>
     <use x="692.285156" xlink:href="#DejaVuSans-6e"/>
     <use x="755.664062" xlink:href="#DejaVuSans-74"/>
     <use x="794.873047" xlink:href="#DejaVuSans-75"/>
     <use x="858.251953" xlink:href="#DejaVuSans-5f"/>
     <use x="908.251953" xlink:href="#DejaVuSans-5f"/>
     <use x="958.251953" xlink:href="#DejaVuSans-4d"/>
     <use x="1044.53125" xlink:href="#DejaVuSans-69"/>
     <use x="1072.314453" xlink:href="#DejaVuSans-74"/>
     <use x="1111.523438" xlink:href="#DejaVuSans-74"/>
     <use x="1150.732422" xlink:href="#DejaVuSans-65"/>
     <use x="1212.255859" xlink:href="#DejaVuSans-6c"/>
     <use x="1240.039062" xlink:href="#DejaVuSans-77"/>
     <use x="1321.826172" xlink:href="#DejaVuSans-65"/>
     <use x="1383.349609" xlink:href="#DejaVuSans-72"/>
     <use x="1424.462891" xlink:href="#DejaVuSans-74"/>
     <use x="1463.671875" xlink:href="#DejaVuSans-65"/>
     <use x="1525.195312" xlink:href="#DejaVuSans-2e"/>
     <use x="1556.982422" xlink:href="#DejaVuSans-63"/>
     <use x="1611.962891" xlink:href="#DejaVuSans-73"/>
     <use x="1664.0625" xlink:href="#DejaVuSans-76"/>
    </g>
    <!-- Gesamtlaufzeit nach Anzahl der Elementen -->
    <g transform="translate(111.748125 35.472)scale(0.12 -0.12)">
     <defs>
      <path d="M 3513 2113 
L 3513 0 
L 2938 0 
L 2938 2094 
Q 2938 2591 2744 2837 
Q 2550 3084 2163 3084 
Q 1697 3084 1428 2787 
Q 1159 2491 1159 1978 
L 1159 0 
L 581 0 
L 581 4863 
L 1159 4863 
L 1159 2956 
Q 1366 3272 1645 3428 
Q 1925 3584 2291 3584 
Q 2894 3584 3203 3211 
Q 3513 2838 3513 2113 
z
" id="DejaVuSans-68" transform="scale(0.015625)"/>
      <path d="M 2188 4044 
L 1331 1722 
L 3047 1722 
L 2188 4044 
z
M 1831 4666 
L 2547 4666 
L 4325 0 
L 3669 0 
L 3244 1197 
L 1141 1197 
L 716 0 
L 50 0 
L 1831 4666 
z
" id="DejaVuSans-41" transform="scale(0.015625)"/>
     </defs>
     <use xlink:href="#DejaVuSans-47"/>
     <use x="77.490234" xlink:href="#DejaVuSans-65"/>
     <use x="139.013672" xlink:href="#DejaVuSans-73"/>
     <use x="191.113281" xlink:href="#DejaVuSans-61"/>
     <use x="252.392578" xlink:href="#DejaVuSans-6d"/>
     <use x="349.804688" xlink:href="#DejaVuSans-74"/>
     <use x="389.013672" xlink:href="#DejaVuSans-6c"/>
     <use x="416.796875" xlink:href="#DejaVuSans-61"/>
     <use x="478.076172" xlink:href="#DejaVuSans-75"/>
     <use x="541.455078" xlink:href="#DejaVuSans-66"/>
     <use x="576.660156" xlink:href="#DejaVuSans-7a"/>
     <use x="629.150391" xlink:href="#DejaVuSans-65"/>
     <use x="690.673828" xlink:href="#DejaVuSans-69"/>
     <use x="718.457031" xlink:href="#DejaVuSans-74"/>
     <use x="757.666016" xlink:href="#DejaVuSans-20"/>
     <use x="789.453125" xlink:href="#DejaVuSans-6e"/>
     <use x="852.832031" xlink:href="#DejaVuSans-61"/>
     <use x="914.111328" xlink:href="#DejaVuSans-63"/>
     <use x="969.091797" xlink:href="#DejaVuSans-68"/>
     <use x="1032.470703" xlink:href="#DejaVuSans-20"/>
     <use x="1064.257812" xlink:href="#DejaVuSans-41"/>
     <use x="1132.666016" xlink:href="#DejaVuSans-6e"/>
     <use x="1196.044922" xlink:href="#DejaVuSans-7a"/>
     <use x="1248.535156" xlink:href="#DejaVuSans-61"/>
     <use x="1309.814453" xlink:href="#DejaVuSans-68"/>
     <use x="1373.193359" xlink:href="#DejaVuSans-6c"/>
     <use x="1400.976562" xlink:href="#DejaVuSans-20"/>
     <use x="1432.763672" xlink:href="#DejaVuSans-64"/>
     <use x="1496.240234" xlink:href="#DejaVuSans-65"/>
     <use x="1557.763672" xlink:href="#DejaVuSans-72"/>
     <use x="1598.876953" xlink:href="#DejaVuSans-20"/>
     <use x="1630.664062" xlink:href="#DejaVuSans-45"/>
     <use x="1693.847656" xlink:href="#DejaVuSans-6c"/>
     <use x="1721.630859" xlink:href="#DejaVuSans-65"/>
     <use x="1783.154297" xlink:href="#DejaVuSans-6d"/>
     <use x="1880.566406" xlink:href="#DejaVuSans-65"/>
     <use x="1942.089844" xlink:href="#DejaVuSans-6e"/>
     <use x="2005.46875" xlink:href="#DejaVuSans-74"/>
     <use x="2044.677734" xlink:href="#DejaVuSans-65"/>
     <use x="2106.201172" xlink:href="#DejaVuSans-6e"/>
    </g>
   </g>
   <g id="legend_1">
    <g id="patch_7">
     <path d="M 76.12 78.82825 
L 135.054375 78.82825 
Q 137.054375 78.82825 137.054375 76.82825 
L 137.054375 48.472 
Q 137.054375 46.472 135.054375 46.472 
L 76.12 46.472 
Q 74.12 46.472 74.12 48.472 
L 74.12 76.82825 
Q 74.12 78.82825 76.12 78.82825 
z
" style="fill:#ffffff;opacity:0.8;stroke:#cccccc;stroke-linejoin:miter;"/>
    </g>
    <g id="line2d_13">
     <path d="M 78.12 54.570437 
L 98.12 54.570437 
" style="fill:none;stroke:#1f77b4;stroke-linecap:square;stroke-width:1.5;"/>
    </g>
    <g id="line2d_14"/>
    <g id="text_14">
     <!-- Liste -->
     <g transform="translate(106.12 58.070437)scale(0.1 -0.1)">
      <defs>
       <path d="M 628 4666 
L 1259 4666 
L 1259 531 
L 3531 531 
L 3531 0 
L 628 0 
L 628 4666 
z
" id="DejaVuSans-4c" transform="scale(0.015625)"/>
      </defs>
      <use xlink:href="#DejaVuSans-4c"/>
      <use x="55.712891" xlink:href="#DejaVuSans-69"/>
      <use x="83.496094" xlink:href="#DejaVuSans-73"/>
      <use x="135.595703" xlink:href="#DejaVuSans-74"/>
      <use x="174.804688" xlink:href="#DejaVuSans-65"/>
     </g>
    </g>
    <g id="line2d_15">
     <path d="M 78.12 69.248562 
L 98.12 69.248562 
" style="fill:none;stroke:#ff7f0e;stroke-linecap:square;stroke-width:1.5;"/>
    </g>
    <g id="line2d_16"/>
    <g id="text_15">
     <!-- Array -->
     <g transform="translate(106.12 72.748562)scale(0.1 -0.1)">
      <defs>
       <path d="M 2059 -325 
Q 1816 -950 1584 -1140 
Q 1353 -1331 966 -1331 
L 506 -1331 
L 506 -850 
L 844 -850 
Q 1081 -850 1212 -737 
Q 1344 -625 1503 -206 
L 1606 56 
L 191 3500 
L 800 3500 
L 1894 763 
L 2988 3500 
L 3597 3500 
L 2059 -325 
z
" id="DejaVuSans-79" transform="scale(0.015625)"/>
      </defs>
      <use xlink:href="#DejaVuSans-41"/>
      <use x="68.408203" xlink:href="#DejaVuSans-72"/>
      <use x="107.771484" xlink:href="#DejaVuSans-72"/>
      <use x="148.884766" xlink:href="#DejaVuSans-61"/>
      <use x="210.164062" xlink:href="#DejaVuSans-79"/>
     </g>
    </g>
   </g>
  </g>
 </g>
 <defs>
  <clipPath id="p179ad61f02">
   <rect height="266.112" width="345.6" x="69.12" y="41.472"/>
  </clipPath>
 </defs>
</svg>
