<?xml version="1.0" encoding="utf-8" standalone="no"?>
<!DOCTYPE svg PUBLIC "-//W3C//DTD SVG 1.1//EN"
  "http://www.w3.org/Graphics/SVG/1.1/DTD/svg11.dtd">
<svg height="345.6pt" version="1.1" viewBox="0 0 460.8 345.6" width="460.8pt" xmlns="http://www.w3.org/2000/svg" xmlns:xlink="http://www.w3.org/1999/xlink">
 <metadata>
  <rdf:RDF xmlns:cc="http://creativecommons.org/ns#" xmlns:dc="http://purl.org/dc/elements/1.1/" xmlns:rdf="http://www.w3.org/1999/02/22-rdf-syntax-ns#">
   <cc:Work>
    <dc:type rdf:resource="http://purl.org/dc/dcmitype/StillImage"/>
    <dc:date>2021-04-24T08:36:45.551015</dc:date>
    <dc:format>image/svg+xml</dc:format>
    <dc:creator>
     <cc:Agent>
      <dc:title>Matplotlib v3.4.1, https://matplotlib.org/</dc:title>
     </cc:Agent>
    </dc:creator>
   </cc:Work>
  </rdf:RDF>
 </metadata>
 <defs>
  <style type="text/css">*{stroke-linecap:butt;stroke-linejoin:round;}</style>
 </defs>
 <g id="figure_1">
  <g id="patch_1">
   <path d="M 0 345.6 
L 460.8 345.6 
L 460.8 0 
L 0 0 
z
" style="fill:#ffffff;"/>
  </g>
  <g id="axes_1">
   <g id="patch_2">
    <path d="M 69.12 307.584 
L 414.72 307.584 
L 414.72 41.472 
L 69.12 41.472 
z
" style="fill:#ffffff;"/>
   </g>
   <g id="matplotlib.axis_1">
    <g id="xtick_1">
     <g id="line2d_1">
      <defs>
       <path d="M 0 0 
L 0 3.5 
" id="m465f596992" style="stroke:#000000;stroke-width:0.8;"/>
      </defs>
      <g>
       <use style="stroke:#000000;stroke-width:0.8;" x="131.635707" xlink:href="#m465f596992" y="307.584"/>
      </g>
     </g>
     <g id="text_1">
      <!-- 200 -->
      <g transform="translate(122.091957 322.182437)scale(0.1 -0.1)">
       <defs>
        <path d="M 1228 531 
L 3431 531 
L 3431 0 
L 469 0 
L 469 531 
Q 828 903 1448 1529 
Q 2069 2156 2228 2338 
Q 2531 2678 2651 2914 
Q 2772 3150 2772 3378 
Q 2772 3750 2511 3984 
Q 2250 4219 1831 4219 
Q 1534 4219 1204 4116 
Q 875 4013 500 3803 
L 500 4441 
Q 881 4594 1212 4672 
Q 1544 4750 1819 4750 
Q 2544 4750 2975 4387 
Q 3406 4025 3406 3419 
Q 3406 3131 3298 2873 
Q 3191 2616 2906 2266 
Q 2828 2175 2409 1742 
Q 1991 1309 1228 531 
z
" id="DejaVuSans-32" transform="scale(0.015625)"/>
        <path d="M 2034 4250 
Q 1547 4250 1301 3770 
Q 1056 3291 1056 2328 
Q 1056 1369 1301 889 
Q 1547 409 2034 409 
Q 2525 409 2770 889 
Q 3016 1369 3016 2328 
Q 3016 3291 2770 3770 
Q 2525 4250 2034 4250 
z
M 2034 4750 
Q 2819 4750 3233 4129 
Q 3647 3509 3647 2328 
Q 3647 1150 3233 529 
Q 2819 -91 2034 -91 
Q 1250 -91 836 529 
Q 422 1150 422 2328 
Q 422 3509 836 4129 
Q 1250 4750 2034 4750 
z
" id="DejaVuSans-30" transform="scale(0.015625)"/>
       </defs>
       <use xlink:href="#DejaVuSans-32"/>
       <use x="63.623047" xlink:href="#DejaVuSans-30"/>
       <use x="127.246094" xlink:href="#DejaVuSans-30"/>
      </g>
     </g>
    </g>
    <g id="xtick_2">
     <g id="line2d_2">
      <g>
       <use style="stroke:#000000;stroke-width:0.8;" x="201.811545" xlink:href="#m465f596992" y="307.584"/>
      </g>
     </g>
     <g id="text_2">
      <!-- 400 -->
      <g transform="translate(192.267795 322.182437)scale(0.1 -0.1)">
       <defs>
        <path d="M 2419 4116 
L 825 1625 
L 2419 1625 
L 2419 4116 
z
M 2253 4666 
L 3047 4666 
L 3047 1625 
L 3713 1625 
L 3713 1100 
L 3047 1100 
L 3047 0 
L 2419 0 
L 2419 1100 
L 313 1100 
L 313 1709 
L 2253 4666 
z
" id="DejaVuSans-34" transform="scale(0.015625)"/>
       </defs>
       <use xlink:href="#DejaVuSans-34"/>
       <use x="63.623047" xlink:href="#DejaVuSans-30"/>
       <use x="127.246094" xlink:href="#DejaVuSans-30"/>
      </g>
     </g>
    </g>
    <g id="xtick_3">
     <g id="line2d_3">
      <g>
       <use style="stroke:#000000;stroke-width:0.8;" x="271.987383" xlink:href="#m465f596992" y="307.584"/>
      </g>
     </g>
     <g id="text_3">
      <!-- 600 -->
      <g transform="translate(262.443633 322.182437)scale(0.1 -0.1)">
       <defs>
        <path d="M 2113 2584 
Q 1688 2584 1439 2293 
Q 1191 2003 1191 1497 
Q 1191 994 1439 701 
Q 1688 409 2113 409 
Q 2538 409 2786 701 
Q 3034 994 3034 1497 
Q 3034 2003 2786 2293 
Q 2538 2584 2113 2584 
z
M 3366 4563 
L 3366 3988 
Q 3128 4100 2886 4159 
Q 2644 4219 2406 4219 
Q 1781 4219 1451 3797 
Q 1122 3375 1075 2522 
Q 1259 2794 1537 2939 
Q 1816 3084 2150 3084 
Q 2853 3084 3261 2657 
Q 3669 2231 3669 1497 
Q 3669 778 3244 343 
Q 2819 -91 2113 -91 
Q 1303 -91 875 529 
Q 447 1150 447 2328 
Q 447 3434 972 4092 
Q 1497 4750 2381 4750 
Q 2619 4750 2861 4703 
Q 3103 4656 3366 4563 
z
" id="DejaVuSans-36" transform="scale(0.015625)"/>
       </defs>
       <use xlink:href="#DejaVuSans-36"/>
       <use x="63.623047" xlink:href="#DejaVuSans-30"/>
       <use x="127.246094" xlink:href="#DejaVuSans-30"/>
      </g>
     </g>
    </g>
    <g id="xtick_4">
     <g id="line2d_4">
      <g>
       <use style="stroke:#000000;stroke-width:0.8;" x="342.163221" xlink:href="#m465f596992" y="307.584"/>
      </g>
     </g>
     <g id="text_4">
      <!-- 800 -->
      <g transform="translate(332.619471 322.182437)scale(0.1 -0.1)">
       <defs>
        <path d="M 2034 2216 
Q 1584 2216 1326 1975 
Q 1069 1734 1069 1313 
Q 1069 891 1326 650 
Q 1584 409 2034 409 
Q 2484 409 2743 651 
Q 3003 894 3003 1313 
Q 3003 1734 2745 1975 
Q 2488 2216 2034 2216 
z
M 1403 2484 
Q 997 2584 770 2862 
Q 544 3141 544 3541 
Q 544 4100 942 4425 
Q 1341 4750 2034 4750 
Q 2731 4750 3128 4425 
Q 3525 4100 3525 3541 
Q 3525 3141 3298 2862 
Q 3072 2584 2669 2484 
Q 3125 2378 3379 2068 
Q 3634 1759 3634 1313 
Q 3634 634 3220 271 
Q 2806 -91 2034 -91 
Q 1263 -91 848 271 
Q 434 634 434 1313 
Q 434 1759 690 2068 
Q 947 2378 1403 2484 
z
M 1172 3481 
Q 1172 3119 1398 2916 
Q 1625 2713 2034 2713 
Q 2441 2713 2670 2916 
Q 2900 3119 2900 3481 
Q 2900 3844 2670 4047 
Q 2441 4250 2034 4250 
Q 1625 4250 1398 4047 
Q 1172 3844 1172 3481 
z
" id="DejaVuSans-38" transform="scale(0.015625)"/>
       </defs>
       <use xlink:href="#DejaVuSans-38"/>
       <use x="63.623047" xlink:href="#DejaVuSans-30"/>
       <use x="127.246094" xlink:href="#DejaVuSans-30"/>
      </g>
     </g>
    </g>
    <g id="xtick_5">
     <g id="line2d_5">
      <g>
       <use style="stroke:#000000;stroke-width:0.8;" x="412.339059" xlink:href="#m465f596992" y="307.584"/>
      </g>
     </g>
     <g id="text_5">
      <!-- 1000 -->
      <g transform="translate(399.614059 322.182437)scale(0.1 -0.1)">
       <defs>
        <path d="M 794 531 
L 1825 531 
L 1825 4091 
L 703 3866 
L 703 4441 
L 1819 4666 
L 2450 4666 
L 2450 531 
L 3481 531 
L 3481 0 
L 794 0 
L 794 531 
z
" id="DejaVuSans-31" transform="scale(0.015625)"/>
       </defs>
       <use xlink:href="#DejaVuSans-31"/>
       <use x="63.623047" xlink:href="#DejaVuSans-30"/>
       <use x="127.246094" xlink:href="#DejaVuSans-30"/>
       <use x="190.869141" xlink:href="#DejaVuSans-30"/>
      </g>
     </g>
    </g>
    <g id="text_6">
     <!-- Hinzugefügtes Element -->
     <g transform="translate(183.523906 335.860562)scale(0.1 -0.1)">
      <defs>
       <path d="M 628 4666 
L 1259 4666 
L 1259 2753 
L 3553 2753 
L 3553 4666 
L 4184 4666 
L 4184 0 
L 3553 0 
L 3553 2222 
L 1259 2222 
L 1259 0 
L 628 0 
L 628 4666 
z
" id="DejaVuSans-48" transform="scale(0.015625)"/>
       <path d="M 603 3500 
L 1178 3500 
L 1178 0 
L 603 0 
L 603 3500 
z
M 603 4863 
L 1178 4863 
L 1178 4134 
L 603 4134 
L 603 4863 
z
" id="DejaVuSans-69" transform="scale(0.015625)"/>
       <path d="M 3513 2113 
L 3513 0 
L 2938 0 
L 2938 2094 
Q 2938 2591 2744 2837 
Q 2550 3084 2163 3084 
Q 1697 3084 1428 2787 
Q 1159 2491 1159 1978 
L 1159 0 
L 581 0 
L 581 3500 
L 1159 3500 
L 1159 2956 
Q 1366 3272 1645 3428 
Q 1925 3584 2291 3584 
Q 2894 3584 3203 3211 
Q 3513 2838 3513 2113 
z
" id="DejaVuSans-6e" transform="scale(0.015625)"/>
       <path d="M 353 3500 
L 3084 3500 
L 3084 2975 
L 922 459 
L 3084 459 
L 3084 0 
L 275 0 
L 275 525 
L 2438 3041 
L 353 3041 
L 353 3500 
z
" id="DejaVuSans-7a" transform="scale(0.015625)"/>
       <path d="M 544 1381 
L 544 3500 
L 1119 3500 
L 1119 1403 
Q 1119 906 1312 657 
Q 1506 409 1894 409 
Q 2359 409 2629 706 
Q 2900 1003 2900 1516 
L 2900 3500 
L 3475 3500 
L 3475 0 
L 2900 0 
L 2900 538 
Q 2691 219 2414 64 
Q 2138 -91 1772 -91 
Q 1169 -91 856 284 
Q 544 659 544 1381 
z
M 1991 3584 
L 1991 3584 
z
" id="DejaVuSans-75" transform="scale(0.015625)"/>
       <path d="M 2906 1791 
Q 2906 2416 2648 2759 
Q 2391 3103 1925 3103 
Q 1463 3103 1205 2759 
Q 947 2416 947 1791 
Q 947 1169 1205 825 
Q 1463 481 1925 481 
Q 2391 481 2648 825 
Q 2906 1169 2906 1791 
z
M 3481 434 
Q 3481 -459 3084 -895 
Q 2688 -1331 1869 -1331 
Q 1566 -1331 1297 -1286 
Q 1028 -1241 775 -1147 
L 775 -588 
Q 1028 -725 1275 -790 
Q 1522 -856 1778 -856 
Q 2344 -856 2625 -561 
Q 2906 -266 2906 331 
L 2906 616 
Q 2728 306 2450 153 
Q 2172 0 1784 0 
Q 1141 0 747 490 
Q 353 981 353 1791 
Q 353 2603 747 3093 
Q 1141 3584 1784 3584 
Q 2172 3584 2450 3431 
Q 2728 3278 2906 2969 
L 2906 3500 
L 3481 3500 
L 3481 434 
z
" id="DejaVuSans-67" transform="scale(0.015625)"/>
       <path d="M 3597 1894 
L 3597 1613 
L 953 1613 
Q 991 1019 1311 708 
Q 1631 397 2203 397 
Q 2534 397 2845 478 
Q 3156 559 3463 722 
L 3463 178 
Q 3153 47 2828 -22 
Q 2503 -91 2169 -91 
Q 1331 -91 842 396 
Q 353 884 353 1716 
Q 353 2575 817 3079 
Q 1281 3584 2069 3584 
Q 2775 3584 3186 3129 
Q 3597 2675 3597 1894 
z
M 3022 2063 
Q 3016 2534 2758 2815 
Q 2500 3097 2075 3097 
Q 1594 3097 1305 2825 
Q 1016 2553 972 2059 
L 3022 2063 
z
" id="DejaVuSans-65" transform="scale(0.015625)"/>
       <path d="M 2375 4863 
L 2375 4384 
L 1825 4384 
Q 1516 4384 1395 4259 
Q 1275 4134 1275 3809 
L 1275 3500 
L 2222 3500 
L 2222 3053 
L 1275 3053 
L 1275 0 
L 697 0 
L 697 3053 
L 147 3053 
L 147 3500 
L 697 3500 
L 697 3744 
Q 697 4328 969 4595 
Q 1241 4863 1831 4863 
L 2375 4863 
z
" id="DejaVuSans-66" transform="scale(0.015625)"/>
       <path d="M 544 1381 
L 544 3500 
L 1119 3500 
L 1119 1403 
Q 1119 906 1312 657 
Q 1506 409 1894 409 
Q 2359 409 2629 706 
Q 2900 1003 2900 1516 
L 2900 3500 
L 3475 3500 
L 3475 0 
L 2900 0 
L 2900 538 
Q 2691 219 2414 64 
Q 2138 -91 1772 -91 
Q 1169 -91 856 284 
Q 544 659 544 1381 
z
M 1991 3584 
L 1991 3584 
z
M 2278 4850 
L 2912 4850 
L 2912 4219 
L 2278 4219 
L 2278 4850 
z
M 1056 4850 
L 1690 4850 
L 1690 4219 
L 1056 4219 
L 1056 4850 
z
" id="DejaVuSans-fc" transform="scale(0.015625)"/>
       <path d="M 1172 4494 
L 1172 3500 
L 2356 3500 
L 2356 3053 
L 1172 3053 
L 1172 1153 
Q 1172 725 1289 603 
Q 1406 481 1766 481 
L 2356 481 
L 2356 0 
L 1766 0 
Q 1100 0 847 248 
Q 594 497 594 1153 
L 594 3053 
L 172 3053 
L 172 3500 
L 594 3500 
L 594 4494 
L 1172 4494 
z
" id="DejaVuSans-74" transform="scale(0.015625)"/>
       <path d="M 2834 3397 
L 2834 2853 
Q 2591 2978 2328 3040 
Q 2066 3103 1784 3103 
Q 1356 3103 1142 2972 
Q 928 2841 928 2578 
Q 928 2378 1081 2264 
Q 1234 2150 1697 2047 
L 1894 2003 
Q 2506 1872 2764 1633 
Q 3022 1394 3022 966 
Q 3022 478 2636 193 
Q 2250 -91 1575 -91 
Q 1294 -91 989 -36 
Q 684 19 347 128 
L 347 722 
Q 666 556 975 473 
Q 1284 391 1588 391 
Q 1994 391 2212 530 
Q 2431 669 2431 922 
Q 2431 1156 2273 1281 
Q 2116 1406 1581 1522 
L 1381 1569 
Q 847 1681 609 1914 
Q 372 2147 372 2553 
Q 372 3047 722 3315 
Q 1072 3584 1716 3584 
Q 2034 3584 2315 3537 
Q 2597 3491 2834 3397 
z
" id="DejaVuSans-73" transform="scale(0.015625)"/>
       <path id="DejaVuSans-20" transform="scale(0.015625)"/>
       <path d="M 628 4666 
L 3578 4666 
L 3578 4134 
L 1259 4134 
L 1259 2753 
L 3481 2753 
L 3481 2222 
L 1259 2222 
L 1259 531 
L 3634 531 
L 3634 0 
L 628 0 
L 628 4666 
z
" id="DejaVuSans-45" transform="scale(0.015625)"/>
       <path d="M 603 4863 
L 1178 4863 
L 1178 0 
L 603 0 
L 603 4863 
z
" id="DejaVuSans-6c" transform="scale(0.015625)"/>
       <path d="M 3328 2828 
Q 3544 3216 3844 3400 
Q 4144 3584 4550 3584 
Q 5097 3584 5394 3201 
Q 5691 2819 5691 2113 
L 5691 0 
L 5113 0 
L 5113 2094 
Q 5113 2597 4934 2840 
Q 4756 3084 4391 3084 
Q 3944 3084 3684 2787 
Q 3425 2491 3425 1978 
L 3425 0 
L 2847 0 
L 2847 2094 
Q 2847 2600 2669 2842 
Q 2491 3084 2119 3084 
Q 1678 3084 1418 2786 
Q 1159 2488 1159 1978 
L 1159 0 
L 581 0 
L 581 3500 
L 1159 3500 
L 1159 2956 
Q 1356 3278 1631 3431 
Q 1906 3584 2284 3584 
Q 2666 3584 2933 3390 
Q 3200 3197 3328 2828 
z
" id="DejaVuSans-6d" transform="scale(0.015625)"/>
      </defs>
      <use xlink:href="#DejaVuSans-48"/>
      <use x="75.195312" xlink:href="#DejaVuSans-69"/>
      <use x="102.978516" xlink:href="#DejaVuSans-6e"/>
      <use x="166.357422" xlink:href="#DejaVuSans-7a"/>
      <use x="218.847656" xlink:href="#DejaVuSans-75"/>
      <use x="282.226562" xlink:href="#DejaVuSans-67"/>
      <use x="345.703125" xlink:href="#DejaVuSans-65"/>
      <use x="407.226562" xlink:href="#DejaVuSans-66"/>
      <use x="442.431641" xlink:href="#DejaVuSans-fc"/>
      <use x="505.810547" xlink:href="#DejaVuSans-67"/>
      <use x="569.287109" xlink:href="#DejaVuSans-74"/>
      <use x="608.496094" xlink:href="#DejaVuSans-65"/>
      <use x="670.019531" xlink:href="#DejaVuSans-73"/>
      <use x="722.119141" xlink:href="#DejaVuSans-20"/>
      <use x="753.90625" xlink:href="#DejaVuSans-45"/>
      <use x="817.089844" xlink:href="#DejaVuSans-6c"/>
      <use x="844.873047" xlink:href="#DejaVuSans-65"/>
      <use x="906.396484" xlink:href="#DejaVuSans-6d"/>
      <use x="1003.808594" xlink:href="#DejaVuSans-65"/>
      <use x="1065.332031" xlink:href="#DejaVuSans-6e"/>
      <use x="1128.710938" xlink:href="#DejaVuSans-74"/>
     </g>
    </g>
   </g>
   <g id="matplotlib.axis_2">
    <g id="ytick_1">
     <g id="line2d_6">
      <defs>
       <path d="M 0 0 
L -3.5 0 
" id="mbeaa8f74af" style="stroke:#000000;stroke-width:0.8;"/>
      </defs>
      <g>
       <use style="stroke:#000000;stroke-width:0.8;" x="69.12" xlink:href="#mbeaa8f74af" y="307.584"/>
      </g>
     </g>
     <g id="text_7">
      <!-- 0 -->
      <g transform="translate(55.7575 311.383219)scale(0.1 -0.1)">
       <use xlink:href="#DejaVuSans-30"/>
      </g>
     </g>
    </g>
    <g id="ytick_2">
     <g id="line2d_7">
      <g>
       <use style="stroke:#000000;stroke-width:0.8;" x="69.12" xlink:href="#mbeaa8f74af" y="254.150027"/>
      </g>
     </g>
     <g id="text_8">
      <!-- 2 -->
      <g transform="translate(55.7575 257.949246)scale(0.1 -0.1)">
       <use xlink:href="#DejaVuSans-32"/>
      </g>
     </g>
    </g>
    <g id="ytick_3">
     <g id="line2d_8">
      <g>
       <use style="stroke:#000000;stroke-width:0.8;" x="69.12" xlink:href="#mbeaa8f74af" y="200.716054"/>
      </g>
     </g>
     <g id="text_9">
      <!-- 4 -->
      <g transform="translate(55.7575 204.515273)scale(0.1 -0.1)">
       <use xlink:href="#DejaVuSans-34"/>
      </g>
     </g>
    </g>
    <g id="ytick_4">
     <g id="line2d_9">
      <g>
       <use style="stroke:#000000;stroke-width:0.8;" x="69.12" xlink:href="#mbeaa8f74af" y="147.282081"/>
      </g>
     </g>
     <g id="text_10">
      <!-- 6 -->
      <g transform="translate(55.7575 151.0813)scale(0.1 -0.1)">
       <use xlink:href="#DejaVuSans-36"/>
      </g>
     </g>
    </g>
    <g id="ytick_5">
     <g id="line2d_10">
      <g>
       <use style="stroke:#000000;stroke-width:0.8;" x="69.12" xlink:href="#mbeaa8f74af" y="93.848108"/>
      </g>
     </g>
     <g id="text_11">
      <!-- 8 -->
      <g transform="translate(55.7575 97.647327)scale(0.1 -0.1)">
       <use xlink:href="#DejaVuSans-38"/>
      </g>
     </g>
    </g>
    <g id="text_12">
     <!-- Laufzeitveränderung in Sekunden -->
     <g transform="translate(49.677813 258.981906)rotate(-90)scale(0.1 -0.1)">
      <defs>
       <path d="M 628 4666 
L 1259 4666 
L 1259 531 
L 3531 531 
L 3531 0 
L 628 0 
L 628 4666 
z
" id="DejaVuSans-4c" transform="scale(0.015625)"/>
       <path d="M 2194 1759 
Q 1497 1759 1228 1600 
Q 959 1441 959 1056 
Q 959 750 1161 570 
Q 1363 391 1709 391 
Q 2188 391 2477 730 
Q 2766 1069 2766 1631 
L 2766 1759 
L 2194 1759 
z
M 3341 1997 
L 3341 0 
L 2766 0 
L 2766 531 
Q 2569 213 2275 61 
Q 1981 -91 1556 -91 
Q 1019 -91 701 211 
Q 384 513 384 1019 
Q 384 1609 779 1909 
Q 1175 2209 1959 2209 
L 2766 2209 
L 2766 2266 
Q 2766 2663 2505 2880 
Q 2244 3097 1772 3097 
Q 1472 3097 1187 3025 
Q 903 2953 641 2809 
L 641 3341 
Q 956 3463 1253 3523 
Q 1550 3584 1831 3584 
Q 2591 3584 2966 3190 
Q 3341 2797 3341 1997 
z
" id="DejaVuSans-61" transform="scale(0.015625)"/>
       <path d="M 191 3500 
L 800 3500 
L 1894 563 
L 2988 3500 
L 3597 3500 
L 2284 0 
L 1503 0 
L 191 3500 
z
" id="DejaVuSans-76" transform="scale(0.015625)"/>
       <path d="M 2631 2963 
Q 2534 3019 2420 3045 
Q 2306 3072 2169 3072 
Q 1681 3072 1420 2755 
Q 1159 2438 1159 1844 
L 1159 0 
L 581 0 
L 581 3500 
L 1159 3500 
L 1159 2956 
Q 1341 3275 1631 3429 
Q 1922 3584 2338 3584 
Q 2397 3584 2469 3576 
Q 2541 3569 2628 3553 
L 2631 2963 
z
" id="DejaVuSans-72" transform="scale(0.015625)"/>
       <path d="M 2194 1759 
Q 1497 1759 1228 1600 
Q 959 1441 959 1056 
Q 959 750 1161 570 
Q 1363 391 1709 391 
Q 2188 391 2477 730 
Q 2766 1069 2766 1631 
L 2766 1759 
L 2194 1759 
z
M 3341 1997 
L 3341 0 
L 2766 0 
L 2766 531 
Q 2569 213 2275 61 
Q 1981 -91 1556 -91 
Q 1019 -91 701 211 
Q 384 513 384 1019 
Q 384 1609 779 1909 
Q 1175 2209 1959 2209 
L 2766 2209 
L 2766 2266 
Q 2766 2663 2505 2880 
Q 2244 3097 1772 3097 
Q 1472 3097 1187 3025 
Q 903 2953 641 2809 
L 641 3341 
Q 956 3463 1253 3523 
Q 1550 3584 1831 3584 
Q 2591 3584 2966 3190 
Q 3341 2797 3341 1997 
z
M 2150 4850 
L 2784 4850 
L 2784 4219 
L 2150 4219 
L 2150 4850 
z
M 928 4850 
L 1562 4850 
L 1562 4219 
L 928 4219 
L 928 4850 
z
" id="DejaVuSans-e4" transform="scale(0.015625)"/>
       <path d="M 2906 2969 
L 2906 4863 
L 3481 4863 
L 3481 0 
L 2906 0 
L 2906 525 
Q 2725 213 2448 61 
Q 2172 -91 1784 -91 
Q 1150 -91 751 415 
Q 353 922 353 1747 
Q 353 2572 751 3078 
Q 1150 3584 1784 3584 
Q 2172 3584 2448 3432 
Q 2725 3281 2906 2969 
z
M 947 1747 
Q 947 1113 1208 752 
Q 1469 391 1925 391 
Q 2381 391 2643 752 
Q 2906 1113 2906 1747 
Q 2906 2381 2643 2742 
Q 2381 3103 1925 3103 
Q 1469 3103 1208 2742 
Q 947 2381 947 1747 
z
" id="DejaVuSans-64" transform="scale(0.015625)"/>
       <path d="M 3425 4513 
L 3425 3897 
Q 3066 4069 2747 4153 
Q 2428 4238 2131 4238 
Q 1616 4238 1336 4038 
Q 1056 3838 1056 3469 
Q 1056 3159 1242 3001 
Q 1428 2844 1947 2747 
L 2328 2669 
Q 3034 2534 3370 2195 
Q 3706 1856 3706 1288 
Q 3706 609 3251 259 
Q 2797 -91 1919 -91 
Q 1588 -91 1214 -16 
Q 841 59 441 206 
L 441 856 
Q 825 641 1194 531 
Q 1563 422 1919 422 
Q 2459 422 2753 634 
Q 3047 847 3047 1241 
Q 3047 1584 2836 1778 
Q 2625 1972 2144 2069 
L 1759 2144 
Q 1053 2284 737 2584 
Q 422 2884 422 3419 
Q 422 4038 858 4394 
Q 1294 4750 2059 4750 
Q 2388 4750 2728 4690 
Q 3069 4631 3425 4513 
z
" id="DejaVuSans-53" transform="scale(0.015625)"/>
       <path d="M 581 4863 
L 1159 4863 
L 1159 1991 
L 2875 3500 
L 3609 3500 
L 1753 1863 
L 3688 0 
L 2938 0 
L 1159 1709 
L 1159 0 
L 581 0 
L 581 4863 
z
" id="DejaVuSans-6b" transform="scale(0.015625)"/>
      </defs>
      <use xlink:href="#DejaVuSans-4c"/>
      <use x="55.712891" xlink:href="#DejaVuSans-61"/>
      <use x="116.992188" xlink:href="#DejaVuSans-75"/>
      <use x="180.371094" xlink:href="#DejaVuSans-66"/>
      <use x="215.576172" xlink:href="#DejaVuSans-7a"/>
      <use x="268.066406" xlink:href="#DejaVuSans-65"/>
      <use x="329.589844" xlink:href="#DejaVuSans-69"/>
      <use x="357.373047" xlink:href="#DejaVuSans-74"/>
      <use x="396.582031" xlink:href="#DejaVuSans-76"/>
      <use x="455.761719" xlink:href="#DejaVuSans-65"/>
      <use x="517.285156" xlink:href="#DejaVuSans-72"/>
      <use x="558.398438" xlink:href="#DejaVuSans-e4"/>
      <use x="619.677734" xlink:href="#DejaVuSans-6e"/>
      <use x="683.056641" xlink:href="#DejaVuSans-64"/>
      <use x="746.533203" xlink:href="#DejaVuSans-65"/>
      <use x="808.056641" xlink:href="#DejaVuSans-72"/>
      <use x="849.169922" xlink:href="#DejaVuSans-75"/>
      <use x="912.548828" xlink:href="#DejaVuSans-6e"/>
      <use x="975.927734" xlink:href="#DejaVuSans-67"/>
      <use x="1039.404297" xlink:href="#DejaVuSans-20"/>
      <use x="1071.191406" xlink:href="#DejaVuSans-69"/>
      <use x="1098.974609" xlink:href="#DejaVuSans-6e"/>
      <use x="1162.353516" xlink:href="#DejaVuSans-20"/>
      <use x="1194.140625" xlink:href="#DejaVuSans-53"/>
      <use x="1257.617188" xlink:href="#DejaVuSans-65"/>
      <use x="1319.140625" xlink:href="#DejaVuSans-6b"/>
      <use x="1373.925781" xlink:href="#DejaVuSans-75"/>
      <use x="1437.304688" xlink:href="#DejaVuSans-6e"/>
      <use x="1500.683594" xlink:href="#DejaVuSans-64"/>
      <use x="1564.160156" xlink:href="#DejaVuSans-65"/>
      <use x="1625.683594" xlink:href="#DejaVuSans-6e"/>
     </g>
    </g>
    <g id="text_13">
     <!-- 1e−7 -->
     <g transform="translate(69.12 38.472)scale(0.1 -0.1)">
      <defs>
       <path d="M 678 2272 
L 4684 2272 
L 4684 1741 
L 678 1741 
L 678 2272 
z
" id="DejaVuSans-2212" transform="scale(0.015625)"/>
       <path d="M 525 4666 
L 3525 4666 
L 3525 4397 
L 1831 0 
L 1172 0 
L 2766 4134 
L 525 4134 
L 525 4666 
z
" id="DejaVuSans-37" transform="scale(0.015625)"/>
      </defs>
      <use xlink:href="#DejaVuSans-31"/>
      <use x="63.623047" xlink:href="#DejaVuSans-65"/>
      <use x="125.146484" xlink:href="#DejaVuSans-2212"/>
      <use x="208.935547" xlink:href="#DejaVuSans-37"/>
     </g>
    </g>
   </g>
   <g id="line2d_11">
    <path clip-path="url(#p28665c11ae)" d="M 68.828332 243.88574 
L 69.53009 243.88574 
L 69.880969 307.584 
L 70.231848 307.584 
L 70.582728 180.187481 
L 70.933607 243.88574 
L 71.635365 243.88574 
L 71.986244 307.584 
L 72.337124 307.584 
L 72.688003 243.88574 
L 73.038882 243.88574 
L 73.389761 180.187481 
L 73.74064 243.88574 
L 74.09152 180.187481 
L 74.442399 243.88574 
L 74.793278 243.88574 
L 75.144157 307.584 
L 75.495036 180.187481 
L 75.845915 307.584 
L 76.196795 243.88574 
L 76.547674 307.584 
L 76.898553 243.88574 
L 77.600311 243.88574 
L 77.951191 180.187481 
L 78.652949 307.584 
L 79.003828 243.88574 
L 79.705587 243.88574 
L 80.056466 307.584 
L 80.407345 307.584 
L 80.758224 243.88574 
L 81.109103 243.88574 
L 81.459983 307.584 
L 81.810862 243.88574 
L 82.161741 116.489221 
L 82.51262 307.584 
L 82.863499 243.88574 
L 84.617895 243.88574 
L 84.968774 180.187481 
L 85.319654 307.584 
L 85.670533 243.88574 
L 86.021412 243.88574 
L 86.372291 307.584 
L 86.72317 307.584 
L 87.07405 52.790962 
L 87.424929 243.88574 
L 89.179325 243.88574 
L 89.530204 307.584 
L 89.881083 243.88574 
L 90.933721 243.88574 
L 91.2846 180.187481 
L 91.635479 243.88574 
L 91.986358 180.187481 
L 92.337237 307.584 
L 92.688117 116.489221 
L 93.038996 243.88574 
L 93.740754 243.88574 
L 94.091633 307.584 
L 94.442513 243.88574 
L 95.846029 243.88574 
L 96.196909 307.584 
L 96.547788 243.88574 
L 97.600425 243.88574 
L 97.951305 180.187481 
L 98.653063 307.584 
L 99.003942 180.187481 
L 99.7057 307.584 
L 100.05658 243.88574 
L 100.407459 307.584 
L 100.758338 243.88574 
L 103.565372 243.88574 
L 103.916251 307.584 
L 104.26713 243.88574 
L 105.319768 243.88574 
L 105.670647 180.187481 
L 106.021526 52.790962 
L 106.372405 307.584 
L 106.723284 243.88574 
L 107.074163 307.584 
L 107.425043 243.88574 
L 107.775922 307.584 
L 108.126801 243.88574 
L 108.828559 243.88574 
L 109.179439 307.584 
L 109.530318 243.88574 
L 109.881197 243.88574 
L 110.232076 307.584 
L 110.582955 307.584 
L 110.933835 243.88574 
L 111.284714 243.88574 
L 111.635593 307.584 
L 111.986472 243.88574 
L 113.389989 243.88574 
L 113.740868 180.187481 
L 114.091747 243.88574 
L 118.302298 243.88574 
L 118.653177 307.584 
L 119.004056 243.88574 
L 119.354935 243.88574 
L 119.705814 307.584 
L 120.056694 243.88574 
L 120.407573 243.88574 
L 120.758452 307.584 
L 121.109331 243.88574 
L 122.161969 243.88574 
L 122.512848 116.489221 
L 123.214606 243.88574 
L 124.267244 243.88574 
L 124.618123 180.187481 
L 125.319881 307.584 
L 125.670761 243.88574 
L 126.372519 243.88574 
L 126.723398 180.187481 
L 127.074277 243.88574 
L 130.23219 243.88574 
L 130.583069 180.187481 
L 130.933948 243.88574 
L 131.284828 243.88574 
L 131.635707 307.584 
L 131.986586 243.88574 
L 132.337465 116.489221 
L 132.688344 307.584 
L 133.039224 243.88574 
L 133.390103 243.88574 
L 133.740982 307.584 
L 134.091861 243.88574 
L 136.548015 243.88574 
L 136.898895 180.187481 
L 137.249774 243.88574 
L 138.302411 243.88574 
L 138.653291 307.584 
L 139.00417 243.88574 
L 139.355049 243.88574 
L 139.705928 307.584 
L 140.056807 307.584 
L 140.407687 243.88574 
L 140.758566 243.88574 
L 141.109445 307.584 
L 141.460324 243.88574 
L 141.811203 307.584 
L 142.512962 180.187481 
L 142.863841 243.88574 
L 143.21472 243.88574 
L 143.565599 180.187481 
L 143.916479 307.584 
L 144.267358 243.88574 
L 144.618237 307.584 
L 144.969116 180.187481 
L 145.319995 307.584 
L 145.670874 243.88574 
L 146.021754 307.584 
L 146.372633 243.88574 
L 146.723512 243.88574 
L 147.074391 307.584 
L 147.42527 243.88574 
L 149.179666 243.88574 
L 149.530546 307.584 
L 149.881425 243.88574 
L 150.934062 243.88574 
L 151.284942 180.187481 
L 151.635821 243.88574 
L 151.9867 243.88574 
L 152.337579 307.584 
L 152.688458 243.88574 
L 153.390217 243.88574 
L 153.741096 307.584 
L 154.091975 243.88574 
L 154.442854 307.584 
L 154.793733 180.187481 
L 155.144613 243.88574 
L 155.495492 243.88574 
L 155.846371 180.187481 
L 156.19725 180.187481 
L 156.548129 243.88574 
L 157.600767 243.88574 
L 157.951646 307.584 
L 158.302525 243.88574 
L 160.056921 243.88574 
L 160.4078 307.584 
L 160.75868 180.187481 
L 161.109559 307.584 
L 161.460438 243.88574 
L 163.214834 243.88574 
L 163.565713 307.584 
L 164.267472 180.187481 
L 164.618351 307.584 
L 164.96923 243.88574 
L 166.723626 243.88574 
L 167.074505 307.584 
L 167.425384 307.584 
L 167.776263 243.88574 
L 168.828901 243.88574 
L 169.17978 307.584 
L 169.530659 243.88574 
L 169.881539 243.88574 
L 170.232418 116.489221 
L 170.583297 243.88574 
L 171.285055 243.88574 
L 171.635935 307.584 
L 171.986814 243.88574 
L 173.74121 243.88574 
L 174.092089 180.187481 
L 174.793847 307.584 
L 175.144726 243.88574 
L 175.495606 307.584 
L 175.846485 307.584 
L 176.197364 243.88574 
L 177.95176 243.88574 
L 178.302639 307.584 
L 178.653518 307.584 
L 179.004398 180.187481 
L 179.355277 307.584 
L 179.706156 307.584 
L 180.407914 180.187481 
L 180.758794 307.584 
L 181.109673 243.88574 
L 182.864069 243.88574 
L 183.214948 307.584 
L 183.565827 243.88574 
L 183.916706 307.584 
L 184.267585 307.584 
L 184.618465 180.187481 
L 185.320223 307.584 
L 185.671102 180.187481 
L 186.021981 180.187481 
L 186.372861 307.584 
L 186.72374 307.584 
L 187.074619 243.88574 
L 187.776377 243.88574 
L 188.127257 307.584 
L 188.478136 243.88574 
L 188.829015 307.584 
L 189.179894 243.88574 
L 189.530773 243.88574 
L 189.881653 307.584 
L 190.232532 243.88574 
L 190.93429 243.88574 
L 191.285169 307.584 
L 191.636048 307.584 
L 191.986928 243.88574 
L 193.390444 243.88574 
L 193.741324 307.584 
L 194.092203 243.88574 
L 194.443082 307.584 
L 194.793961 243.88574 
L 195.14484 307.584 
L 195.49572 243.88574 
L 195.846599 243.88574 
L 196.197478 307.584 
L 196.548357 307.584 
L 196.899236 243.88574 
L 197.951874 243.88574 
L 198.302753 307.584 
L 198.653632 243.88574 
L 199.004511 243.88574 
L 199.355391 180.187481 
L 200.057149 307.584 
L 200.408028 180.187481 
L 201.109787 307.584 
L 201.460666 243.88574 
L 201.811545 307.584 
L 202.513303 307.584 
L 202.864183 243.88574 
L 203.565941 243.88574 
L 203.91682 180.187481 
L 204.267699 180.187481 
L 204.618579 243.88574 
L 204.969458 243.88574 
L 205.320337 180.187481 
L 205.671216 243.88574 
L 206.022095 243.88574 
L 206.372974 307.584 
L 206.723854 243.88574 
L 207.425612 243.88574 
L 207.776491 307.584 
L 208.12737 243.88574 
L 209.180008 243.88574 
L 209.530887 307.584 
L 209.881766 243.88574 
L 210.232646 307.584 
L 210.934404 180.187481 
L 211.285283 307.584 
L 211.636162 307.584 
L 211.987042 243.88574 
L 212.337921 243.88574 
L 212.6888 307.584 
L 213.039679 243.88574 
L 214.092317 243.88574 
L 214.443196 307.584 
L 215.144954 307.584 
L 215.495833 243.88574 
L 216.197592 243.88574 
L 216.548471 307.584 
L 216.89935 243.88574 
L 217.951988 243.88574 
L 218.302867 307.584 
L 219.004625 307.584 
L 219.355505 243.88574 
L 221.46078 243.88574 
L 221.811659 180.187481 
L 222.162538 243.88574 
L 223.566055 243.88574 
L 223.916934 180.187481 
L 224.267813 243.88574 
L 225.320451 243.88574 
L 225.67133 307.584 
L 226.022209 243.88574 
L 226.373088 243.88574 
L 226.723968 307.584 
L 227.074847 243.88574 
L 227.776605 243.88574 
L 228.127484 180.187481 
L 228.478363 243.88574 
L 229.531001 243.88574 
L 229.88188 307.584 
L 230.232759 243.88574 
L 231.987155 243.88574 
L 232.338035 180.187481 
L 232.688914 243.88574 
L 233.390672 243.88574 
L 233.741551 180.187481 
L 234.092431 307.584 
L 234.44331 307.584 
L 234.794189 243.88574 
L 235.145068 307.584 
L 235.846827 180.187481 
L 236.197706 243.88574 
L 236.548585 243.88574 
L 236.899464 307.584 
L 237.250343 243.88574 
L 240.057377 243.88574 
L 240.408256 307.584 
L 240.759135 243.88574 
L 241.110014 243.88574 
L 241.460894 180.187481 
L 242.162652 307.584 
L 242.513531 243.88574 
L 243.566169 243.88574 
L 243.917048 307.584 
L 244.267927 243.88574 
L 244.618806 243.88574 
L 244.969685 180.187481 
L 245.320565 307.584 
L 245.671444 243.88574 
L 246.022323 243.88574 
L 246.373202 52.790962 
L 246.724081 243.88574 
L 247.074961 243.88574 
L 247.42584 307.584 
L 247.776719 307.584 
L 248.127598 243.88574 
L 248.478477 307.584 
L 248.829357 307.584 
L 249.180236 243.88574 
L 249.531115 243.88574 
L 249.881994 307.584 
L 250.934632 307.584 
L 251.285511 243.88574 
L 251.63639 243.88574 
L 251.987269 307.584 
L 252.338148 243.88574 
L 253.741665 243.88574 
L 254.092544 180.187481 
L 254.794303 307.584 
L 255.145182 243.88574 
L 255.496061 307.584 
L 255.84694 307.584 
L 256.19782 243.88574 
L 256.548699 243.88574 
L 256.899578 180.187481 
L 257.250457 243.88574 
L 258.653974 243.88574 
L 259.004853 307.584 
L 259.706611 307.584 
L 260.057491 243.88574 
L 260.759249 243.88574 
L 261.110128 307.584 
L 261.461007 307.584 
L 261.811887 243.88574 
L 263.215403 243.88574 
L 263.566283 307.584 
L 263.917162 243.88574 
L 264.268041 307.584 
L 264.61892 307.584 
L 264.969799 243.88574 
L 265.320679 307.584 
L 265.671558 307.584 
L 266.022437 243.88574 
L 266.373316 307.584 
L 266.724195 307.584 
L 267.075074 243.88574 
L 267.425954 243.88574 
L 267.776833 307.584 
L 268.127712 307.584 
L 268.478591 243.88574 
L 268.82947 307.584 
L 269.18035 243.88574 
L 269.531229 243.88574 
L 269.882108 307.584 
L 270.232987 243.88574 
L 270.583866 243.88574 
L 270.934746 307.584 
L 271.285625 243.88574 
L 271.636504 116.489221 
L 271.987383 243.88574 
L 273.3909 243.88574 
L 273.741779 307.584 
L 274.092658 307.584 
L 274.794417 180.187481 
L 275.145296 243.88574 
L 275.496175 243.88574 
L 275.847054 307.584 
L 276.548813 307.584 
L 276.899692 243.88574 
L 278.303209 243.88574 
L 278.654088 307.584 
L 279.355846 307.584 
L 279.706725 243.88574 
L 280.057605 243.88574 
L 280.408484 307.584 
L 280.759363 243.88574 
L 281.110242 307.584 
L 281.461121 243.88574 
L 281.812 307.584 
L 282.16288 243.88574 
L 282.513759 307.584 
L 283.566396 307.584 
L 283.917276 243.88574 
L 284.268155 243.88574 
L 284.619034 307.584 
L 284.969913 243.88574 
L 285.320792 243.88574 
L 285.671672 307.584 
L 286.022551 243.88574 
L 286.37343 307.584 
L 286.724309 307.584 
L 287.075188 180.187481 
L 287.776947 307.584 
L 288.127826 243.88574 
L 288.829584 243.88574 
L 289.180464 307.584 
L 289.531343 243.88574 
L 289.882222 243.88574 
L 290.233101 180.187481 
L 290.58398 307.584 
L 290.934859 243.88574 
L 291.285739 307.584 
L 291.636618 243.88574 
L 291.987497 307.584 
L 292.338376 243.88574 
L 292.689255 307.584 
L 293.040135 243.88574 
L 293.391014 307.584 
L 293.741893 243.88574 
L 294.092772 243.88574 
L 294.443651 307.584 
L 294.794531 307.584 
L 295.14541 243.88574 
L 295.847168 243.88574 
L 296.198047 307.584 
L 296.548927 180.187481 
L 296.899806 307.584 
L 297.250685 180.187481 
L 297.601564 307.584 
L 297.952443 243.88574 
L 298.654202 243.88574 
L 299.005081 307.584 
L 299.706839 307.584 
L 300.057718 116.489221 
L 300.408598 307.584 
L 300.759477 243.88574 
L 301.461235 243.88574 
L 301.812114 116.489221 
L 302.162994 243.88574 
L 302.864752 243.88574 
L 303.215631 307.584 
L 303.56651 243.88574 
L 303.91739 243.88574 
L 304.268269 307.584 
L 304.619148 307.584 
L 304.970027 243.88574 
L 305.320906 243.88574 
L 305.671785 307.584 
L 306.022665 243.88574 
L 306.373544 307.584 
L 306.724423 243.88574 
L 307.075302 307.584 
L 307.426181 243.88574 
L 307.777061 307.584 
L 308.478819 307.584 
L 309.180577 180.187481 
L 309.882336 307.584 
L 310.934973 307.584 
L 311.285853 243.88574 
L 311.636732 243.88574 
L 311.987611 307.584 
L 312.33849 243.88574 
L 312.689369 243.88574 
L 313.040248 180.187481 
L 313.742007 307.584 
L 314.092886 307.584 
L 314.443765 243.88574 
L 315.847282 243.88574 
L 316.198161 307.584 
L 316.89992 307.584 
L 317.250799 243.88574 
L 317.601678 307.584 
L 317.952557 243.88574 
L 319.706953 243.88574 
L 320.057832 307.584 
L 320.408711 243.88574 
L 320.759591 243.88574 
L 321.11047 307.584 
L 321.461349 307.584 
L 321.812228 243.88574 
L 322.513987 243.88574 
L 322.864866 307.584 
L 323.215745 243.88574 
L 323.566624 243.88574 
L 323.917503 307.584 
L 324.268383 243.88574 
L 324.619262 243.88574 
L 324.970141 307.584 
L 325.32102 243.88574 
L 326.724537 243.88574 
L 327.075416 307.584 
L 327.426295 243.88574 
L 327.777174 243.88574 
L 328.128054 307.584 
L 328.478933 243.88574 
L 328.829812 307.584 
L 329.180691 243.88574 
L 329.88245 243.88574 
L 330.233329 307.584 
L 330.584208 243.88574 
L 330.935087 243.88574 
L 331.285966 307.584 
L 331.636846 243.88574 
L 331.987725 243.88574 
L 332.338604 116.489221 
L 332.689483 243.88574 
L 333.040362 307.584 
L 333.391242 243.88574 
L 333.742121 243.88574 
L 334.093 307.584 
L 334.443879 243.88574 
L 334.794758 307.584 
L 335.145638 243.88574 
L 336.549154 243.88574 
L 336.900033 307.584 
L 337.250913 243.88574 
L 337.601792 307.584 
L 337.952671 243.88574 
L 338.30355 307.584 
L 338.654429 180.187481 
L 339.005309 307.584 
L 339.356188 307.584 
L 339.707067 243.88574 
L 340.057946 307.584 
L 340.408825 307.584 
L 340.759705 243.88574 
L 342.514101 243.88574 
L 342.86498 307.584 
L 343.215859 307.584 
L 343.566738 243.88574 
L 343.917617 243.88574 
L 344.268496 307.584 
L 344.619376 307.584 
L 344.970255 243.88574 
L 345.321134 307.584 
L 345.672013 307.584 
L 346.022892 243.88574 
L 346.373772 243.88574 
L 346.724651 307.584 
L 347.07553 243.88574 
L 347.426409 307.584 
L 347.777288 307.584 
L 348.128168 243.88574 
L 349.882564 243.88574 
L 350.233443 307.584 
L 350.584322 243.88574 
L 352.689597 243.88574 
L 353.040476 307.584 
L 353.391355 180.187481 
L 353.742235 243.88574 
L 354.093114 243.88574 
L 354.443993 180.187481 
L 355.145751 307.584 
L 355.496631 243.88574 
L 356.198389 243.88574 
L 356.549268 307.584 
L 356.900147 243.88574 
L 357.251027 243.88574 
L 357.601906 307.584 
L 357.952785 243.88574 
L 358.303664 307.584 
L 359.005422 307.584 
L 359.356302 243.88574 
L 359.707181 307.584 
L 360.05806 307.584 
L 360.408939 243.88574 
L 360.759818 307.584 
L 361.110698 307.584 
L 361.461577 243.88574 
L 361.812456 243.88574 
L 362.163335 307.584 
L 362.514214 243.88574 
L 362.865094 243.88574 
L 363.215973 307.584 
L 363.566852 307.584 
L 363.917731 243.88574 
L 365.321248 243.88574 
L 365.672127 307.584 
L 366.023006 307.584 
L 366.373885 243.88574 
L 366.724765 243.88574 
L 367.075644 307.584 
L 367.426523 180.187481 
L 367.777402 307.584 
L 368.128281 243.88574 
L 368.479161 116.489221 
L 368.83004 307.584 
L 369.882677 307.584 
L 370.584436 180.187481 
L 370.935315 243.88574 
L 371.286194 243.88574 
L 371.637073 307.584 
L 371.987953 307.584 
L 372.338832 243.88574 
L 372.689711 307.584 
L 373.391469 307.584 
L 373.742348 243.88574 
L 374.794986 243.88574 
L 375.145865 307.584 
L 375.496744 243.88574 
L 375.847624 243.88574 
L 376.198503 307.584 
L 376.900261 307.584 
L 377.25114 243.88574 
L 377.60202 307.584 
L 378.303778 307.584 
L 378.654657 243.88574 
L 379.707295 243.88574 
L 380.058174 307.584 
L 380.409053 243.88574 
L 380.759932 307.584 
L 381.110811 307.584 
L 381.461691 243.88574 
L 382.163449 243.88574 
L 382.514328 307.584 
L 382.865207 243.88574 
L 383.566966 243.88574 
L 383.917845 307.584 
L 384.619603 307.584 
L 384.970483 243.88574 
L 385.321362 307.584 
L 385.672241 307.584 
L 386.02312 180.187481 
L 386.373999 307.584 
L 386.724879 243.88574 
L 387.075758 307.584 
L 387.426637 243.88574 
L 388.479275 243.88574 
L 388.830154 307.584 
L 389.181033 307.584 
L 389.531912 243.88574 
L 390.23367 243.88574 
L 390.58455 307.584 
L 390.935429 307.584 
L 391.286308 243.88574 
L 391.637187 243.88574 
L 391.988066 307.584 
L 392.338946 307.584 
L 392.689825 243.88574 
L 393.391583 243.88574 
L 393.742462 307.584 
L 394.444221 307.584 
L 394.7951 243.88574 
L 395.496858 243.88574 
L 395.847738 307.584 
L 396.198617 180.187481 
L 396.900375 307.584 
L 397.251254 243.88574 
L 397.602133 243.88574 
L 397.953013 307.584 
L 398.303892 243.88574 
L 398.654771 243.88574 
L 399.00565 307.584 
L 399.356529 243.88574 
L 400.058288 243.88574 
L 400.409167 307.584 
L 400.760046 243.88574 
L 401.461805 243.88574 
L 401.812684 307.584 
L 402.163563 243.88574 
L 402.514442 243.88574 
L 402.865321 307.584 
L 403.216201 243.88574 
L 403.56708 307.584 
L 403.917959 243.88574 
L 404.268838 307.584 
L 404.619717 243.88574 
L 405.321476 243.88574 
L 405.672355 307.584 
L 406.023234 243.88574 
L 406.374113 243.88574 
L 406.724992 307.584 
L 407.075872 243.88574 
L 408.830268 243.88574 
L 409.181147 180.187481 
L 409.882905 307.584 
L 410.233784 243.88574 
L 410.584664 307.584 
L 411.286422 307.584 
L 411.637301 243.88574 
L 411.98818 307.584 
L 412.339059 243.88574 
L 412.689939 307.584 
L 413.040818 307.584 
L 413.391697 243.88574 
L 413.742576 243.88574 
L 414.093455 307.584 
L 414.444335 243.88574 
L 414.795214 307.584 
L 414.795214 307.584 
" style="fill:none;stroke:#1f77b4;stroke-linecap:square;stroke-width:1.5;"/>
   </g>
   <g id="line2d_12">
    <path clip-path="url(#p28665c11ae)" d="M 0 0 
" style="fill:none;stroke:#ff7f0e;stroke-linecap:square;stroke-width:1.5;"/>
   </g>
   <g id="patch_3">
    <path d="M 69.12 307.584 
L 69.12 41.472 
" style="fill:none;stroke:#000000;stroke-linecap:square;stroke-linejoin:miter;stroke-width:0.8;"/>
   </g>
   <g id="patch_4">
    <path d="M 414.72 307.584 
L 414.72 41.472 
" style="fill:none;stroke:#000000;stroke-linecap:square;stroke-linejoin:miter;stroke-width:0.8;"/>
   </g>
   <g id="patch_5">
    <path d="M 69.12 307.584 
L 414.72 307.584 
" style="fill:none;stroke:#000000;stroke-linecap:square;stroke-linejoin:miter;stroke-width:0.8;"/>
   </g>
   <g id="patch_6">
    <path d="M 69.12 41.472 
L 414.72 41.472 
" style="fill:none;stroke:#000000;stroke-linecap:square;stroke-linejoin:miter;stroke-width:0.8;"/>
   </g>
   <g id="text_14">
    <!-- Messung_Ubuntu_1.csv -->
    <g transform="translate(171.725625 21.700875)scale(0.12 -0.12)">
     <defs>
      <path d="M 628 4666 
L 1569 4666 
L 2759 1491 
L 3956 4666 
L 4897 4666 
L 4897 0 
L 4281 0 
L 4281 4097 
L 3078 897 
L 2444 897 
L 1241 4097 
L 1241 0 
L 628 0 
L 628 4666 
z
" id="DejaVuSans-4d" transform="scale(0.015625)"/>
      <path d="M 3263 -1063 
L 3263 -1509 
L -63 -1509 
L -63 -1063 
L 3263 -1063 
z
" id="DejaVuSans-5f" transform="scale(0.015625)"/>
      <path d="M 556 4666 
L 1191 4666 
L 1191 1831 
Q 1191 1081 1462 751 
Q 1734 422 2344 422 
Q 2950 422 3222 751 
Q 3494 1081 3494 1831 
L 3494 4666 
L 4128 4666 
L 4128 1753 
Q 4128 841 3676 375 
Q 3225 -91 2344 -91 
Q 1459 -91 1007 375 
Q 556 841 556 1753 
L 556 4666 
z
" id="DejaVuSans-55" transform="scale(0.015625)"/>
      <path d="M 3116 1747 
Q 3116 2381 2855 2742 
Q 2594 3103 2138 3103 
Q 1681 3103 1420 2742 
Q 1159 2381 1159 1747 
Q 1159 1113 1420 752 
Q 1681 391 2138 391 
Q 2594 391 2855 752 
Q 3116 1113 3116 1747 
z
M 1159 2969 
Q 1341 3281 1617 3432 
Q 1894 3584 2278 3584 
Q 2916 3584 3314 3078 
Q 3713 2572 3713 1747 
Q 3713 922 3314 415 
Q 2916 -91 2278 -91 
Q 1894 -91 1617 61 
Q 1341 213 1159 525 
L 1159 0 
L 581 0 
L 581 4863 
L 1159 4863 
L 1159 2969 
z
" id="DejaVuSans-62" transform="scale(0.015625)"/>
      <path d="M 684 794 
L 1344 794 
L 1344 0 
L 684 0 
L 684 794 
z
" id="DejaVuSans-2e" transform="scale(0.015625)"/>
      <path d="M 3122 3366 
L 3122 2828 
Q 2878 2963 2633 3030 
Q 2388 3097 2138 3097 
Q 1578 3097 1268 2742 
Q 959 2388 959 1747 
Q 959 1106 1268 751 
Q 1578 397 2138 397 
Q 2388 397 2633 464 
Q 2878 531 3122 666 
L 3122 134 
Q 2881 22 2623 -34 
Q 2366 -91 2075 -91 
Q 1284 -91 818 406 
Q 353 903 353 1747 
Q 353 2603 823 3093 
Q 1294 3584 2113 3584 
Q 2378 3584 2631 3529 
Q 2884 3475 3122 3366 
z
" id="DejaVuSans-63" transform="scale(0.015625)"/>
     </defs>
     <use xlink:href="#DejaVuSans-4d"/>
     <use x="86.279297" xlink:href="#DejaVuSans-65"/>
     <use x="147.802734" xlink:href="#DejaVuSans-73"/>
     <use x="199.902344" xlink:href="#DejaVuSans-73"/>
     <use x="252.001953" xlink:href="#DejaVuSans-75"/>
     <use x="315.380859" xlink:href="#DejaVuSans-6e"/>
     <use x="378.759766" xlink:href="#DejaVuSans-67"/>
     <use x="442.236328" xlink:href="#DejaVuSans-5f"/>
     <use x="492.236328" xlink:href="#DejaVuSans-55"/>
     <use x="565.429688" xlink:href="#DejaVuSans-62"/>
     <use x="628.90625" xlink:href="#DejaVuSans-75"/>
     <use x="692.285156" xlink:href="#DejaVuSans-6e"/>
     <use x="755.664062" xlink:href="#DejaVuSans-74"/>
     <use x="794.873047" xlink:href="#DejaVuSans-75"/>
     <use x="858.251953" xlink:href="#DejaVuSans-5f"/>
     <use x="908.251953" xlink:href="#DejaVuSans-31"/>
     <use x="971.875" xlink:href="#DejaVuSans-2e"/>
     <use x="1003.662109" xlink:href="#DejaVuSans-63"/>
     <use x="1058.642578" xlink:href="#DejaVuSans-73"/>
     <use x="1110.742188" xlink:href="#DejaVuSans-76"/>
    </g>
    <!-- Laufzeitveränderung je hinzugefügtes Element -->
    <g transform="translate(101.016563 35.472)scale(0.12 -0.12)">
     <defs>
      <path d="M 603 3500 
L 1178 3500 
L 1178 -63 
Q 1178 -731 923 -1031 
Q 669 -1331 103 -1331 
L -116 -1331 
L -116 -844 
L 38 -844 
Q 366 -844 484 -692 
Q 603 -541 603 -63 
L 603 3500 
z
M 603 4863 
L 1178 4863 
L 1178 4134 
L 603 4134 
L 603 4863 
z
" id="DejaVuSans-6a" transform="scale(0.015625)"/>
      <path d="M 3513 2113 
L 3513 0 
L 2938 0 
L 2938 2094 
Q 2938 2591 2744 2837 
Q 2550 3084 2163 3084 
Q 1697 3084 1428 2787 
Q 1159 2491 1159 1978 
L 1159 0 
L 581 0 
L 581 4863 
L 1159 4863 
L 1159 2956 
Q 1366 3272 1645 3428 
Q 1925 3584 2291 3584 
Q 2894 3584 3203 3211 
Q 3513 2838 3513 2113 
z
" id="DejaVuSans-68" transform="scale(0.015625)"/>
     </defs>
     <use xlink:href="#DejaVuSans-4c"/>
     <use x="55.712891" xlink:href="#DejaVuSans-61"/>
     <use x="116.992188" xlink:href="#DejaVuSans-75"/>
     <use x="180.371094" xlink:href="#DejaVuSans-66"/>
     <use x="215.576172" xlink:href="#DejaVuSans-7a"/>
     <use x="268.066406" xlink:href="#DejaVuSans-65"/>
     <use x="329.589844" xlink:href="#DejaVuSans-69"/>
     <use x="357.373047" xlink:href="#DejaVuSans-74"/>
     <use x="396.582031" xlink:href="#DejaVuSans-76"/>
     <use x="455.761719" xlink:href="#DejaVuSans-65"/>
     <use x="517.285156" xlink:href="#DejaVuSans-72"/>
     <use x="558.398438" xlink:href="#DejaVuSans-e4"/>
     <use x="619.677734" xlink:href="#DejaVuSans-6e"/>
     <use x="683.056641" xlink:href="#DejaVuSans-64"/>
     <use x="746.533203" xlink:href="#DejaVuSans-65"/>
     <use x="808.056641" xlink:href="#DejaVuSans-72"/>
     <use x="849.169922" xlink:href="#DejaVuSans-75"/>
     <use x="912.548828" xlink:href="#DejaVuSans-6e"/>
     <use x="975.927734" xlink:href="#DejaVuSans-67"/>
     <use x="1039.404297" xlink:href="#DejaVuSans-20"/>
     <use x="1071.191406" xlink:href="#DejaVuSans-6a"/>
     <use x="1098.974609" xlink:href="#DejaVuSans-65"/>
     <use x="1160.498047" xlink:href="#DejaVuSans-20"/>
     <use x="1192.285156" xlink:href="#DejaVuSans-68"/>
     <use x="1255.664062" xlink:href="#DejaVuSans-69"/>
     <use x="1283.447266" xlink:href="#DejaVuSans-6e"/>
     <use x="1346.826172" xlink:href="#DejaVuSans-7a"/>
     <use x="1399.316406" xlink:href="#DejaVuSans-75"/>
     <use x="1462.695312" xlink:href="#DejaVuSans-67"/>
     <use x="1526.171875" xlink:href="#DejaVuSans-65"/>
     <use x="1587.695312" xlink:href="#DejaVuSans-66"/>
     <use x="1622.900391" xlink:href="#DejaVuSans-fc"/>
     <use x="1686.279297" xlink:href="#DejaVuSans-67"/>
     <use x="1749.755859" xlink:href="#DejaVuSans-74"/>
     <use x="1788.964844" xlink:href="#DejaVuSans-65"/>
     <use x="1850.488281" xlink:href="#DejaVuSans-73"/>
     <use x="1902.587891" xlink:href="#DejaVuSans-20"/>
     <use x="1934.375" xlink:href="#DejaVuSans-45"/>
     <use x="1997.558594" xlink:href="#DejaVuSans-6c"/>
     <use x="2025.341797" xlink:href="#DejaVuSans-65"/>
     <use x="2086.865234" xlink:href="#DejaVuSans-6d"/>
     <use x="2184.277344" xlink:href="#DejaVuSans-65"/>
     <use x="2245.800781" xlink:href="#DejaVuSans-6e"/>
     <use x="2309.179688" xlink:href="#DejaVuSans-74"/>
    </g>
   </g>
   <g id="legend_1">
    <g id="patch_7">
     <path d="M 348.785625 78.82825 
L 407.72 78.82825 
Q 409.72 78.82825 409.72 76.82825 
L 409.72 48.472 
Q 409.72 46.472 407.72 46.472 
L 348.785625 46.472 
Q 346.785625 46.472 346.785625 48.472 
L 346.785625 76.82825 
Q 346.785625 78.82825 348.785625 78.82825 
z
" style="fill:#ffffff;opacity:0.8;stroke:#cccccc;stroke-linejoin:miter;"/>
    </g>
    <g id="line2d_13">
     <path d="M 350.785625 54.570437 
L 370.785625 54.570437 
" style="fill:none;stroke:#1f77b4;stroke-linecap:square;stroke-width:1.5;"/>
    </g>
    <g id="line2d_14"/>
    <g id="text_15">
     <!-- Liste -->
     <g transform="translate(378.785625 58.070437)scale(0.1 -0.1)">
      <use xlink:href="#DejaVuSans-4c"/>
      <use x="55.712891" xlink:href="#DejaVuSans-69"/>
      <use x="83.496094" xlink:href="#DejaVuSans-73"/>
      <use x="135.595703" xlink:href="#DejaVuSans-74"/>
      <use x="174.804688" xlink:href="#DejaVuSans-65"/>
     </g>
    </g>
    <g id="line2d_15">
     <path d="M 350.785625 69.248562 
L 370.785625 69.248562 
" style="fill:none;stroke:#ff7f0e;stroke-linecap:square;stroke-width:1.5;"/>
    </g>
    <g id="line2d_16"/>
    <g id="text_16">
     <!-- Array -->
     <g transform="translate(378.785625 72.748562)scale(0.1 -0.1)">
      <defs>
       <path d="M 2188 4044 
L 1331 1722 
L 3047 1722 
L 2188 4044 
z
M 1831 4666 
L 2547 4666 
L 4325 0 
L 3669 0 
L 3244 1197 
L 1141 1197 
L 716 0 
L 50 0 
L 1831 4666 
z
" id="DejaVuSans-41" transform="scale(0.015625)"/>
       <path d="M 2059 -325 
Q 1816 -950 1584 -1140 
Q 1353 -1331 966 -1331 
L 506 -1331 
L 506 -850 
L 844 -850 
Q 1081 -850 1212 -737 
Q 1344 -625 1503 -206 
L 1606 56 
L 191 3500 
L 800 3500 
L 1894 763 
L 2988 3500 
L 3597 3500 
L 2059 -325 
z
" id="DejaVuSans-79" transform="scale(0.015625)"/>
      </defs>
      <use xlink:href="#DejaVuSans-41"/>
      <use x="68.408203" xlink:href="#DejaVuSans-72"/>
      <use x="107.771484" xlink:href="#DejaVuSans-72"/>
      <use x="148.884766" xlink:href="#DejaVuSans-61"/>
      <use x="210.164062" xlink:href="#DejaVuSans-79"/>
     </g>
    </g>
   </g>
  </g>
 </g>
 <defs>
  <clipPath id="p28665c11ae">
   <rect height="266.112" width="345.6" x="69.12" y="41.472"/>
  </clipPath>
 </defs>
</svg>
