<?xml version="1.0" encoding="utf-8" standalone="no"?>
<!DOCTYPE svg PUBLIC "-//W3C//DTD SVG 1.1//EN"
  "http://www.w3.org/Graphics/SVG/1.1/DTD/svg11.dtd">
<svg height="345.6pt" version="1.1" viewBox="0 0 460.8 345.6" width="460.8pt" xmlns="http://www.w3.org/2000/svg" xmlns:xlink="http://www.w3.org/1999/xlink">
 <metadata>
  <rdf:RDF xmlns:cc="http://creativecommons.org/ns#" xmlns:dc="http://purl.org/dc/elements/1.1/" xmlns:rdf="http://www.w3.org/1999/02/22-rdf-syntax-ns#">
   <cc:Work>
    <dc:type rdf:resource="http://purl.org/dc/dcmitype/StillImage"/>
    <dc:date>2021-04-24T08:39:57.521431</dc:date>
    <dc:format>image/svg+xml</dc:format>
    <dc:creator>
     <cc:Agent>
      <dc:title>Matplotlib v3.4.1, https://matplotlib.org/</dc:title>
     </cc:Agent>
    </dc:creator>
   </cc:Work>
  </rdf:RDF>
 </metadata>
 <defs>
  <style type="text/css">*{stroke-linecap:butt;stroke-linejoin:round;}</style>
 </defs>
 <g id="figure_1">
  <g id="patch_1">
   <path d="M 0 345.6 
L 460.8 345.6 
L 460.8 0 
L 0 0 
z
" style="fill:#ffffff;"/>
  </g>
  <g id="axes_1">
   <g id="patch_2">
    <path d="M 69.12 307.584 
L 414.72 307.584 
L 414.72 41.472 
L 69.12 41.472 
z
" style="fill:#ffffff;"/>
   </g>
   <g id="matplotlib.axis_1">
    <g id="xtick_1">
     <g id="line2d_1">
      <defs>
       <path d="M 0 0 
L 0 3.5 
" id="m0de014d6d4" style="stroke:#000000;stroke-width:0.8;"/>
      </defs>
      <g>
       <use style="stroke:#000000;stroke-width:0.8;" x="78.377117" xlink:href="#m0de014d6d4" y="307.584"/>
      </g>
     </g>
     <g id="text_1">
      <!-- 800 -->
      <g transform="translate(68.833367 322.182437)scale(0.1 -0.1)">
       <defs>
        <path d="M 2034 2216 
Q 1584 2216 1326 1975 
Q 1069 1734 1069 1313 
Q 1069 891 1326 650 
Q 1584 409 2034 409 
Q 2484 409 2743 651 
Q 3003 894 3003 1313 
Q 3003 1734 2745 1975 
Q 2488 2216 2034 2216 
z
M 1403 2484 
Q 997 2584 770 2862 
Q 544 3141 544 3541 
Q 544 4100 942 4425 
Q 1341 4750 2034 4750 
Q 2731 4750 3128 4425 
Q 3525 4100 3525 3541 
Q 3525 3141 3298 2862 
Q 3072 2584 2669 2484 
Q 3125 2378 3379 2068 
Q 3634 1759 3634 1313 
Q 3634 634 3220 271 
Q 2806 -91 2034 -91 
Q 1263 -91 848 271 
Q 434 634 434 1313 
Q 434 1759 690 2068 
Q 947 2378 1403 2484 
z
M 1172 3481 
Q 1172 3119 1398 2916 
Q 1625 2713 2034 2713 
Q 2441 2713 2670 2916 
Q 2900 3119 2900 3481 
Q 2900 3844 2670 4047 
Q 2441 4250 2034 4250 
Q 1625 4250 1398 4047 
Q 1172 3844 1172 3481 
z
" id="DejaVuSans-38" transform="scale(0.015625)"/>
        <path d="M 2034 4250 
Q 1547 4250 1301 3770 
Q 1056 3291 1056 2328 
Q 1056 1369 1301 889 
Q 1547 409 2034 409 
Q 2525 409 2770 889 
Q 3016 1369 3016 2328 
Q 3016 3291 2770 3770 
Q 2525 4250 2034 4250 
z
M 2034 4750 
Q 2819 4750 3233 4129 
Q 3647 3509 3647 2328 
Q 3647 1150 3233 529 
Q 2819 -91 2034 -91 
Q 1250 -91 836 529 
Q 422 1150 422 2328 
Q 422 3509 836 4129 
Q 1250 4750 2034 4750 
z
" id="DejaVuSans-30" transform="scale(0.015625)"/>
       </defs>
       <use xlink:href="#DejaVuSans-38"/>
       <use x="63.623047" xlink:href="#DejaVuSans-30"/>
       <use x="127.246094" xlink:href="#DejaVuSans-30"/>
      </g>
     </g>
    </g>
    <g id="xtick_2">
     <g id="line2d_2">
      <g>
       <use style="stroke:#000000;stroke-width:0.8;" x="144.25474" xlink:href="#m0de014d6d4" y="307.584"/>
      </g>
     </g>
     <g id="text_2">
      <!-- 1000 -->
      <g transform="translate(131.52974 322.182437)scale(0.1 -0.1)">
       <defs>
        <path d="M 794 531 
L 1825 531 
L 1825 4091 
L 703 3866 
L 703 4441 
L 1819 4666 
L 2450 4666 
L 2450 531 
L 3481 531 
L 3481 0 
L 794 0 
L 794 531 
z
" id="DejaVuSans-31" transform="scale(0.015625)"/>
       </defs>
       <use xlink:href="#DejaVuSans-31"/>
       <use x="63.623047" xlink:href="#DejaVuSans-30"/>
       <use x="127.246094" xlink:href="#DejaVuSans-30"/>
       <use x="190.869141" xlink:href="#DejaVuSans-30"/>
      </g>
     </g>
    </g>
    <g id="xtick_3">
     <g id="line2d_3">
      <g>
       <use style="stroke:#000000;stroke-width:0.8;" x="210.132364" xlink:href="#m0de014d6d4" y="307.584"/>
      </g>
     </g>
     <g id="text_3">
      <!-- 1200 -->
      <g transform="translate(197.407364 322.182437)scale(0.1 -0.1)">
       <defs>
        <path d="M 1228 531 
L 3431 531 
L 3431 0 
L 469 0 
L 469 531 
Q 828 903 1448 1529 
Q 2069 2156 2228 2338 
Q 2531 2678 2651 2914 
Q 2772 3150 2772 3378 
Q 2772 3750 2511 3984 
Q 2250 4219 1831 4219 
Q 1534 4219 1204 4116 
Q 875 4013 500 3803 
L 500 4441 
Q 881 4594 1212 4672 
Q 1544 4750 1819 4750 
Q 2544 4750 2975 4387 
Q 3406 4025 3406 3419 
Q 3406 3131 3298 2873 
Q 3191 2616 2906 2266 
Q 2828 2175 2409 1742 
Q 1991 1309 1228 531 
z
" id="DejaVuSans-32" transform="scale(0.015625)"/>
       </defs>
       <use xlink:href="#DejaVuSans-31"/>
       <use x="63.623047" xlink:href="#DejaVuSans-32"/>
       <use x="127.246094" xlink:href="#DejaVuSans-30"/>
       <use x="190.869141" xlink:href="#DejaVuSans-30"/>
      </g>
     </g>
    </g>
    <g id="xtick_4">
     <g id="line2d_4">
      <g>
       <use style="stroke:#000000;stroke-width:0.8;" x="276.009987" xlink:href="#m0de014d6d4" y="307.584"/>
      </g>
     </g>
     <g id="text_4">
      <!-- 1400 -->
      <g transform="translate(263.284987 322.182437)scale(0.1 -0.1)">
       <defs>
        <path d="M 2419 4116 
L 825 1625 
L 2419 1625 
L 2419 4116 
z
M 2253 4666 
L 3047 4666 
L 3047 1625 
L 3713 1625 
L 3713 1100 
L 3047 1100 
L 3047 0 
L 2419 0 
L 2419 1100 
L 313 1100 
L 313 1709 
L 2253 4666 
z
" id="DejaVuSans-34" transform="scale(0.015625)"/>
       </defs>
       <use xlink:href="#DejaVuSans-31"/>
       <use x="63.623047" xlink:href="#DejaVuSans-34"/>
       <use x="127.246094" xlink:href="#DejaVuSans-30"/>
       <use x="190.869141" xlink:href="#DejaVuSans-30"/>
      </g>
     </g>
    </g>
    <g id="xtick_5">
     <g id="line2d_5">
      <g>
       <use style="stroke:#000000;stroke-width:0.8;" x="341.88761" xlink:href="#m0de014d6d4" y="307.584"/>
      </g>
     </g>
     <g id="text_5">
      <!-- 1600 -->
      <g transform="translate(329.16261 322.182437)scale(0.1 -0.1)">
       <defs>
        <path d="M 2113 2584 
Q 1688 2584 1439 2293 
Q 1191 2003 1191 1497 
Q 1191 994 1439 701 
Q 1688 409 2113 409 
Q 2538 409 2786 701 
Q 3034 994 3034 1497 
Q 3034 2003 2786 2293 
Q 2538 2584 2113 2584 
z
M 3366 4563 
L 3366 3988 
Q 3128 4100 2886 4159 
Q 2644 4219 2406 4219 
Q 1781 4219 1451 3797 
Q 1122 3375 1075 2522 
Q 1259 2794 1537 2939 
Q 1816 3084 2150 3084 
Q 2853 3084 3261 2657 
Q 3669 2231 3669 1497 
Q 3669 778 3244 343 
Q 2819 -91 2113 -91 
Q 1303 -91 875 529 
Q 447 1150 447 2328 
Q 447 3434 972 4092 
Q 1497 4750 2381 4750 
Q 2619 4750 2861 4703 
Q 3103 4656 3366 4563 
z
" id="DejaVuSans-36" transform="scale(0.015625)"/>
       </defs>
       <use xlink:href="#DejaVuSans-31"/>
       <use x="63.623047" xlink:href="#DejaVuSans-36"/>
       <use x="127.246094" xlink:href="#DejaVuSans-30"/>
       <use x="190.869141" xlink:href="#DejaVuSans-30"/>
      </g>
     </g>
    </g>
    <g id="xtick_6">
     <g id="line2d_6">
      <g>
       <use style="stroke:#000000;stroke-width:0.8;" x="407.765233" xlink:href="#m0de014d6d4" y="307.584"/>
      </g>
     </g>
     <g id="text_6">
      <!-- 1800 -->
      <g transform="translate(395.040233 322.182437)scale(0.1 -0.1)">
       <use xlink:href="#DejaVuSans-31"/>
       <use x="63.623047" xlink:href="#DejaVuSans-38"/>
       <use x="127.246094" xlink:href="#DejaVuSans-30"/>
       <use x="190.869141" xlink:href="#DejaVuSans-30"/>
      </g>
     </g>
    </g>
    <g id="text_7">
     <!-- Hinzugefügtes Element -->
     <g transform="translate(183.523906 335.860562)scale(0.1 -0.1)">
      <defs>
       <path d="M 628 4666 
L 1259 4666 
L 1259 2753 
L 3553 2753 
L 3553 4666 
L 4184 4666 
L 4184 0 
L 3553 0 
L 3553 2222 
L 1259 2222 
L 1259 0 
L 628 0 
L 628 4666 
z
" id="DejaVuSans-48" transform="scale(0.015625)"/>
       <path d="M 603 3500 
L 1178 3500 
L 1178 0 
L 603 0 
L 603 3500 
z
M 603 4863 
L 1178 4863 
L 1178 4134 
L 603 4134 
L 603 4863 
z
" id="DejaVuSans-69" transform="scale(0.015625)"/>
       <path d="M 3513 2113 
L 3513 0 
L 2938 0 
L 2938 2094 
Q 2938 2591 2744 2837 
Q 2550 3084 2163 3084 
Q 1697 3084 1428 2787 
Q 1159 2491 1159 1978 
L 1159 0 
L 581 0 
L 581 3500 
L 1159 3500 
L 1159 2956 
Q 1366 3272 1645 3428 
Q 1925 3584 2291 3584 
Q 2894 3584 3203 3211 
Q 3513 2838 3513 2113 
z
" id="DejaVuSans-6e" transform="scale(0.015625)"/>
       <path d="M 353 3500 
L 3084 3500 
L 3084 2975 
L 922 459 
L 3084 459 
L 3084 0 
L 275 0 
L 275 525 
L 2438 3041 
L 353 3041 
L 353 3500 
z
" id="DejaVuSans-7a" transform="scale(0.015625)"/>
       <path d="M 544 1381 
L 544 3500 
L 1119 3500 
L 1119 1403 
Q 1119 906 1312 657 
Q 1506 409 1894 409 
Q 2359 409 2629 706 
Q 2900 1003 2900 1516 
L 2900 3500 
L 3475 3500 
L 3475 0 
L 2900 0 
L 2900 538 
Q 2691 219 2414 64 
Q 2138 -91 1772 -91 
Q 1169 -91 856 284 
Q 544 659 544 1381 
z
M 1991 3584 
L 1991 3584 
z
" id="DejaVuSans-75" transform="scale(0.015625)"/>
       <path d="M 2906 1791 
Q 2906 2416 2648 2759 
Q 2391 3103 1925 3103 
Q 1463 3103 1205 2759 
Q 947 2416 947 1791 
Q 947 1169 1205 825 
Q 1463 481 1925 481 
Q 2391 481 2648 825 
Q 2906 1169 2906 1791 
z
M 3481 434 
Q 3481 -459 3084 -895 
Q 2688 -1331 1869 -1331 
Q 1566 -1331 1297 -1286 
Q 1028 -1241 775 -1147 
L 775 -588 
Q 1028 -725 1275 -790 
Q 1522 -856 1778 -856 
Q 2344 -856 2625 -561 
Q 2906 -266 2906 331 
L 2906 616 
Q 2728 306 2450 153 
Q 2172 0 1784 0 
Q 1141 0 747 490 
Q 353 981 353 1791 
Q 353 2603 747 3093 
Q 1141 3584 1784 3584 
Q 2172 3584 2450 3431 
Q 2728 3278 2906 2969 
L 2906 3500 
L 3481 3500 
L 3481 434 
z
" id="DejaVuSans-67" transform="scale(0.015625)"/>
       <path d="M 3597 1894 
L 3597 1613 
L 953 1613 
Q 991 1019 1311 708 
Q 1631 397 2203 397 
Q 2534 397 2845 478 
Q 3156 559 3463 722 
L 3463 178 
Q 3153 47 2828 -22 
Q 2503 -91 2169 -91 
Q 1331 -91 842 396 
Q 353 884 353 1716 
Q 353 2575 817 3079 
Q 1281 3584 2069 3584 
Q 2775 3584 3186 3129 
Q 3597 2675 3597 1894 
z
M 3022 2063 
Q 3016 2534 2758 2815 
Q 2500 3097 2075 3097 
Q 1594 3097 1305 2825 
Q 1016 2553 972 2059 
L 3022 2063 
z
" id="DejaVuSans-65" transform="scale(0.015625)"/>
       <path d="M 2375 4863 
L 2375 4384 
L 1825 4384 
Q 1516 4384 1395 4259 
Q 1275 4134 1275 3809 
L 1275 3500 
L 2222 3500 
L 2222 3053 
L 1275 3053 
L 1275 0 
L 697 0 
L 697 3053 
L 147 3053 
L 147 3500 
L 697 3500 
L 697 3744 
Q 697 4328 969 4595 
Q 1241 4863 1831 4863 
L 2375 4863 
z
" id="DejaVuSans-66" transform="scale(0.015625)"/>
       <path d="M 544 1381 
L 544 3500 
L 1119 3500 
L 1119 1403 
Q 1119 906 1312 657 
Q 1506 409 1894 409 
Q 2359 409 2629 706 
Q 2900 1003 2900 1516 
L 2900 3500 
L 3475 3500 
L 3475 0 
L 2900 0 
L 2900 538 
Q 2691 219 2414 64 
Q 2138 -91 1772 -91 
Q 1169 -91 856 284 
Q 544 659 544 1381 
z
M 1991 3584 
L 1991 3584 
z
M 2278 4850 
L 2912 4850 
L 2912 4219 
L 2278 4219 
L 2278 4850 
z
M 1056 4850 
L 1690 4850 
L 1690 4219 
L 1056 4219 
L 1056 4850 
z
" id="DejaVuSans-fc" transform="scale(0.015625)"/>
       <path d="M 1172 4494 
L 1172 3500 
L 2356 3500 
L 2356 3053 
L 1172 3053 
L 1172 1153 
Q 1172 725 1289 603 
Q 1406 481 1766 481 
L 2356 481 
L 2356 0 
L 1766 0 
Q 1100 0 847 248 
Q 594 497 594 1153 
L 594 3053 
L 172 3053 
L 172 3500 
L 594 3500 
L 594 4494 
L 1172 4494 
z
" id="DejaVuSans-74" transform="scale(0.015625)"/>
       <path d="M 2834 3397 
L 2834 2853 
Q 2591 2978 2328 3040 
Q 2066 3103 1784 3103 
Q 1356 3103 1142 2972 
Q 928 2841 928 2578 
Q 928 2378 1081 2264 
Q 1234 2150 1697 2047 
L 1894 2003 
Q 2506 1872 2764 1633 
Q 3022 1394 3022 966 
Q 3022 478 2636 193 
Q 2250 -91 1575 -91 
Q 1294 -91 989 -36 
Q 684 19 347 128 
L 347 722 
Q 666 556 975 473 
Q 1284 391 1588 391 
Q 1994 391 2212 530 
Q 2431 669 2431 922 
Q 2431 1156 2273 1281 
Q 2116 1406 1581 1522 
L 1381 1569 
Q 847 1681 609 1914 
Q 372 2147 372 2553 
Q 372 3047 722 3315 
Q 1072 3584 1716 3584 
Q 2034 3584 2315 3537 
Q 2597 3491 2834 3397 
z
" id="DejaVuSans-73" transform="scale(0.015625)"/>
       <path id="DejaVuSans-20" transform="scale(0.015625)"/>
       <path d="M 628 4666 
L 3578 4666 
L 3578 4134 
L 1259 4134 
L 1259 2753 
L 3481 2753 
L 3481 2222 
L 1259 2222 
L 1259 531 
L 3634 531 
L 3634 0 
L 628 0 
L 628 4666 
z
" id="DejaVuSans-45" transform="scale(0.015625)"/>
       <path d="M 603 4863 
L 1178 4863 
L 1178 0 
L 603 0 
L 603 4863 
z
" id="DejaVuSans-6c" transform="scale(0.015625)"/>
       <path d="M 3328 2828 
Q 3544 3216 3844 3400 
Q 4144 3584 4550 3584 
Q 5097 3584 5394 3201 
Q 5691 2819 5691 2113 
L 5691 0 
L 5113 0 
L 5113 2094 
Q 5113 2597 4934 2840 
Q 4756 3084 4391 3084 
Q 3944 3084 3684 2787 
Q 3425 2491 3425 1978 
L 3425 0 
L 2847 0 
L 2847 2094 
Q 2847 2600 2669 2842 
Q 2491 3084 2119 3084 
Q 1678 3084 1418 2786 
Q 1159 2488 1159 1978 
L 1159 0 
L 581 0 
L 581 3500 
L 1159 3500 
L 1159 2956 
Q 1356 3278 1631 3431 
Q 1906 3584 2284 3584 
Q 2666 3584 2933 3390 
Q 3200 3197 3328 2828 
z
" id="DejaVuSans-6d" transform="scale(0.015625)"/>
      </defs>
      <use xlink:href="#DejaVuSans-48"/>
      <use x="75.195312" xlink:href="#DejaVuSans-69"/>
      <use x="102.978516" xlink:href="#DejaVuSans-6e"/>
      <use x="166.357422" xlink:href="#DejaVuSans-7a"/>
      <use x="218.847656" xlink:href="#DejaVuSans-75"/>
      <use x="282.226562" xlink:href="#DejaVuSans-67"/>
      <use x="345.703125" xlink:href="#DejaVuSans-65"/>
      <use x="407.226562" xlink:href="#DejaVuSans-66"/>
      <use x="442.431641" xlink:href="#DejaVuSans-fc"/>
      <use x="505.810547" xlink:href="#DejaVuSans-67"/>
      <use x="569.287109" xlink:href="#DejaVuSans-74"/>
      <use x="608.496094" xlink:href="#DejaVuSans-65"/>
      <use x="670.019531" xlink:href="#DejaVuSans-73"/>
      <use x="722.119141" xlink:href="#DejaVuSans-20"/>
      <use x="753.90625" xlink:href="#DejaVuSans-45"/>
      <use x="817.089844" xlink:href="#DejaVuSans-6c"/>
      <use x="844.873047" xlink:href="#DejaVuSans-65"/>
      <use x="906.396484" xlink:href="#DejaVuSans-6d"/>
      <use x="1003.808594" xlink:href="#DejaVuSans-65"/>
      <use x="1065.332031" xlink:href="#DejaVuSans-6e"/>
      <use x="1128.710938" xlink:href="#DejaVuSans-74"/>
     </g>
    </g>
   </g>
   <g id="matplotlib.axis_2">
    <g id="ytick_1">
     <g id="line2d_7">
      <defs>
       <path d="M 0 0 
L -3.5 0 
" id="m659fa5e94c" style="stroke:#000000;stroke-width:0.8;"/>
      </defs>
      <g>
       <use style="stroke:#000000;stroke-width:0.8;" x="69.12" xlink:href="#m659fa5e94c" y="291.411503"/>
      </g>
     </g>
     <g id="text_8">
      <!-- 4.50 -->
      <g transform="translate(39.854375 295.210722)scale(0.1 -0.1)">
       <defs>
        <path d="M 684 794 
L 1344 794 
L 1344 0 
L 684 0 
L 684 794 
z
" id="DejaVuSans-2e" transform="scale(0.015625)"/>
        <path d="M 691 4666 
L 3169 4666 
L 3169 4134 
L 1269 4134 
L 1269 2991 
Q 1406 3038 1543 3061 
Q 1681 3084 1819 3084 
Q 2600 3084 3056 2656 
Q 3513 2228 3513 1497 
Q 3513 744 3044 326 
Q 2575 -91 1722 -91 
Q 1428 -91 1123 -41 
Q 819 9 494 109 
L 494 744 
Q 775 591 1075 516 
Q 1375 441 1709 441 
Q 2250 441 2565 725 
Q 2881 1009 2881 1497 
Q 2881 1984 2565 2268 
Q 2250 2553 1709 2553 
Q 1456 2553 1204 2497 
Q 953 2441 691 2322 
L 691 4666 
z
" id="DejaVuSans-35" transform="scale(0.015625)"/>
       </defs>
       <use xlink:href="#DejaVuSans-34"/>
       <use x="63.623047" xlink:href="#DejaVuSans-2e"/>
       <use x="95.410156" xlink:href="#DejaVuSans-35"/>
       <use x="159.033203" xlink:href="#DejaVuSans-30"/>
      </g>
     </g>
    </g>
    <g id="ytick_2">
     <g id="line2d_8">
      <g>
       <use style="stroke:#000000;stroke-width:0.8;" x="69.12" xlink:href="#m659fa5e94c" y="255.430778"/>
      </g>
     </g>
     <g id="text_9">
      <!-- 4.75 -->
      <g transform="translate(39.854375 259.229997)scale(0.1 -0.1)">
       <defs>
        <path d="M 525 4666 
L 3525 4666 
L 3525 4397 
L 1831 0 
L 1172 0 
L 2766 4134 
L 525 4134 
L 525 4666 
z
" id="DejaVuSans-37" transform="scale(0.015625)"/>
       </defs>
       <use xlink:href="#DejaVuSans-34"/>
       <use x="63.623047" xlink:href="#DejaVuSans-2e"/>
       <use x="95.410156" xlink:href="#DejaVuSans-37"/>
       <use x="159.033203" xlink:href="#DejaVuSans-35"/>
      </g>
     </g>
    </g>
    <g id="ytick_3">
     <g id="line2d_9">
      <g>
       <use style="stroke:#000000;stroke-width:0.8;" x="69.12" xlink:href="#m659fa5e94c" y="219.450054"/>
      </g>
     </g>
     <g id="text_10">
      <!-- 5.00 -->
      <g transform="translate(39.854375 223.249273)scale(0.1 -0.1)">
       <use xlink:href="#DejaVuSans-35"/>
       <use x="63.623047" xlink:href="#DejaVuSans-2e"/>
       <use x="95.410156" xlink:href="#DejaVuSans-30"/>
       <use x="159.033203" xlink:href="#DejaVuSans-30"/>
      </g>
     </g>
    </g>
    <g id="ytick_4">
     <g id="line2d_10">
      <g>
       <use style="stroke:#000000;stroke-width:0.8;" x="69.12" xlink:href="#m659fa5e94c" y="183.469329"/>
      </g>
     </g>
     <g id="text_11">
      <!-- 5.25 -->
      <g transform="translate(39.854375 187.268548)scale(0.1 -0.1)">
       <use xlink:href="#DejaVuSans-35"/>
       <use x="63.623047" xlink:href="#DejaVuSans-2e"/>
       <use x="95.410156" xlink:href="#DejaVuSans-32"/>
       <use x="159.033203" xlink:href="#DejaVuSans-35"/>
      </g>
     </g>
    </g>
    <g id="ytick_5">
     <g id="line2d_11">
      <g>
       <use style="stroke:#000000;stroke-width:0.8;" x="69.12" xlink:href="#m659fa5e94c" y="147.488605"/>
      </g>
     </g>
     <g id="text_12">
      <!-- 5.50 -->
      <g transform="translate(39.854375 151.287824)scale(0.1 -0.1)">
       <use xlink:href="#DejaVuSans-35"/>
       <use x="63.623047" xlink:href="#DejaVuSans-2e"/>
       <use x="95.410156" xlink:href="#DejaVuSans-35"/>
       <use x="159.033203" xlink:href="#DejaVuSans-30"/>
      </g>
     </g>
    </g>
    <g id="ytick_6">
     <g id="line2d_12">
      <g>
       <use style="stroke:#000000;stroke-width:0.8;" x="69.12" xlink:href="#m659fa5e94c" y="111.50788"/>
      </g>
     </g>
     <g id="text_13">
      <!-- 5.75 -->
      <g transform="translate(39.854375 115.307099)scale(0.1 -0.1)">
       <use xlink:href="#DejaVuSans-35"/>
       <use x="63.623047" xlink:href="#DejaVuSans-2e"/>
       <use x="95.410156" xlink:href="#DejaVuSans-37"/>
       <use x="159.033203" xlink:href="#DejaVuSans-35"/>
      </g>
     </g>
    </g>
    <g id="ytick_7">
     <g id="line2d_13">
      <g>
       <use style="stroke:#000000;stroke-width:0.8;" x="69.12" xlink:href="#m659fa5e94c" y="75.527156"/>
      </g>
     </g>
     <g id="text_14">
      <!-- 6.00 -->
      <g transform="translate(39.854375 79.326375)scale(0.1 -0.1)">
       <use xlink:href="#DejaVuSans-36"/>
       <use x="63.623047" xlink:href="#DejaVuSans-2e"/>
       <use x="95.410156" xlink:href="#DejaVuSans-30"/>
       <use x="159.033203" xlink:href="#DejaVuSans-30"/>
      </g>
     </g>
    </g>
    <g id="text_15">
     <!-- Laufzeitveränderung in Sekunden -->
     <g transform="translate(33.774687 258.981906)rotate(-90)scale(0.1 -0.1)">
      <defs>
       <path d="M 628 4666 
L 1259 4666 
L 1259 531 
L 3531 531 
L 3531 0 
L 628 0 
L 628 4666 
z
" id="DejaVuSans-4c" transform="scale(0.015625)"/>
       <path d="M 2194 1759 
Q 1497 1759 1228 1600 
Q 959 1441 959 1056 
Q 959 750 1161 570 
Q 1363 391 1709 391 
Q 2188 391 2477 730 
Q 2766 1069 2766 1631 
L 2766 1759 
L 2194 1759 
z
M 3341 1997 
L 3341 0 
L 2766 0 
L 2766 531 
Q 2569 213 2275 61 
Q 1981 -91 1556 -91 
Q 1019 -91 701 211 
Q 384 513 384 1019 
Q 384 1609 779 1909 
Q 1175 2209 1959 2209 
L 2766 2209 
L 2766 2266 
Q 2766 2663 2505 2880 
Q 2244 3097 1772 3097 
Q 1472 3097 1187 3025 
Q 903 2953 641 2809 
L 641 3341 
Q 956 3463 1253 3523 
Q 1550 3584 1831 3584 
Q 2591 3584 2966 3190 
Q 3341 2797 3341 1997 
z
" id="DejaVuSans-61" transform="scale(0.015625)"/>
       <path d="M 191 3500 
L 800 3500 
L 1894 563 
L 2988 3500 
L 3597 3500 
L 2284 0 
L 1503 0 
L 191 3500 
z
" id="DejaVuSans-76" transform="scale(0.015625)"/>
       <path d="M 2631 2963 
Q 2534 3019 2420 3045 
Q 2306 3072 2169 3072 
Q 1681 3072 1420 2755 
Q 1159 2438 1159 1844 
L 1159 0 
L 581 0 
L 581 3500 
L 1159 3500 
L 1159 2956 
Q 1341 3275 1631 3429 
Q 1922 3584 2338 3584 
Q 2397 3584 2469 3576 
Q 2541 3569 2628 3553 
L 2631 2963 
z
" id="DejaVuSans-72" transform="scale(0.015625)"/>
       <path d="M 2194 1759 
Q 1497 1759 1228 1600 
Q 959 1441 959 1056 
Q 959 750 1161 570 
Q 1363 391 1709 391 
Q 2188 391 2477 730 
Q 2766 1069 2766 1631 
L 2766 1759 
L 2194 1759 
z
M 3341 1997 
L 3341 0 
L 2766 0 
L 2766 531 
Q 2569 213 2275 61 
Q 1981 -91 1556 -91 
Q 1019 -91 701 211 
Q 384 513 384 1019 
Q 384 1609 779 1909 
Q 1175 2209 1959 2209 
L 2766 2209 
L 2766 2266 
Q 2766 2663 2505 2880 
Q 2244 3097 1772 3097 
Q 1472 3097 1187 3025 
Q 903 2953 641 2809 
L 641 3341 
Q 956 3463 1253 3523 
Q 1550 3584 1831 3584 
Q 2591 3584 2966 3190 
Q 3341 2797 3341 1997 
z
M 2150 4850 
L 2784 4850 
L 2784 4219 
L 2150 4219 
L 2150 4850 
z
M 928 4850 
L 1562 4850 
L 1562 4219 
L 928 4219 
L 928 4850 
z
" id="DejaVuSans-e4" transform="scale(0.015625)"/>
       <path d="M 2906 2969 
L 2906 4863 
L 3481 4863 
L 3481 0 
L 2906 0 
L 2906 525 
Q 2725 213 2448 61 
Q 2172 -91 1784 -91 
Q 1150 -91 751 415 
Q 353 922 353 1747 
Q 353 2572 751 3078 
Q 1150 3584 1784 3584 
Q 2172 3584 2448 3432 
Q 2725 3281 2906 2969 
z
M 947 1747 
Q 947 1113 1208 752 
Q 1469 391 1925 391 
Q 2381 391 2643 752 
Q 2906 1113 2906 1747 
Q 2906 2381 2643 2742 
Q 2381 3103 1925 3103 
Q 1469 3103 1208 2742 
Q 947 2381 947 1747 
z
" id="DejaVuSans-64" transform="scale(0.015625)"/>
       <path d="M 3425 4513 
L 3425 3897 
Q 3066 4069 2747 4153 
Q 2428 4238 2131 4238 
Q 1616 4238 1336 4038 
Q 1056 3838 1056 3469 
Q 1056 3159 1242 3001 
Q 1428 2844 1947 2747 
L 2328 2669 
Q 3034 2534 3370 2195 
Q 3706 1856 3706 1288 
Q 3706 609 3251 259 
Q 2797 -91 1919 -91 
Q 1588 -91 1214 -16 
Q 841 59 441 206 
L 441 856 
Q 825 641 1194 531 
Q 1563 422 1919 422 
Q 2459 422 2753 634 
Q 3047 847 3047 1241 
Q 3047 1584 2836 1778 
Q 2625 1972 2144 2069 
L 1759 2144 
Q 1053 2284 737 2584 
Q 422 2884 422 3419 
Q 422 4038 858 4394 
Q 1294 4750 2059 4750 
Q 2388 4750 2728 4690 
Q 3069 4631 3425 4513 
z
" id="DejaVuSans-53" transform="scale(0.015625)"/>
       <path d="M 581 4863 
L 1159 4863 
L 1159 1991 
L 2875 3500 
L 3609 3500 
L 1753 1863 
L 3688 0 
L 2938 0 
L 1159 1709 
L 1159 0 
L 581 0 
L 581 4863 
z
" id="DejaVuSans-6b" transform="scale(0.015625)"/>
      </defs>
      <use xlink:href="#DejaVuSans-4c"/>
      <use x="55.712891" xlink:href="#DejaVuSans-61"/>
      <use x="116.992188" xlink:href="#DejaVuSans-75"/>
      <use x="180.371094" xlink:href="#DejaVuSans-66"/>
      <use x="215.576172" xlink:href="#DejaVuSans-7a"/>
      <use x="268.066406" xlink:href="#DejaVuSans-65"/>
      <use x="329.589844" xlink:href="#DejaVuSans-69"/>
      <use x="357.373047" xlink:href="#DejaVuSans-74"/>
      <use x="396.582031" xlink:href="#DejaVuSans-76"/>
      <use x="455.761719" xlink:href="#DejaVuSans-65"/>
      <use x="517.285156" xlink:href="#DejaVuSans-72"/>
      <use x="558.398438" xlink:href="#DejaVuSans-e4"/>
      <use x="619.677734" xlink:href="#DejaVuSans-6e"/>
      <use x="683.056641" xlink:href="#DejaVuSans-64"/>
      <use x="746.533203" xlink:href="#DejaVuSans-65"/>
      <use x="808.056641" xlink:href="#DejaVuSans-72"/>
      <use x="849.169922" xlink:href="#DejaVuSans-75"/>
      <use x="912.548828" xlink:href="#DejaVuSans-6e"/>
      <use x="975.927734" xlink:href="#DejaVuSans-67"/>
      <use x="1039.404297" xlink:href="#DejaVuSans-20"/>
      <use x="1071.191406" xlink:href="#DejaVuSans-69"/>
      <use x="1098.974609" xlink:href="#DejaVuSans-6e"/>
      <use x="1162.353516" xlink:href="#DejaVuSans-20"/>
      <use x="1194.140625" xlink:href="#DejaVuSans-53"/>
      <use x="1257.617188" xlink:href="#DejaVuSans-65"/>
      <use x="1319.140625" xlink:href="#DejaVuSans-6b"/>
      <use x="1373.925781" xlink:href="#DejaVuSans-75"/>
      <use x="1437.304688" xlink:href="#DejaVuSans-6e"/>
      <use x="1500.683594" xlink:href="#DejaVuSans-64"/>
      <use x="1564.160156" xlink:href="#DejaVuSans-65"/>
      <use x="1625.683594" xlink:href="#DejaVuSans-6e"/>
     </g>
    </g>
    <g id="text_16">
     <!-- 1e−6 -->
     <g transform="translate(69.12 38.472)scale(0.1 -0.1)">
      <defs>
       <path d="M 678 2272 
L 4684 2272 
L 4684 1741 
L 678 1741 
L 678 2272 
z
" id="DejaVuSans-2212" transform="scale(0.015625)"/>
      </defs>
      <use xlink:href="#DejaVuSans-31"/>
      <use x="63.623047" xlink:href="#DejaVuSans-65"/>
      <use x="125.146484" xlink:href="#DejaVuSans-2212"/>
      <use x="208.935547" xlink:href="#DejaVuSans-36"/>
     </g>
    </g>
   </g>
   <g id="line2d_14">
    <path clip-path="url(#p2ba5913a42)" d="M 0 0 
" style="fill:none;stroke:#1f77b4;stroke-linecap:square;stroke-width:1.5;"/>
   </g>
   <g id="line2d_15">
    <path clip-path="url(#p2ba5913a42)" d="M 68.824862 115.531116 
L 70.471803 115.531116 
L 70.801191 149.845009 
L 71.130579 115.531116 
L 71.459967 149.845009 
L 71.789355 115.531116 
L 72.118743 149.845009 
L 72.448131 115.531116 
L 72.77752 149.845009 
L 73.106908 115.531116 
L 73.436296 115.531116 
L 73.765684 81.217223 
L 74.095072 115.531116 
L 74.753848 115.531116 
L 75.083236 149.845009 
L 75.412624 115.531116 
L 75.742013 149.845009 
L 76.071401 115.531116 
L 76.400789 149.845009 
L 76.730177 81.217223 
L 77.059565 149.845009 
L 77.388953 115.531116 
L 77.718341 149.845009 
L 78.047729 81.217223 
L 78.706506 149.845009 
L 79.035894 115.531116 
L 79.365282 149.845009 
L 79.69467 115.531116 
L 80.024058 149.845009 
L 80.353446 115.531116 
L 80.682834 149.845009 
L 81.012222 115.531116 
L 81.341611 184.158901 
L 81.670999 115.531116 
L 82.000387 149.845009 
L 82.329775 115.531116 
L 83.317939 115.531116 
L 83.647327 149.845009 
L 83.976715 115.531116 
L 84.010613 -1 
M 84.849921 -1 
L 84.96488 46.90333 
L 85.294268 46.90333 
L 85.953044 115.531116 
L 86.282432 115.531116 
L 86.394294 -1 
M 86.829347 -1 
L 86.941208 115.531116 
L 87.270597 81.217223 
L 87.599985 115.531116 
L 88.258761 115.531116 
L 88.588149 81.217223 
L 88.917537 115.531116 
L 89.246925 81.217223 
L 89.905702 149.845009 
L 90.564478 81.217223 
L 90.893866 115.531116 
L 91.223254 81.217223 
L 91.88203 149.845009 
L 92.211418 149.845009 
L 92.540806 115.531116 
L 92.870195 149.845009 
L 93.199583 115.531116 
L 93.528971 149.845009 
L 93.858359 115.531116 
L 94.187747 149.845009 
L 94.517135 149.845009 
L 94.846523 115.531116 
L 95.175911 184.158901 
L 95.505299 115.531116 
L 95.834688 184.158901 
L 96.493464 115.531116 
L 96.822852 115.531116 
L 97.15224 149.845009 
L 97.481628 115.531116 
L 97.811016 149.845009 
L 98.469792 149.845009 
L 98.799181 115.531116 
L 99.128569 149.845009 
L 99.457957 81.217223 
L 99.787345 115.531116 
L 100.775509 115.531116 
L 101.104897 184.158901 
L 101.434286 115.531116 
L 101.763674 115.531116 
L 102.093062 149.845009 
L 102.42245 115.531116 
L 102.751838 149.845009 
L 103.081226 81.217223 
L 103.410614 81.217223 
L 103.476383 -1 
M 104.003622 -1 
L 104.06939 81.217223 
L 104.398779 184.158901 
L 104.728167 149.845009 
L 105.057555 149.845009 
L 105.386943 115.531116 
L 105.716331 149.845009 
L 106.045719 115.531116 
L 106.375107 184.158901 
L 106.704495 149.845009 
L 107.69266 149.845009 
L 108.022048 184.158901 
L 108.351436 149.845009 
L 108.405066 -1 
M 109.270648 -1 
L 109.3396 149.845009 
L 109.668988 184.158901 
L 109.998377 149.845009 
L 110.657153 218.472794 
L 111.315929 218.472794 
L 111.645317 184.158901 
L 111.974705 184.158901 
L 112.304093 218.472794 
L 113.292258 218.472794 
L 113.621646 184.158901 
L 113.951034 184.158901 
L 114.148522 -1 
M 114.412322 -1 
L 114.60981 184.158901 
L 114.939198 184.158901 
L 115.268586 218.472794 
L 115.597974 218.472794 
L 115.927363 184.158901 
L 116.586139 184.158901 
L 117.244915 252.786687 
L 117.903691 184.158901 
L 118.233079 184.158901 
L 118.562468 218.472794 
L 118.891856 184.158901 
L 119.221244 184.158901 
L 119.88002 252.786687 
L 120.209408 252.786687 
L 120.538796 218.472794 
L 121.197572 218.472794 
L 121.526961 184.158901 
L 122.185737 252.786687 
L 122.515125 218.472794 
L 123.503289 218.472794 
L 123.832677 252.786687 
L 124.820842 252.786687 
L 125.15023 184.158901 
L 125.479618 218.472794 
L 125.809006 184.158901 
L 126.138394 184.158901 
L 126.335882 -1 
M 126.599683 -1 
L 126.79717 184.158901 
L 127.126559 252.786687 
L 127.785335 252.786687 
L 128.114723 184.158901 
L 128.444111 184.158901 
L 128.773499 252.786687 
L 129.102887 218.472794 
L 129.432275 218.472794 
L 129.761663 252.786687 
L 130.42044 184.158901 
L 130.749828 218.472794 
L 132.06738 218.472794 
L 132.396768 252.786687 
L 132.726156 184.158901 
L 133.055545 252.786687 
L 133.714321 184.158901 
L 134.043709 184.158901 
L 134.373097 252.786687 
L 134.702485 218.472794 
L 135.361261 218.472794 
L 135.436503 -1 
M 136.086351 -1 
L 136.349426 81.217223 
L 136.398752 -1 
M 136.958875 -1 
L 137.008202 81.217223 
L 137.33759 184.158901 
L 137.666978 149.845009 
L 137.996366 218.472794 
L 138.325754 218.472794 
L 138.655143 184.158901 
L 138.984531 184.158901 
L 139.313919 149.845009 
L 139.643307 218.472794 
L 139.972695 218.472794 
L 140.302083 184.158901 
L 140.631471 184.158901 
L 140.960859 218.472794 
L 141.290247 218.472794 
L 141.500925 -1 
M 141.751536 -1 
L 141.949024 184.158901 
L 142.278412 218.472794 
L 142.6078 184.158901 
L 143.266576 184.158901 
L 143.595964 149.845009 
L 143.925352 252.786687 
L 144.25474 218.472794 
L 144.365624 -1 
M 144.82834 -1 
L 144.913517 149.845009 
L 145.242905 149.845009 
L 145.572293 184.158901 
L 146.231069 184.158901 
L 146.560457 218.472794 
L 147.219234 218.472794 
L 147.548622 184.158901 
L 147.87801 218.472794 
L 148.207398 218.472794 
L 148.536786 184.158901 
L 148.866174 184.158901 
L 149.195562 218.472794 
L 149.52495 184.158901 
L 150.183727 184.158901 
L 150.513115 149.845009 
L 150.842503 218.472794 
L 151.171891 218.472794 
L 151.501279 184.158901 
L 151.830667 115.531116 
L 152.05439 -1 
M 152.24811 -1 
L 152.489443 149.845009 
L 152.818831 218.472794 
L 153.477608 218.472794 
L 153.806996 184.158901 
L 154.136384 218.472794 
L 154.465772 218.472794 
L 154.79516 252.786687 
L 156.112713 252.786687 
L 156.442101 218.472794 
L 157.430265 218.472794 
L 157.759653 252.786687 
L 158.089041 252.786687 
L 158.418429 218.472794 
L 158.747818 252.786687 
L 159.077206 218.472794 
L 159.735982 287.10058 
L 160.06537 287.10058 
L 160.394758 252.786687 
L 160.724146 252.786687 
L 160.805352 -1 
M 161.377251 -1 
L 161.382922 12.589437 
L 161.385172 -1 
M 162.294447 -1 
L 162.371087 46.90333 
L 162.700475 149.845009 
L 163.029863 149.845009 
L 163.359251 252.786687 
L 163.688639 218.472794 
L 164.018027 252.786687 
L 164.347416 218.472794 
L 164.676804 252.786687 
L 165.006192 252.786687 
L 165.33558 184.158901 
L 165.994356 252.786687 
L 166.323744 184.158901 
L 166.653132 218.472794 
L 167.641297 218.472794 
L 167.75834 -1 
M 168.195521 -1 
L 168.300073 184.158901 
L 168.629461 184.158901 
L 168.958849 218.472794 
L 169.169527 -1 
M 169.725544 -1 
L 169.947013 252.786687 
L 170.276402 218.472794 
L 170.60579 252.786687 
L 170.935178 252.786687 
L 171.264566 218.472794 
L 171.593954 287.10058 
L 172.25273 218.472794 
L 172.582118 252.786687 
L 172.911507 252.786687 
L 173.240895 184.158901 
L 173.570283 252.786687 
L 174.229059 252.786687 
L 174.558447 287.10058 
L 174.887835 218.472794 
L 175.876 218.472794 
L 176.205388 184.158901 
L 176.534776 218.472794 
L 176.864164 218.472794 
L 177.193552 184.158901 
L 177.52294 252.786687 
L 179.499269 252.786687 
L 179.828657 287.10058 
L 180.158045 287.10058 
L 180.487433 218.472794 
L 180.816821 252.786687 
L 181.804986 252.786687 
L 182.134374 184.158901 
L 182.463762 218.472794 
L 182.539004 -1 
M 183.116609 -1 
L 183.122538 12.589437 
L 183.451926 184.158901 
L 183.781314 218.472794 
L 184.110702 184.158901 
L 184.769479 252.786687 
L 185.098867 218.472794 
L 185.428255 252.786687 
L 185.757643 252.786687 
L 186.087031 218.472794 
L 186.745807 287.10058 
L 187.075195 252.786687 
L 188.06336 252.786687 
L 188.392748 287.10058 
L 189.051524 287.10058 
L 189.380912 252.786687 
L 189.7103 252.786687 
L 190.039688 287.10058 
L 190.369077 252.786687 
L 190.698465 287.10058 
L 191.027853 252.786687 
L 192.345405 252.786687 
L 192.674793 287.10058 
L 193.33357 218.472794 
L 193.992346 218.472794 
L 194.321734 252.786687 
L 194.98051 252.786687 
L 195.309898 287.10058 
L 195.639286 252.786687 
L 196.627451 252.786687 
L 196.956839 287.10058 
L 197.50995 -1 
M 197.681656 -1 
L 197.945003 218.472794 
L 198.274391 252.786687 
L 198.603779 252.786687 
L 198.933168 218.472794 
L 199.262556 252.786687 
L 199.591944 252.786687 
L 199.921332 184.158901 
L 200.25072 218.472794 
L 201.238884 218.472794 
L 201.897661 287.10058 
L 202.227049 287.10058 
L 202.556437 252.786687 
L 203.215213 252.786687 
L 203.544601 287.10058 
L 203.873989 218.472794 
L 204.203377 252.786687 
L 204.532766 252.786687 
L 204.862154 218.472794 
L 205.191542 252.786687 
L 205.52093 218.472794 
L 205.850318 252.786687 
L 206.179706 252.786687 
L 206.509094 218.472794 
L 207.16787 218.472794 
L 207.497259 252.786687 
L 207.826647 218.472794 
L 208.156035 252.786687 
L 208.399651 -1 
M 208.592637 -1 
L 208.814811 184.158901 
L 208.874057 -1 
M 209.779621 -1 
L 209.802975 149.845009 
L 210.132364 149.845009 
L 210.461752 184.158901 
L 210.494068 -1 
M 211.741683 -1 
L 211.779304 218.472794 
L 212.108692 218.472794 
L 212.43808 252.786687 
L 212.767468 218.472794 
L 213.096857 252.786687 
L 213.426245 252.786687 
L 213.755633 184.158901 
L 214.085021 184.158901 
L 214.414409 218.472794 
L 214.743797 218.472794 
L 215.073185 184.158901 
L 215.402573 218.472794 
L 215.731961 218.472794 
L 216.06135 252.786687 
L 216.390738 252.786687 
L 216.720126 218.472794 
L 217.049514 218.472794 
L 217.378902 252.786687 
L 218.037678 184.158901 
L 218.696454 184.158901 
L 218.720153 -1 
M 219.32751 -1 
L 219.355231 218.472794 
L 219.391554 -1 
M 219.972716 -1 
L 220.014007 252.786687 
L 220.343395 252.786687 
L 220.672783 218.472794 
L 221.002171 218.472794 
L 221.331559 149.845009 
L 221.660948 184.158901 
L 221.990336 252.786687 
L 222.319724 252.786687 
L 222.649112 184.158901 
L 222.9785 218.472794 
L 223.307888 218.472794 
L 223.637276 184.158901 
L 223.966664 252.786687 
L 224.296052 252.786687 
L 224.341167 -1 
M 224.932456 -1 
L 224.954829 115.531116 
L 224.977658 -1 
M 225.70166 -1 
L 225.942993 149.845009 
L 226.272381 184.158901 
L 226.601769 149.845009 
L 226.628097 -1 
M 227.583068 -1 
L 227.589934 12.589437 
L 228.24871 218.472794 
L 228.578098 115.531116 
L 228.907486 184.158901 
L 229.236874 184.158901 
L 229.566262 149.845009 
L 229.89565 218.472794 
L 230.225039 252.786687 
L 230.554427 218.472794 
L 230.883815 218.472794 
L 231.213203 252.786687 
L 231.542591 184.158901 
L 231.871979 252.786687 
L 232.201367 252.786687 
L 232.530755 218.472794 
L 233.51892 218.472794 
L 233.848308 184.158901 
L 234.177696 252.786687 
L 234.507084 218.472794 
L 234.836472 252.786687 
L 236.154025 252.786687 
L 236.483413 218.472794 
L 236.812801 252.786687 
L 237.142189 218.472794 
L 237.471577 218.472794 
L 237.800965 252.786687 
L 241.094846 252.786687 
L 241.424234 218.472794 
L 242.083011 218.472794 
L 242.412399 184.158901 
L 243.071175 252.786687 
L 243.400563 184.158901 
L 243.729951 252.786687 
L 244.059339 252.786687 
L 244.388727 184.158901 
L 244.718116 252.786687 
L 245.047504 218.472794 
L 245.376892 252.786687 
L 245.70628 218.472794 
L 245.823323 -1 
M 246.260504 -1 
L 246.365056 184.158901 
L 246.694444 252.786687 
L 248.011997 252.786687 
L 248.341385 218.472794 
L 249.329549 218.472794 
L 249.658937 252.786687 
L 250.317714 184.158901 
L 250.647102 252.786687 
L 250.97649 252.786687 
L 251.305878 218.472794 
L 251.635266 252.786687 
L 251.964654 252.786687 
L 252.208271 -1 
M 252.379814 -1 
L 252.62343 252.786687 
L 252.952818 218.472794 
L 253.282207 252.786687 
L 253.611595 252.786687 
L 253.940983 184.158901 
L 254.270371 252.786687 
L 254.599759 252.786687 
L 254.929147 184.158901 
L 255.258535 252.786687 
L 255.587923 218.472794 
L 255.663165 -1 
M 256.296434 -1 
L 256.576088 115.531116 
L 256.905476 184.158901 
L 257.234864 218.472794 
L 257.564252 184.158901 
L 257.89364 218.472794 
L 259.211193 218.472794 
L 259.540581 252.786687 
L 260.199357 252.786687 
L 260.528745 287.10058 
L 260.858133 252.786687 
L 261.846298 252.786687 
L 262.175686 218.472794 
L 262.505074 218.472794 
L 262.834462 184.158901 
L 263.16385 184.158901 
L 263.822626 252.786687 
L 264.810791 252.786687 
L 265.140179 218.472794 
L 265.469567 252.786687 
L 268.43406 252.786687 
L 268.763448 184.158901 
L 269.422224 252.786687 
L 269.751612 218.472794 
L 270.081 218.472794 
L 270.410389 252.786687 
L 270.739777 252.786687 
L 271.069165 218.472794 
L 271.398553 252.786687 
L 271.727941 252.786687 
L 272.057329 218.472794 
L 272.716105 287.10058 
L 273.045493 184.158901 
L 273.374882 252.786687 
L 274.033658 184.158901 
L 274.363046 252.786687 
L 275.35121 252.786687 
L 275.680598 218.472794 
L 276.009987 252.786687 
L 276.668763 252.786687 
L 276.998151 218.472794 
L 277.656927 218.472794 
L 277.986315 252.786687 
L 279.633256 252.786687 
L 279.854725 -1 
M 280.094544 -1 
L 280.292032 184.158901 
L 280.62142 252.786687 
L 280.950808 184.158901 
L 281.609584 252.786687 
L 281.938973 184.158901 
L 282.268361 252.786687 
L 282.597749 218.472794 
L 282.927137 252.786687 
L 283.256525 218.472794 
L 283.585913 252.786687 
L 283.667119 -1 
M 284.239018 -1 
L 284.244689 12.589437 
L 284.574078 149.845009 
L 284.903466 184.158901 
L 285.232854 184.158901 
L 285.562242 252.786687 
L 285.89163 218.472794 
L 286.221018 218.472794 
L 286.550406 252.786687 
L 286.879794 218.472794 
L 287.209182 218.472794 
L 287.33311 -1 
M 287.771425 -1 
L 287.867959 149.845009 
L 288.856123 252.786687 
L 289.185511 252.786687 
L 289.514899 218.472794 
L 289.844287 218.472794 
L 290.173675 252.786687 
L 290.503064 218.472794 
L 290.832452 252.786687 
L 291.16184 252.786687 
L 291.491228 184.158901 
L 291.820616 184.158901 
L 292.150004 252.786687 
L 292.479392 218.472794 
L 293.138168 218.472794 
L 293.467557 252.786687 
L 294.126333 252.786687 
L 294.455721 218.472794 
L 294.785109 252.786687 
L 295.114497 218.472794 
L 295.443885 218.472794 
L 295.773273 184.158901 
L 296.102662 184.158901 
L 296.43205 252.786687 
L 296.761438 218.472794 
L 297.090826 218.472794 
L 297.420214 252.786687 
L 298.07899 184.158901 
L 298.408378 252.786687 
L 299.396543 252.786687 
L 299.725931 218.472794 
L 300.055319 252.786687 
L 300.384707 218.472794 
L 301.043483 218.472794 
L 301.372871 252.786687 
L 301.702259 184.158901 
L 302.031648 252.786687 
L 302.361036 252.786687 
L 302.690424 218.472794 
L 303.019812 252.786687 
L 303.3492 184.158901 
L 303.678588 218.472794 
L 304.007976 218.472794 
L 304.337364 184.158901 
L 304.666753 115.531116 
L 304.996141 184.158901 
L 305.325529 218.472794 
L 305.654917 218.472794 
L 305.984305 252.786687 
L 306.972469 252.786687 
L 307.193939 -1 
M 307.433758 -1 
L 307.631246 184.158901 
L 307.960634 218.472794 
L 308.290022 184.158901 
L 308.948798 252.786687 
L 309.278186 218.472794 
L 309.607574 218.472794 
L 309.936962 184.158901 
L 310.26635 252.786687 
L 310.595739 252.786687 
L 311.254515 184.158901 
L 311.583903 184.158901 
L 311.606986 -1 
M 312.348345 -1 
L 312.572067 115.531116 
L 313.230844 252.786687 
L 313.560232 218.472794 
L 313.88962 218.472794 
L 314.219008 252.786687 
L 314.548396 252.786687 
L 314.877784 184.158901 
L 315.207172 184.158901 
L 315.53656 252.786687 
L 315.865948 218.472794 
L 317.183501 218.472794 
L 317.512889 184.158901 
L 317.842277 218.472794 
L 318.171665 184.158901 
L 318.830441 252.786687 
L 319.15983 252.786687 
L 319.818606 184.158901 
L 320.147994 184.158901 
L 320.477382 218.472794 
L 320.80677 218.472794 
L 321.136158 252.786687 
L 321.465546 218.472794 
L 321.794935 252.786687 
L 322.124323 252.786687 
L 322.783099 184.158901 
L 323.441875 184.158901 
L 324.100651 252.786687 
L 324.430039 252.786687 
L 324.759428 218.472794 
L 325.088816 252.786687 
L 326.07698 252.786687 
L 326.406368 218.472794 
L 326.735756 218.472794 
L 327.065144 252.786687 
L 327.394532 218.472794 
L 328.053309 218.472794 
L 328.382697 184.158901 
L 328.712085 252.786687 
L 329.041473 218.472794 
L 329.370861 218.472794 
L 329.700249 252.786687 
L 330.029637 218.472794 
L 330.359025 218.472794 
L 330.688414 184.158901 
L 331.017802 218.472794 
L 331.676578 218.472794 
L 332.005966 184.158901 
L 332.664742 252.786687 
L 333.982295 252.786687 
L 334.25298 -1 
M 334.387158 -1 
L 334.641071 184.158901 
L 335.629235 184.158901 
L 335.958623 252.786687 
L 336.288012 218.472794 
L 336.6174 218.472794 
L 336.946788 184.158901 
L 337.276176 184.158901 
L 337.605564 218.472794 
L 337.767624 -1 
M 338.10228 -1 
L 338.26434 218.472794 
L 338.593728 252.786687 
L 339.252505 184.158901 
L 339.581893 218.472794 
L 339.911281 218.472794 
L 339.986523 -1 
M 340.874903 -1 
L 340.899445 149.845009 
L 341.228833 149.845009 
L 341.558221 218.472794 
L 342.216998 218.472794 
L 342.546386 252.786687 
L 342.875774 218.472794 
L 343.53455 218.472794 
L 343.863938 252.786687 
L 344.193326 218.472794 
L 344.522714 218.472794 
L 344.852103 252.786687 
L 345.181491 218.472794 
L 345.510879 218.472794 
L 345.840267 184.158901 
L 346.169655 218.472794 
L 346.499043 184.158901 
L 346.828431 252.786687 
L 347.157819 218.472794 
L 347.816596 218.472794 
L 348.145984 184.158901 
L 348.475372 252.786687 
L 348.80476 184.158901 
L 349.463536 252.786687 
L 349.792924 218.472794 
L 350.122312 252.786687 
L 350.451701 252.786687 
L 351.110477 184.158901 
L 351.439865 184.158901 
L 351.769253 218.472794 
L 352.098641 184.158901 
L 352.428029 218.472794 
L 353.086805 218.472794 
L 353.416194 252.786687 
L 354.733746 252.786687 
L 355.063134 218.472794 
L 355.72191 218.472794 
L 356.051298 184.158901 
L 356.132089 -1 
M 356.641122 -1 
L 356.710075 149.845009 
L 357.039463 218.472794 
L 357.698239 218.472794 
L 358.027627 252.786687 
L 358.686403 252.786687 
L 359.015792 218.472794 
L 359.34518 252.786687 
L 359.674568 252.786687 
L 360.003956 218.472794 
L 360.333344 218.472794 
L 360.662732 184.158901 
L 360.884906 -1 
M 361.087422 -1 
L 361.321508 218.472794 
L 361.650896 252.786687 
L 361.980285 218.472794 
L 362.309673 252.786687 
L 362.639061 218.472794 
L 364.286001 218.472794 
L 364.615389 252.786687 
L 365.274166 184.158901 
L 365.603554 218.472794 
L 365.932942 184.158901 
L 366.26233 218.472794 
L 366.591718 184.158901 
L 366.921106 184.158901 
L 367.250494 218.472794 
L 367.273148 -1 
M 368.370741 -1 
L 368.568047 81.217223 
L 368.897435 81.217223 
L 369.226823 115.531116 
L 369.556211 184.158901 
L 369.885599 218.472794 
L 370.544376 149.845009 
L 371.203152 218.472794 
L 371.284182 -1 
M 371.813293 -1 
L 371.861928 115.531116 
L 372.191316 184.158901 
L 372.520704 184.158901 
L 372.850092 149.845009 
L 373.17948 218.472794 
L 373.508869 149.845009 
L 373.838257 184.158901 
L 374.826421 184.158901 
L 375.155809 252.786687 
L 375.485197 184.158901 
L 376.473362 184.158901 
L 376.80275 149.845009 
L 377.132138 184.158901 
L 378.120302 184.158901 
L 378.44969 218.472794 
L 378.779078 218.472794 
L 379.108467 252.786687 
L 379.437855 184.158901 
L 379.767243 149.845009 
L 380.426019 218.472794 
L 380.755407 218.472794 
L 381.084795 149.845009 
L 381.414183 184.158901 
L 381.743571 149.845009 
L 382.07296 218.472794 
L 382.402348 218.472794 
L 382.731736 184.158901 
L 383.061124 218.472794 
L 383.390512 184.158901 
L 384.049288 184.158901 
L 384.378676 218.472794 
L 384.708064 184.158901 
L 385.037453 218.472794 
L 385.696229 218.472794 
L 386.025617 184.158901 
L 386.355005 184.158901 
L 386.684393 149.845009 
L 387.013781 218.472794 
L 387.343169 218.472794 
L 387.672558 184.158901 
L 388.001946 218.472794 
L 388.164005 -1 
M 389.056423 -1 
L 389.648886 149.845009 
L 389.978274 218.472794 
L 390.637051 149.845009 
L 390.966439 184.158901 
L 391.295827 149.845009 
L 391.625215 184.158901 
L 391.954603 149.845009 
L 392.283991 149.845009 
L 392.613379 115.531116 
L 392.942767 184.158901 
L 393.272155 149.845009 
L 393.601544 149.845009 
L 394.26032 218.472794 
L 394.589708 184.158901 
L 394.919096 218.472794 
L 395.248484 149.845009 
L 396.236649 149.845009 
L 396.895425 218.472794 
L 397.224813 149.845009 
L 397.554201 184.158901 
L 397.883589 184.158901 
L 398.212977 149.845009 
L 398.542365 149.845009 
L 399.201142 218.472794 
L 399.859918 149.845009 
L 400.189306 149.845009 
L 400.848082 218.472794 
L 401.17747 149.845009 
L 401.506858 149.845009 
L 402.165635 218.472794 
L 402.824411 149.845009 
L 403.483187 149.845009 
L 403.812575 218.472794 
L 404.141963 184.158901 
L 404.800739 184.158901 
L 405.130128 149.845009 
L 405.788904 218.472794 
L 406.44768 149.845009 
L 406.777068 184.158901 
L 407.106456 149.845009 
L 407.765233 218.472794 
L 408.094621 218.472794 
L 408.424009 149.845009 
L 409.082785 218.472794 
L 409.741561 218.472794 
L 410.400337 149.845009 
L 410.729726 184.158901 
L 411.388502 184.158901 
L 411.71789 149.845009 
L 412.047278 149.845009 
L 412.706054 218.472794 
L 413.035442 218.472794 
L 413.36483 184.158901 
L 414.352995 184.158901 
L 414.682383 218.472794 
L 415.011771 218.472794 
L 415.011771 218.472794 
" style="fill:none;stroke:#ff7f0e;stroke-linecap:square;stroke-width:1.5;"/>
   </g>
   <g id="patch_3">
    <path d="M 69.12 307.584 
L 69.12 41.472 
" style="fill:none;stroke:#000000;stroke-linecap:square;stroke-linejoin:miter;stroke-width:0.8;"/>
   </g>
   <g id="patch_4">
    <path d="M 414.72 307.584 
L 414.72 41.472 
" style="fill:none;stroke:#000000;stroke-linecap:square;stroke-linejoin:miter;stroke-width:0.8;"/>
   </g>
   <g id="patch_5">
    <path d="M 69.12 307.584 
L 414.72 307.584 
" style="fill:none;stroke:#000000;stroke-linecap:square;stroke-linejoin:miter;stroke-width:0.8;"/>
   </g>
   <g id="patch_6">
    <path d="M 69.12 41.472 
L 414.72 41.472 
" style="fill:none;stroke:#000000;stroke-linecap:square;stroke-linejoin:miter;stroke-width:0.8;"/>
   </g>
   <g id="text_17">
    <!-- Messung_Ubuntu_1.csv -->
    <g transform="translate(171.725625 21.700875)scale(0.12 -0.12)">
     <defs>
      <path d="M 628 4666 
L 1569 4666 
L 2759 1491 
L 3956 4666 
L 4897 4666 
L 4897 0 
L 4281 0 
L 4281 4097 
L 3078 897 
L 2444 897 
L 1241 4097 
L 1241 0 
L 628 0 
L 628 4666 
z
" id="DejaVuSans-4d" transform="scale(0.015625)"/>
      <path d="M 3263 -1063 
L 3263 -1509 
L -63 -1509 
L -63 -1063 
L 3263 -1063 
z
" id="DejaVuSans-5f" transform="scale(0.015625)"/>
      <path d="M 556 4666 
L 1191 4666 
L 1191 1831 
Q 1191 1081 1462 751 
Q 1734 422 2344 422 
Q 2950 422 3222 751 
Q 3494 1081 3494 1831 
L 3494 4666 
L 4128 4666 
L 4128 1753 
Q 4128 841 3676 375 
Q 3225 -91 2344 -91 
Q 1459 -91 1007 375 
Q 556 841 556 1753 
L 556 4666 
z
" id="DejaVuSans-55" transform="scale(0.015625)"/>
      <path d="M 3116 1747 
Q 3116 2381 2855 2742 
Q 2594 3103 2138 3103 
Q 1681 3103 1420 2742 
Q 1159 2381 1159 1747 
Q 1159 1113 1420 752 
Q 1681 391 2138 391 
Q 2594 391 2855 752 
Q 3116 1113 3116 1747 
z
M 1159 2969 
Q 1341 3281 1617 3432 
Q 1894 3584 2278 3584 
Q 2916 3584 3314 3078 
Q 3713 2572 3713 1747 
Q 3713 922 3314 415 
Q 2916 -91 2278 -91 
Q 1894 -91 1617 61 
Q 1341 213 1159 525 
L 1159 0 
L 581 0 
L 581 4863 
L 1159 4863 
L 1159 2969 
z
" id="DejaVuSans-62" transform="scale(0.015625)"/>
      <path d="M 3122 3366 
L 3122 2828 
Q 2878 2963 2633 3030 
Q 2388 3097 2138 3097 
Q 1578 3097 1268 2742 
Q 959 2388 959 1747 
Q 959 1106 1268 751 
Q 1578 397 2138 397 
Q 2388 397 2633 464 
Q 2878 531 3122 666 
L 3122 134 
Q 2881 22 2623 -34 
Q 2366 -91 2075 -91 
Q 1284 -91 818 406 
Q 353 903 353 1747 
Q 353 2603 823 3093 
Q 1294 3584 2113 3584 
Q 2378 3584 2631 3529 
Q 2884 3475 3122 3366 
z
" id="DejaVuSans-63" transform="scale(0.015625)"/>
     </defs>
     <use xlink:href="#DejaVuSans-4d"/>
     <use x="86.279297" xlink:href="#DejaVuSans-65"/>
     <use x="147.802734" xlink:href="#DejaVuSans-73"/>
     <use x="199.902344" xlink:href="#DejaVuSans-73"/>
     <use x="252.001953" xlink:href="#DejaVuSans-75"/>
     <use x="315.380859" xlink:href="#DejaVuSans-6e"/>
     <use x="378.759766" xlink:href="#DejaVuSans-67"/>
     <use x="442.236328" xlink:href="#DejaVuSans-5f"/>
     <use x="492.236328" xlink:href="#DejaVuSans-55"/>
     <use x="565.429688" xlink:href="#DejaVuSans-62"/>
     <use x="628.90625" xlink:href="#DejaVuSans-75"/>
     <use x="692.285156" xlink:href="#DejaVuSans-6e"/>
     <use x="755.664062" xlink:href="#DejaVuSans-74"/>
     <use x="794.873047" xlink:href="#DejaVuSans-75"/>
     <use x="858.251953" xlink:href="#DejaVuSans-5f"/>
     <use x="908.251953" xlink:href="#DejaVuSans-31"/>
     <use x="971.875" xlink:href="#DejaVuSans-2e"/>
     <use x="1003.662109" xlink:href="#DejaVuSans-63"/>
     <use x="1058.642578" xlink:href="#DejaVuSans-73"/>
     <use x="1110.742188" xlink:href="#DejaVuSans-76"/>
    </g>
    <!-- Laufzeitveränderung je hinzugefügtes Element -->
    <g transform="translate(101.016563 35.472)scale(0.12 -0.12)">
     <defs>
      <path d="M 603 3500 
L 1178 3500 
L 1178 -63 
Q 1178 -731 923 -1031 
Q 669 -1331 103 -1331 
L -116 -1331 
L -116 -844 
L 38 -844 
Q 366 -844 484 -692 
Q 603 -541 603 -63 
L 603 3500 
z
M 603 4863 
L 1178 4863 
L 1178 4134 
L 603 4134 
L 603 4863 
z
" id="DejaVuSans-6a" transform="scale(0.015625)"/>
      <path d="M 3513 2113 
L 3513 0 
L 2938 0 
L 2938 2094 
Q 2938 2591 2744 2837 
Q 2550 3084 2163 3084 
Q 1697 3084 1428 2787 
Q 1159 2491 1159 1978 
L 1159 0 
L 581 0 
L 581 4863 
L 1159 4863 
L 1159 2956 
Q 1366 3272 1645 3428 
Q 1925 3584 2291 3584 
Q 2894 3584 3203 3211 
Q 3513 2838 3513 2113 
z
" id="DejaVuSans-68" transform="scale(0.015625)"/>
     </defs>
     <use xlink:href="#DejaVuSans-4c"/>
     <use x="55.712891" xlink:href="#DejaVuSans-61"/>
     <use x="116.992188" xlink:href="#DejaVuSans-75"/>
     <use x="180.371094" xlink:href="#DejaVuSans-66"/>
     <use x="215.576172" xlink:href="#DejaVuSans-7a"/>
     <use x="268.066406" xlink:href="#DejaVuSans-65"/>
     <use x="329.589844" xlink:href="#DejaVuSans-69"/>
     <use x="357.373047" xlink:href="#DejaVuSans-74"/>
     <use x="396.582031" xlink:href="#DejaVuSans-76"/>
     <use x="455.761719" xlink:href="#DejaVuSans-65"/>
     <use x="517.285156" xlink:href="#DejaVuSans-72"/>
     <use x="558.398438" xlink:href="#DejaVuSans-e4"/>
     <use x="619.677734" xlink:href="#DejaVuSans-6e"/>
     <use x="683.056641" xlink:href="#DejaVuSans-64"/>
     <use x="746.533203" xlink:href="#DejaVuSans-65"/>
     <use x="808.056641" xlink:href="#DejaVuSans-72"/>
     <use x="849.169922" xlink:href="#DejaVuSans-75"/>
     <use x="912.548828" xlink:href="#DejaVuSans-6e"/>
     <use x="975.927734" xlink:href="#DejaVuSans-67"/>
     <use x="1039.404297" xlink:href="#DejaVuSans-20"/>
     <use x="1071.191406" xlink:href="#DejaVuSans-6a"/>
     <use x="1098.974609" xlink:href="#DejaVuSans-65"/>
     <use x="1160.498047" xlink:href="#DejaVuSans-20"/>
     <use x="1192.285156" xlink:href="#DejaVuSans-68"/>
     <use x="1255.664062" xlink:href="#DejaVuSans-69"/>
     <use x="1283.447266" xlink:href="#DejaVuSans-6e"/>
     <use x="1346.826172" xlink:href="#DejaVuSans-7a"/>
     <use x="1399.316406" xlink:href="#DejaVuSans-75"/>
     <use x="1462.695312" xlink:href="#DejaVuSans-67"/>
     <use x="1526.171875" xlink:href="#DejaVuSans-65"/>
     <use x="1587.695312" xlink:href="#DejaVuSans-66"/>
     <use x="1622.900391" xlink:href="#DejaVuSans-fc"/>
     <use x="1686.279297" xlink:href="#DejaVuSans-67"/>
     <use x="1749.755859" xlink:href="#DejaVuSans-74"/>
     <use x="1788.964844" xlink:href="#DejaVuSans-65"/>
     <use x="1850.488281" xlink:href="#DejaVuSans-73"/>
     <use x="1902.587891" xlink:href="#DejaVuSans-20"/>
     <use x="1934.375" xlink:href="#DejaVuSans-45"/>
     <use x="1997.558594" xlink:href="#DejaVuSans-6c"/>
     <use x="2025.341797" xlink:href="#DejaVuSans-65"/>
     <use x="2086.865234" xlink:href="#DejaVuSans-6d"/>
     <use x="2184.277344" xlink:href="#DejaVuSans-65"/>
     <use x="2245.800781" xlink:href="#DejaVuSans-6e"/>
     <use x="2309.179688" xlink:href="#DejaVuSans-74"/>
    </g>
   </g>
   <g id="legend_1">
    <g id="patch_7">
     <path d="M 76.12 302.584 
L 135.054375 302.584 
Q 137.054375 302.584 137.054375 300.584 
L 137.054375 272.22775 
Q 137.054375 270.22775 135.054375 270.22775 
L 76.12 270.22775 
Q 74.12 270.22775 74.12 272.22775 
L 74.12 300.584 
Q 74.12 302.584 76.12 302.584 
z
" style="fill:#ffffff;opacity:0.8;stroke:#cccccc;stroke-linejoin:miter;"/>
    </g>
    <g id="line2d_16">
     <path d="M 78.12 278.326187 
L 98.12 278.326187 
" style="fill:none;stroke:#1f77b4;stroke-linecap:square;stroke-width:1.5;"/>
    </g>
    <g id="line2d_17"/>
    <g id="text_18">
     <!-- Liste -->
     <g transform="translate(106.12 281.826187)scale(0.1 -0.1)">
      <use xlink:href="#DejaVuSans-4c"/>
      <use x="55.712891" xlink:href="#DejaVuSans-69"/>
      <use x="83.496094" xlink:href="#DejaVuSans-73"/>
      <use x="135.595703" xlink:href="#DejaVuSans-74"/>
      <use x="174.804688" xlink:href="#DejaVuSans-65"/>
     </g>
    </g>
    <g id="line2d_18">
     <path d="M 78.12 293.004312 
L 98.12 293.004312 
" style="fill:none;stroke:#ff7f0e;stroke-linecap:square;stroke-width:1.5;"/>
    </g>
    <g id="line2d_19"/>
    <g id="text_19">
     <!-- Array -->
     <g transform="translate(106.12 296.504312)scale(0.1 -0.1)">
      <defs>
       <path d="M 2188 4044 
L 1331 1722 
L 3047 1722 
L 2188 4044 
z
M 1831 4666 
L 2547 4666 
L 4325 0 
L 3669 0 
L 3244 1197 
L 1141 1197 
L 716 0 
L 50 0 
L 1831 4666 
z
" id="DejaVuSans-41" transform="scale(0.015625)"/>
       <path d="M 2059 -325 
Q 1816 -950 1584 -1140 
Q 1353 -1331 966 -1331 
L 506 -1331 
L 506 -850 
L 844 -850 
Q 1081 -850 1212 -737 
Q 1344 -625 1503 -206 
L 1606 56 
L 191 3500 
L 800 3500 
L 1894 763 
L 2988 3500 
L 3597 3500 
L 2059 -325 
z
" id="DejaVuSans-79" transform="scale(0.015625)"/>
      </defs>
      <use xlink:href="#DejaVuSans-41"/>
      <use x="68.408203" xlink:href="#DejaVuSans-72"/>
      <use x="107.771484" xlink:href="#DejaVuSans-72"/>
      <use x="148.884766" xlink:href="#DejaVuSans-61"/>
      <use x="210.164062" xlink:href="#DejaVuSans-79"/>
     </g>
    </g>
   </g>
  </g>
 </g>
 <defs>
  <clipPath id="p2ba5913a42">
   <rect height="266.112" width="345.6" x="69.12" y="41.472"/>
  </clipPath>
 </defs>
</svg>
