<?xml version="1.0" encoding="utf-8" standalone="no"?>
<!DOCTYPE svg PUBLIC "-//W3C//DTD SVG 1.1//EN"
  "http://www.w3.org/Graphics/SVG/1.1/DTD/svg11.dtd">
<svg height="345.6pt" version="1.1" viewBox="0 0 460.8 345.6" width="460.8pt" xmlns="http://www.w3.org/2000/svg" xmlns:xlink="http://www.w3.org/1999/xlink">
 <metadata>
  <rdf:RDF xmlns:cc="http://creativecommons.org/ns#" xmlns:dc="http://purl.org/dc/elements/1.1/" xmlns:rdf="http://www.w3.org/1999/02/22-rdf-syntax-ns#">
   <cc:Work>
    <dc:type rdf:resource="http://purl.org/dc/dcmitype/StillImage"/>
    <dc:date>2021-04-24T08:52:47.165341</dc:date>
    <dc:format>image/svg+xml</dc:format>
    <dc:creator>
     <cc:Agent>
      <dc:title>Matplotlib v3.4.1, https://matplotlib.org/</dc:title>
     </cc:Agent>
    </dc:creator>
   </cc:Work>
  </rdf:RDF>
 </metadata>
 <defs>
  <style type="text/css">*{stroke-linecap:butt;stroke-linejoin:round;}</style>
 </defs>
 <g id="figure_1">
  <g id="patch_1">
   <path d="M 0 345.6 
L 460.8 345.6 
L 460.8 0 
L 0 0 
z
" style="fill:#ffffff;"/>
  </g>
  <g id="axes_1">
   <g id="patch_2">
    <path d="M 69.12 307.584 
L 414.72 307.584 
L 414.72 41.472 
L 69.12 41.472 
z
" style="fill:#ffffff;"/>
   </g>
   <g id="matplotlib.axis_1">
    <g id="xtick_1">
     <g id="line2d_1">
      <defs>
       <path d="M 0 0 
L 0 3.5 
" id="ma9ca1b59fb" style="stroke:#000000;stroke-width:0.8;"/>
      </defs>
      <g>
       <use style="stroke:#000000;stroke-width:0.8;" x="138.212349" xlink:href="#ma9ca1b59fb" y="307.584"/>
      </g>
     </g>
     <g id="text_1">
      <!-- 2000 -->
      <g transform="translate(125.487349 322.182437)scale(0.1 -0.1)">
       <defs>
        <path d="M 1228 531 
L 3431 531 
L 3431 0 
L 469 0 
L 469 531 
Q 828 903 1448 1529 
Q 2069 2156 2228 2338 
Q 2531 2678 2651 2914 
Q 2772 3150 2772 3378 
Q 2772 3750 2511 3984 
Q 2250 4219 1831 4219 
Q 1534 4219 1204 4116 
Q 875 4013 500 3803 
L 500 4441 
Q 881 4594 1212 4672 
Q 1544 4750 1819 4750 
Q 2544 4750 2975 4387 
Q 3406 4025 3406 3419 
Q 3406 3131 3298 2873 
Q 3191 2616 2906 2266 
Q 2828 2175 2409 1742 
Q 1991 1309 1228 531 
z
" id="DejaVuSans-32" transform="scale(0.015625)"/>
        <path d="M 2034 4250 
Q 1547 4250 1301 3770 
Q 1056 3291 1056 2328 
Q 1056 1369 1301 889 
Q 1547 409 2034 409 
Q 2525 409 2770 889 
Q 3016 1369 3016 2328 
Q 3016 3291 2770 3770 
Q 2525 4250 2034 4250 
z
M 2034 4750 
Q 2819 4750 3233 4129 
Q 3647 3509 3647 2328 
Q 3647 1150 3233 529 
Q 2819 -91 2034 -91 
Q 1250 -91 836 529 
Q 422 1150 422 2328 
Q 422 3509 836 4129 
Q 1250 4750 2034 4750 
z
" id="DejaVuSans-30" transform="scale(0.015625)"/>
       </defs>
       <use xlink:href="#DejaVuSans-32"/>
       <use x="63.623047" xlink:href="#DejaVuSans-30"/>
       <use x="127.246094" xlink:href="#DejaVuSans-30"/>
       <use x="190.869141" xlink:href="#DejaVuSans-30"/>
      </g>
     </g>
    </g>
    <g id="xtick_2">
     <g id="line2d_2">
      <g>
       <use style="stroke:#000000;stroke-width:0.8;" x="207.339262" xlink:href="#ma9ca1b59fb" y="307.584"/>
      </g>
     </g>
     <g id="text_2">
      <!-- 4000 -->
      <g transform="translate(194.614262 322.182437)scale(0.1 -0.1)">
       <defs>
        <path d="M 2419 4116 
L 825 1625 
L 2419 1625 
L 2419 4116 
z
M 2253 4666 
L 3047 4666 
L 3047 1625 
L 3713 1625 
L 3713 1100 
L 3047 1100 
L 3047 0 
L 2419 0 
L 2419 1100 
L 313 1100 
L 313 1709 
L 2253 4666 
z
" id="DejaVuSans-34" transform="scale(0.015625)"/>
       </defs>
       <use xlink:href="#DejaVuSans-34"/>
       <use x="63.623047" xlink:href="#DejaVuSans-30"/>
       <use x="127.246094" xlink:href="#DejaVuSans-30"/>
       <use x="190.869141" xlink:href="#DejaVuSans-30"/>
      </g>
     </g>
    </g>
    <g id="xtick_3">
     <g id="line2d_3">
      <g>
       <use style="stroke:#000000;stroke-width:0.8;" x="276.466175" xlink:href="#ma9ca1b59fb" y="307.584"/>
      </g>
     </g>
     <g id="text_3">
      <!-- 6000 -->
      <g transform="translate(263.741175 322.182437)scale(0.1 -0.1)">
       <defs>
        <path d="M 2113 2584 
Q 1688 2584 1439 2293 
Q 1191 2003 1191 1497 
Q 1191 994 1439 701 
Q 1688 409 2113 409 
Q 2538 409 2786 701 
Q 3034 994 3034 1497 
Q 3034 2003 2786 2293 
Q 2538 2584 2113 2584 
z
M 3366 4563 
L 3366 3988 
Q 3128 4100 2886 4159 
Q 2644 4219 2406 4219 
Q 1781 4219 1451 3797 
Q 1122 3375 1075 2522 
Q 1259 2794 1537 2939 
Q 1816 3084 2150 3084 
Q 2853 3084 3261 2657 
Q 3669 2231 3669 1497 
Q 3669 778 3244 343 
Q 2819 -91 2113 -91 
Q 1303 -91 875 529 
Q 447 1150 447 2328 
Q 447 3434 972 4092 
Q 1497 4750 2381 4750 
Q 2619 4750 2861 4703 
Q 3103 4656 3366 4563 
z
" id="DejaVuSans-36" transform="scale(0.015625)"/>
       </defs>
       <use xlink:href="#DejaVuSans-36"/>
       <use x="63.623047" xlink:href="#DejaVuSans-30"/>
       <use x="127.246094" xlink:href="#DejaVuSans-30"/>
       <use x="190.869141" xlink:href="#DejaVuSans-30"/>
      </g>
     </g>
    </g>
    <g id="xtick_4">
     <g id="line2d_4">
      <g>
       <use style="stroke:#000000;stroke-width:0.8;" x="345.593087" xlink:href="#ma9ca1b59fb" y="307.584"/>
      </g>
     </g>
     <g id="text_4">
      <!-- 8000 -->
      <g transform="translate(332.868087 322.182437)scale(0.1 -0.1)">
       <defs>
        <path d="M 2034 2216 
Q 1584 2216 1326 1975 
Q 1069 1734 1069 1313 
Q 1069 891 1326 650 
Q 1584 409 2034 409 
Q 2484 409 2743 651 
Q 3003 894 3003 1313 
Q 3003 1734 2745 1975 
Q 2488 2216 2034 2216 
z
M 1403 2484 
Q 997 2584 770 2862 
Q 544 3141 544 3541 
Q 544 4100 942 4425 
Q 1341 4750 2034 4750 
Q 2731 4750 3128 4425 
Q 3525 4100 3525 3541 
Q 3525 3141 3298 2862 
Q 3072 2584 2669 2484 
Q 3125 2378 3379 2068 
Q 3634 1759 3634 1313 
Q 3634 634 3220 271 
Q 2806 -91 2034 -91 
Q 1263 -91 848 271 
Q 434 634 434 1313 
Q 434 1759 690 2068 
Q 947 2378 1403 2484 
z
M 1172 3481 
Q 1172 3119 1398 2916 
Q 1625 2713 2034 2713 
Q 2441 2713 2670 2916 
Q 2900 3119 2900 3481 
Q 2900 3844 2670 4047 
Q 2441 4250 2034 4250 
Q 1625 4250 1398 4047 
Q 1172 3844 1172 3481 
z
" id="DejaVuSans-38" transform="scale(0.015625)"/>
       </defs>
       <use xlink:href="#DejaVuSans-38"/>
       <use x="63.623047" xlink:href="#DejaVuSans-30"/>
       <use x="127.246094" xlink:href="#DejaVuSans-30"/>
       <use x="190.869141" xlink:href="#DejaVuSans-30"/>
      </g>
     </g>
    </g>
    <g id="xtick_5">
     <g id="line2d_5">
      <g>
       <use style="stroke:#000000;stroke-width:0.8;" x="414.72" xlink:href="#ma9ca1b59fb" y="307.584"/>
      </g>
     </g>
     <g id="text_5">
      <!-- 10000 -->
      <g transform="translate(398.81375 322.182437)scale(0.1 -0.1)">
       <defs>
        <path d="M 794 531 
L 1825 531 
L 1825 4091 
L 703 3866 
L 703 4441 
L 1819 4666 
L 2450 4666 
L 2450 531 
L 3481 531 
L 3481 0 
L 794 0 
L 794 531 
z
" id="DejaVuSans-31" transform="scale(0.015625)"/>
       </defs>
       <use xlink:href="#DejaVuSans-31"/>
       <use x="63.623047" xlink:href="#DejaVuSans-30"/>
       <use x="127.246094" xlink:href="#DejaVuSans-30"/>
       <use x="190.869141" xlink:href="#DejaVuSans-30"/>
       <use x="254.492188" xlink:href="#DejaVuSans-30"/>
      </g>
     </g>
    </g>
    <g id="text_6">
     <!-- Hinzugefügtes Element -->
     <g transform="translate(183.523906 335.860562)scale(0.1 -0.1)">
      <defs>
       <path d="M 628 4666 
L 1259 4666 
L 1259 2753 
L 3553 2753 
L 3553 4666 
L 4184 4666 
L 4184 0 
L 3553 0 
L 3553 2222 
L 1259 2222 
L 1259 0 
L 628 0 
L 628 4666 
z
" id="DejaVuSans-48" transform="scale(0.015625)"/>
       <path d="M 603 3500 
L 1178 3500 
L 1178 0 
L 603 0 
L 603 3500 
z
M 603 4863 
L 1178 4863 
L 1178 4134 
L 603 4134 
L 603 4863 
z
" id="DejaVuSans-69" transform="scale(0.015625)"/>
       <path d="M 3513 2113 
L 3513 0 
L 2938 0 
L 2938 2094 
Q 2938 2591 2744 2837 
Q 2550 3084 2163 3084 
Q 1697 3084 1428 2787 
Q 1159 2491 1159 1978 
L 1159 0 
L 581 0 
L 581 3500 
L 1159 3500 
L 1159 2956 
Q 1366 3272 1645 3428 
Q 1925 3584 2291 3584 
Q 2894 3584 3203 3211 
Q 3513 2838 3513 2113 
z
" id="DejaVuSans-6e" transform="scale(0.015625)"/>
       <path d="M 353 3500 
L 3084 3500 
L 3084 2975 
L 922 459 
L 3084 459 
L 3084 0 
L 275 0 
L 275 525 
L 2438 3041 
L 353 3041 
L 353 3500 
z
" id="DejaVuSans-7a" transform="scale(0.015625)"/>
       <path d="M 544 1381 
L 544 3500 
L 1119 3500 
L 1119 1403 
Q 1119 906 1312 657 
Q 1506 409 1894 409 
Q 2359 409 2629 706 
Q 2900 1003 2900 1516 
L 2900 3500 
L 3475 3500 
L 3475 0 
L 2900 0 
L 2900 538 
Q 2691 219 2414 64 
Q 2138 -91 1772 -91 
Q 1169 -91 856 284 
Q 544 659 544 1381 
z
M 1991 3584 
L 1991 3584 
z
" id="DejaVuSans-75" transform="scale(0.015625)"/>
       <path d="M 2906 1791 
Q 2906 2416 2648 2759 
Q 2391 3103 1925 3103 
Q 1463 3103 1205 2759 
Q 947 2416 947 1791 
Q 947 1169 1205 825 
Q 1463 481 1925 481 
Q 2391 481 2648 825 
Q 2906 1169 2906 1791 
z
M 3481 434 
Q 3481 -459 3084 -895 
Q 2688 -1331 1869 -1331 
Q 1566 -1331 1297 -1286 
Q 1028 -1241 775 -1147 
L 775 -588 
Q 1028 -725 1275 -790 
Q 1522 -856 1778 -856 
Q 2344 -856 2625 -561 
Q 2906 -266 2906 331 
L 2906 616 
Q 2728 306 2450 153 
Q 2172 0 1784 0 
Q 1141 0 747 490 
Q 353 981 353 1791 
Q 353 2603 747 3093 
Q 1141 3584 1784 3584 
Q 2172 3584 2450 3431 
Q 2728 3278 2906 2969 
L 2906 3500 
L 3481 3500 
L 3481 434 
z
" id="DejaVuSans-67" transform="scale(0.015625)"/>
       <path d="M 3597 1894 
L 3597 1613 
L 953 1613 
Q 991 1019 1311 708 
Q 1631 397 2203 397 
Q 2534 397 2845 478 
Q 3156 559 3463 722 
L 3463 178 
Q 3153 47 2828 -22 
Q 2503 -91 2169 -91 
Q 1331 -91 842 396 
Q 353 884 353 1716 
Q 353 2575 817 3079 
Q 1281 3584 2069 3584 
Q 2775 3584 3186 3129 
Q 3597 2675 3597 1894 
z
M 3022 2063 
Q 3016 2534 2758 2815 
Q 2500 3097 2075 3097 
Q 1594 3097 1305 2825 
Q 1016 2553 972 2059 
L 3022 2063 
z
" id="DejaVuSans-65" transform="scale(0.015625)"/>
       <path d="M 2375 4863 
L 2375 4384 
L 1825 4384 
Q 1516 4384 1395 4259 
Q 1275 4134 1275 3809 
L 1275 3500 
L 2222 3500 
L 2222 3053 
L 1275 3053 
L 1275 0 
L 697 0 
L 697 3053 
L 147 3053 
L 147 3500 
L 697 3500 
L 697 3744 
Q 697 4328 969 4595 
Q 1241 4863 1831 4863 
L 2375 4863 
z
" id="DejaVuSans-66" transform="scale(0.015625)"/>
       <path d="M 544 1381 
L 544 3500 
L 1119 3500 
L 1119 1403 
Q 1119 906 1312 657 
Q 1506 409 1894 409 
Q 2359 409 2629 706 
Q 2900 1003 2900 1516 
L 2900 3500 
L 3475 3500 
L 3475 0 
L 2900 0 
L 2900 538 
Q 2691 219 2414 64 
Q 2138 -91 1772 -91 
Q 1169 -91 856 284 
Q 544 659 544 1381 
z
M 1991 3584 
L 1991 3584 
z
M 2278 4850 
L 2912 4850 
L 2912 4219 
L 2278 4219 
L 2278 4850 
z
M 1056 4850 
L 1690 4850 
L 1690 4219 
L 1056 4219 
L 1056 4850 
z
" id="DejaVuSans-fc" transform="scale(0.015625)"/>
       <path d="M 1172 4494 
L 1172 3500 
L 2356 3500 
L 2356 3053 
L 1172 3053 
L 1172 1153 
Q 1172 725 1289 603 
Q 1406 481 1766 481 
L 2356 481 
L 2356 0 
L 1766 0 
Q 1100 0 847 248 
Q 594 497 594 1153 
L 594 3053 
L 172 3053 
L 172 3500 
L 594 3500 
L 594 4494 
L 1172 4494 
z
" id="DejaVuSans-74" transform="scale(0.015625)"/>
       <path d="M 2834 3397 
L 2834 2853 
Q 2591 2978 2328 3040 
Q 2066 3103 1784 3103 
Q 1356 3103 1142 2972 
Q 928 2841 928 2578 
Q 928 2378 1081 2264 
Q 1234 2150 1697 2047 
L 1894 2003 
Q 2506 1872 2764 1633 
Q 3022 1394 3022 966 
Q 3022 478 2636 193 
Q 2250 -91 1575 -91 
Q 1294 -91 989 -36 
Q 684 19 347 128 
L 347 722 
Q 666 556 975 473 
Q 1284 391 1588 391 
Q 1994 391 2212 530 
Q 2431 669 2431 922 
Q 2431 1156 2273 1281 
Q 2116 1406 1581 1522 
L 1381 1569 
Q 847 1681 609 1914 
Q 372 2147 372 2553 
Q 372 3047 722 3315 
Q 1072 3584 1716 3584 
Q 2034 3584 2315 3537 
Q 2597 3491 2834 3397 
z
" id="DejaVuSans-73" transform="scale(0.015625)"/>
       <path id="DejaVuSans-20" transform="scale(0.015625)"/>
       <path d="M 628 4666 
L 3578 4666 
L 3578 4134 
L 1259 4134 
L 1259 2753 
L 3481 2753 
L 3481 2222 
L 1259 2222 
L 1259 531 
L 3634 531 
L 3634 0 
L 628 0 
L 628 4666 
z
" id="DejaVuSans-45" transform="scale(0.015625)"/>
       <path d="M 603 4863 
L 1178 4863 
L 1178 0 
L 603 0 
L 603 4863 
z
" id="DejaVuSans-6c" transform="scale(0.015625)"/>
       <path d="M 3328 2828 
Q 3544 3216 3844 3400 
Q 4144 3584 4550 3584 
Q 5097 3584 5394 3201 
Q 5691 2819 5691 2113 
L 5691 0 
L 5113 0 
L 5113 2094 
Q 5113 2597 4934 2840 
Q 4756 3084 4391 3084 
Q 3944 3084 3684 2787 
Q 3425 2491 3425 1978 
L 3425 0 
L 2847 0 
L 2847 2094 
Q 2847 2600 2669 2842 
Q 2491 3084 2119 3084 
Q 1678 3084 1418 2786 
Q 1159 2488 1159 1978 
L 1159 0 
L 581 0 
L 581 3500 
L 1159 3500 
L 1159 2956 
Q 1356 3278 1631 3431 
Q 1906 3584 2284 3584 
Q 2666 3584 2933 3390 
Q 3200 3197 3328 2828 
z
" id="DejaVuSans-6d" transform="scale(0.015625)"/>
      </defs>
      <use xlink:href="#DejaVuSans-48"/>
      <use x="75.195312" xlink:href="#DejaVuSans-69"/>
      <use x="102.978516" xlink:href="#DejaVuSans-6e"/>
      <use x="166.357422" xlink:href="#DejaVuSans-7a"/>
      <use x="218.847656" xlink:href="#DejaVuSans-75"/>
      <use x="282.226562" xlink:href="#DejaVuSans-67"/>
      <use x="345.703125" xlink:href="#DejaVuSans-65"/>
      <use x="407.226562" xlink:href="#DejaVuSans-66"/>
      <use x="442.431641" xlink:href="#DejaVuSans-fc"/>
      <use x="505.810547" xlink:href="#DejaVuSans-67"/>
      <use x="569.287109" xlink:href="#DejaVuSans-74"/>
      <use x="608.496094" xlink:href="#DejaVuSans-65"/>
      <use x="670.019531" xlink:href="#DejaVuSans-73"/>
      <use x="722.119141" xlink:href="#DejaVuSans-20"/>
      <use x="753.90625" xlink:href="#DejaVuSans-45"/>
      <use x="817.089844" xlink:href="#DejaVuSans-6c"/>
      <use x="844.873047" xlink:href="#DejaVuSans-65"/>
      <use x="906.396484" xlink:href="#DejaVuSans-6d"/>
      <use x="1003.808594" xlink:href="#DejaVuSans-65"/>
      <use x="1065.332031" xlink:href="#DejaVuSans-6e"/>
      <use x="1128.710938" xlink:href="#DejaVuSans-74"/>
     </g>
    </g>
   </g>
   <g id="matplotlib.axis_2">
    <g id="ytick_1">
     <g id="line2d_6">
      <defs>
       <path d="M 0 0 
L -3.5 0 
" id="m482d10a58f" style="stroke:#000000;stroke-width:0.8;"/>
      </defs>
      <g>
       <use style="stroke:#000000;stroke-width:0.8;" x="69.12" xlink:href="#m482d10a58f" y="307.584"/>
      </g>
     </g>
     <g id="text_7">
      <!-- 0.000 -->
      <g transform="translate(33.491875 311.383219)scale(0.1 -0.1)">
       <defs>
        <path d="M 684 794 
L 1344 794 
L 1344 0 
L 684 0 
L 684 794 
z
" id="DejaVuSans-2e" transform="scale(0.015625)"/>
       </defs>
       <use xlink:href="#DejaVuSans-30"/>
       <use x="63.623047" xlink:href="#DejaVuSans-2e"/>
       <use x="95.410156" xlink:href="#DejaVuSans-30"/>
       <use x="159.033203" xlink:href="#DejaVuSans-30"/>
       <use x="222.65625" xlink:href="#DejaVuSans-30"/>
      </g>
     </g>
    </g>
    <g id="ytick_2">
     <g id="line2d_7">
      <g>
       <use style="stroke:#000000;stroke-width:0.8;" x="69.12" xlink:href="#m482d10a58f" y="254.72701"/>
      </g>
     </g>
     <g id="text_8">
      <!-- 0.002 -->
      <g transform="translate(33.491875 258.526229)scale(0.1 -0.1)">
       <use xlink:href="#DejaVuSans-30"/>
       <use x="63.623047" xlink:href="#DejaVuSans-2e"/>
       <use x="95.410156" xlink:href="#DejaVuSans-30"/>
       <use x="159.033203" xlink:href="#DejaVuSans-30"/>
       <use x="222.65625" xlink:href="#DejaVuSans-32"/>
      </g>
     </g>
    </g>
    <g id="ytick_3">
     <g id="line2d_8">
      <g>
       <use style="stroke:#000000;stroke-width:0.8;" x="69.12" xlink:href="#m482d10a58f" y="201.87002"/>
      </g>
     </g>
     <g id="text_9">
      <!-- 0.004 -->
      <g transform="translate(33.491875 205.669239)scale(0.1 -0.1)">
       <use xlink:href="#DejaVuSans-30"/>
       <use x="63.623047" xlink:href="#DejaVuSans-2e"/>
       <use x="95.410156" xlink:href="#DejaVuSans-30"/>
       <use x="159.033203" xlink:href="#DejaVuSans-30"/>
       <use x="222.65625" xlink:href="#DejaVuSans-34"/>
      </g>
     </g>
    </g>
    <g id="ytick_4">
     <g id="line2d_9">
      <g>
       <use style="stroke:#000000;stroke-width:0.8;" x="69.12" xlink:href="#m482d10a58f" y="149.01303"/>
      </g>
     </g>
     <g id="text_10">
      <!-- 0.006 -->
      <g transform="translate(33.491875 152.812249)scale(0.1 -0.1)">
       <use xlink:href="#DejaVuSans-30"/>
       <use x="63.623047" xlink:href="#DejaVuSans-2e"/>
       <use x="95.410156" xlink:href="#DejaVuSans-30"/>
       <use x="159.033203" xlink:href="#DejaVuSans-30"/>
       <use x="222.65625" xlink:href="#DejaVuSans-36"/>
      </g>
     </g>
    </g>
    <g id="ytick_5">
     <g id="line2d_10">
      <g>
       <use style="stroke:#000000;stroke-width:0.8;" x="69.12" xlink:href="#m482d10a58f" y="96.156041"/>
      </g>
     </g>
     <g id="text_11">
      <!-- 0.008 -->
      <g transform="translate(33.491875 99.955259)scale(0.1 -0.1)">
       <use xlink:href="#DejaVuSans-30"/>
       <use x="63.623047" xlink:href="#DejaVuSans-2e"/>
       <use x="95.410156" xlink:href="#DejaVuSans-30"/>
       <use x="159.033203" xlink:href="#DejaVuSans-30"/>
       <use x="222.65625" xlink:href="#DejaVuSans-38"/>
      </g>
     </g>
    </g>
    <g id="ytick_6">
     <g id="line2d_11">
      <g>
       <use style="stroke:#000000;stroke-width:0.8;" x="69.12" xlink:href="#m482d10a58f" y="43.299051"/>
      </g>
     </g>
     <g id="text_12">
      <!-- 0.010 -->
      <g transform="translate(33.491875 47.09827)scale(0.1 -0.1)">
       <use xlink:href="#DejaVuSans-30"/>
       <use x="63.623047" xlink:href="#DejaVuSans-2e"/>
       <use x="95.410156" xlink:href="#DejaVuSans-30"/>
       <use x="159.033203" xlink:href="#DejaVuSans-31"/>
       <use x="222.65625" xlink:href="#DejaVuSans-30"/>
      </g>
     </g>
    </g>
    <g id="text_13">
     <!-- Laufzeitveränderung in Sekunden -->
     <g transform="translate(27.412188 258.981906)rotate(-90)scale(0.1 -0.1)">
      <defs>
       <path d="M 628 4666 
L 1259 4666 
L 1259 531 
L 3531 531 
L 3531 0 
L 628 0 
L 628 4666 
z
" id="DejaVuSans-4c" transform="scale(0.015625)"/>
       <path d="M 2194 1759 
Q 1497 1759 1228 1600 
Q 959 1441 959 1056 
Q 959 750 1161 570 
Q 1363 391 1709 391 
Q 2188 391 2477 730 
Q 2766 1069 2766 1631 
L 2766 1759 
L 2194 1759 
z
M 3341 1997 
L 3341 0 
L 2766 0 
L 2766 531 
Q 2569 213 2275 61 
Q 1981 -91 1556 -91 
Q 1019 -91 701 211 
Q 384 513 384 1019 
Q 384 1609 779 1909 
Q 1175 2209 1959 2209 
L 2766 2209 
L 2766 2266 
Q 2766 2663 2505 2880 
Q 2244 3097 1772 3097 
Q 1472 3097 1187 3025 
Q 903 2953 641 2809 
L 641 3341 
Q 956 3463 1253 3523 
Q 1550 3584 1831 3584 
Q 2591 3584 2966 3190 
Q 3341 2797 3341 1997 
z
" id="DejaVuSans-61" transform="scale(0.015625)"/>
       <path d="M 191 3500 
L 800 3500 
L 1894 563 
L 2988 3500 
L 3597 3500 
L 2284 0 
L 1503 0 
L 191 3500 
z
" id="DejaVuSans-76" transform="scale(0.015625)"/>
       <path d="M 2631 2963 
Q 2534 3019 2420 3045 
Q 2306 3072 2169 3072 
Q 1681 3072 1420 2755 
Q 1159 2438 1159 1844 
L 1159 0 
L 581 0 
L 581 3500 
L 1159 3500 
L 1159 2956 
Q 1341 3275 1631 3429 
Q 1922 3584 2338 3584 
Q 2397 3584 2469 3576 
Q 2541 3569 2628 3553 
L 2631 2963 
z
" id="DejaVuSans-72" transform="scale(0.015625)"/>
       <path d="M 2194 1759 
Q 1497 1759 1228 1600 
Q 959 1441 959 1056 
Q 959 750 1161 570 
Q 1363 391 1709 391 
Q 2188 391 2477 730 
Q 2766 1069 2766 1631 
L 2766 1759 
L 2194 1759 
z
M 3341 1997 
L 3341 0 
L 2766 0 
L 2766 531 
Q 2569 213 2275 61 
Q 1981 -91 1556 -91 
Q 1019 -91 701 211 
Q 384 513 384 1019 
Q 384 1609 779 1909 
Q 1175 2209 1959 2209 
L 2766 2209 
L 2766 2266 
Q 2766 2663 2505 2880 
Q 2244 3097 1772 3097 
Q 1472 3097 1187 3025 
Q 903 2953 641 2809 
L 641 3341 
Q 956 3463 1253 3523 
Q 1550 3584 1831 3584 
Q 2591 3584 2966 3190 
Q 3341 2797 3341 1997 
z
M 2150 4850 
L 2784 4850 
L 2784 4219 
L 2150 4219 
L 2150 4850 
z
M 928 4850 
L 1562 4850 
L 1562 4219 
L 928 4219 
L 928 4850 
z
" id="DejaVuSans-e4" transform="scale(0.015625)"/>
       <path d="M 2906 2969 
L 2906 4863 
L 3481 4863 
L 3481 0 
L 2906 0 
L 2906 525 
Q 2725 213 2448 61 
Q 2172 -91 1784 -91 
Q 1150 -91 751 415 
Q 353 922 353 1747 
Q 353 2572 751 3078 
Q 1150 3584 1784 3584 
Q 2172 3584 2448 3432 
Q 2725 3281 2906 2969 
z
M 947 1747 
Q 947 1113 1208 752 
Q 1469 391 1925 391 
Q 2381 391 2643 752 
Q 2906 1113 2906 1747 
Q 2906 2381 2643 2742 
Q 2381 3103 1925 3103 
Q 1469 3103 1208 2742 
Q 947 2381 947 1747 
z
" id="DejaVuSans-64" transform="scale(0.015625)"/>
       <path d="M 3425 4513 
L 3425 3897 
Q 3066 4069 2747 4153 
Q 2428 4238 2131 4238 
Q 1616 4238 1336 4038 
Q 1056 3838 1056 3469 
Q 1056 3159 1242 3001 
Q 1428 2844 1947 2747 
L 2328 2669 
Q 3034 2534 3370 2195 
Q 3706 1856 3706 1288 
Q 3706 609 3251 259 
Q 2797 -91 1919 -91 
Q 1588 -91 1214 -16 
Q 841 59 441 206 
L 441 856 
Q 825 641 1194 531 
Q 1563 422 1919 422 
Q 2459 422 2753 634 
Q 3047 847 3047 1241 
Q 3047 1584 2836 1778 
Q 2625 1972 2144 2069 
L 1759 2144 
Q 1053 2284 737 2584 
Q 422 2884 422 3419 
Q 422 4038 858 4394 
Q 1294 4750 2059 4750 
Q 2388 4750 2728 4690 
Q 3069 4631 3425 4513 
z
" id="DejaVuSans-53" transform="scale(0.015625)"/>
       <path d="M 581 4863 
L 1159 4863 
L 1159 1991 
L 2875 3500 
L 3609 3500 
L 1753 1863 
L 3688 0 
L 2938 0 
L 1159 1709 
L 1159 0 
L 581 0 
L 581 4863 
z
" id="DejaVuSans-6b" transform="scale(0.015625)"/>
      </defs>
      <use xlink:href="#DejaVuSans-4c"/>
      <use x="55.712891" xlink:href="#DejaVuSans-61"/>
      <use x="116.992188" xlink:href="#DejaVuSans-75"/>
      <use x="180.371094" xlink:href="#DejaVuSans-66"/>
      <use x="215.576172" xlink:href="#DejaVuSans-7a"/>
      <use x="268.066406" xlink:href="#DejaVuSans-65"/>
      <use x="329.589844" xlink:href="#DejaVuSans-69"/>
      <use x="357.373047" xlink:href="#DejaVuSans-74"/>
      <use x="396.582031" xlink:href="#DejaVuSans-76"/>
      <use x="455.761719" xlink:href="#DejaVuSans-65"/>
      <use x="517.285156" xlink:href="#DejaVuSans-72"/>
      <use x="558.398438" xlink:href="#DejaVuSans-e4"/>
      <use x="619.677734" xlink:href="#DejaVuSans-6e"/>
      <use x="683.056641" xlink:href="#DejaVuSans-64"/>
      <use x="746.533203" xlink:href="#DejaVuSans-65"/>
      <use x="808.056641" xlink:href="#DejaVuSans-72"/>
      <use x="849.169922" xlink:href="#DejaVuSans-75"/>
      <use x="912.548828" xlink:href="#DejaVuSans-6e"/>
      <use x="975.927734" xlink:href="#DejaVuSans-67"/>
      <use x="1039.404297" xlink:href="#DejaVuSans-20"/>
      <use x="1071.191406" xlink:href="#DejaVuSans-69"/>
      <use x="1098.974609" xlink:href="#DejaVuSans-6e"/>
      <use x="1162.353516" xlink:href="#DejaVuSans-20"/>
      <use x="1194.140625" xlink:href="#DejaVuSans-53"/>
      <use x="1257.617188" xlink:href="#DejaVuSans-65"/>
      <use x="1319.140625" xlink:href="#DejaVuSans-6b"/>
      <use x="1373.925781" xlink:href="#DejaVuSans-75"/>
      <use x="1437.304688" xlink:href="#DejaVuSans-6e"/>
      <use x="1500.683594" xlink:href="#DejaVuSans-64"/>
      <use x="1564.160156" xlink:href="#DejaVuSans-65"/>
      <use x="1625.683594" xlink:href="#DejaVuSans-6e"/>
     </g>
    </g>
   </g>
   <g id="line2d_12">
    <path clip-path="url(#pb738ef6a64)" d="M 69.12 307.558796 
L 69.361944 307.577699 
L 308.195428 307.577699 
L 308.229991 274.100251 
L 308.299118 307.584 
L 414.72 307.577699 
L 414.72 307.577699 
" style="fill:none;stroke:#1f77b4;stroke-linecap:square;stroke-width:1.5;"/>
   </g>
   <g id="line2d_13">
    <path clip-path="url(#pb738ef6a64)" d="M 69.12 306.298587 
L 69.189127 307.331958 
L 69.258254 307.212238 
L 69.396508 307.40127 
L 69.845833 307.136626 
L 69.880396 307.338259 
L 70.01865 307.388668 
L 70.087777 307.231142 
L 70.12234 307.382367 
L 70.295158 307.388668 
L 70.364284 307.268948 
L 70.398848 307.376066 
L 70.571665 307.363463 
L 70.640792 307.275249 
L 70.675356 307.382367 
L 70.813609 307.40127 
L 70.9173 307.294152 
L 71.055554 307.40127 
L 71.159244 307.319356 
L 71.193807 307.256346 
L 71.228371 307.376066 
L 71.435752 307.331958 
L 71.470315 307.262647 
L 71.504878 307.382367 
L 71.677696 307.40127 
L 71.712259 307.035809 
L 71.781386 307.363463 
L 71.850513 307.394969 
L 71.988767 307.22484 
L 72.230711 307.394969 
L 72.265275 307.331958 
L 72.299838 307.275249 
L 72.334401 307.382367 
L 72.541782 307.338259 
L 72.576346 307.275249 
L 72.610909 307.382367 
L 72.783726 307.388668 
L 72.852853 307.28155 
L 72.887417 307.388668 
L 73.094797 307.350861 
L 73.129361 307.243744 
L 73.163924 307.388668 
L 73.371305 307.394969 
L 73.440432 307.111422 
L 73.474995 307.34456 
L 73.509559 307.376066 
L 73.544122 307.22484 
L 73.613249 307.388668 
L 75.272295 307.40127 
L 75.306859 306.651445 
L 75.375986 307.376066 
L 75.72162 307.394969 
L 76.378326 307.394969 
L 76.412889 307.22484 
L 76.482016 307.394969 
L 77.242412 307.394969 
L 77.276976 306.638843 
L 77.346103 307.350861 
L 77.553483 307.394969 
L 77.588047 307.300453 
L 77.657174 307.388668 
L 78.279316 307.394969 
L 79.177966 307.394969 
L 79.212529 307.130325 
L 79.281656 307.369764 
L 80.733321 307.413872 
L 80.767885 303.740363 
L 80.837012 307.369764 
L 81.009829 307.407571 
L 82.11586 307.426474 
L 82.150423 307.275249 
L 82.21955 307.413872 
L 82.496058 307.413872 
L 82.530621 307.338259 
L 82.599748 307.413872 
L 83.049073 307.420173 
L 83.083636 306.695553 
L 83.152763 306.972799 
L 83.22189 307.388668 
L 83.291017 307.363463 
L 83.532961 307.413872 
L 85.433951 307.413872 
L 85.468515 307.199636 
L 85.537642 307.394969 
L 85.675896 307.420173 
L 85.710459 307.256346 
L 85.779586 307.413872 
L 86.332601 307.413872 
L 86.92018 307.426474 
L 87.265815 307.413872 
L 87.542322 307.439076 
L 87.576886 306.998003 
L 87.646013 307.407571 
L 87.92252 307.432775 
L 88.544662 307.439076 
L 89.166805 307.432775 
L 89.754383 307.439076 
L 90.100018 307.439076 
L 90.134581 306.569532 
L 90.203708 307.407571 
L 90.549343 307.445377 
L 90.583906 307.306754 
L 90.653033 307.439076 
L 91.206049 307.439076 
L 91.759064 307.432775 
L 91.793627 307.376066 
L 91.862754 307.439076 
L 92.657714 307.432775 
L 92.692277 307.111422 
L 92.726841 304.44608 
L 92.795968 307.407571 
L 93.176166 307.432775 
L 93.41811 307.432775 
L 93.452673 306.033943 
L 93.5218 307.413872 
L 94.143942 307.439076 
L 94.178506 307.294152 
L 94.247633 307.445377 
L 94.558704 307.439076 
L 94.662394 307.451678 
L 94.696958 306.840477 
L 94.766085 307.420173 
L 95.42279 307.432775 
L 97.32378 307.432775 
L 97.358344 307.22484 
L 97.427471 307.420173 
L 99.881476 307.439076 
L 99.91604 307.268948 
L 99.985167 307.439076 
L 100.469055 307.445377 
L 100.503618 307.388668 
L 100.572745 307.445377 
L 101.194887 307.451678 
L 102.71568 307.451678 
L 102.750243 307.275249 
L 102.81937 307.426474 
L 102.853933 307.325657 
L 102.92306 307.445377 
L 103.510639 307.445377 
L 103.648893 307.451678 
L 103.683456 307.331958 
L 103.752583 307.439076 
L 104.374725 307.451678 
L 104.962304 307.451678 
L 105.377066 307.457979 
L 105.480756 307.048411 
L 105.61901 307.439076 
L 105.860954 307.445377 
L 106.102898 307.451678 
L 106.137462 307.338259 
L 106.206589 307.445377 
L 106.828731 307.46428 
L 107.139802 307.457979 
L 107.658254 307.451678 
L 107.692817 307.275249 
L 107.761944 307.445377 
L 108.453213 307.46428 
L 109.075356 307.457979 
L 110.42333 307.445377 
L 110.492457 307.048411 
L 110.527021 307.439076 
L 110.596148 307.445377 
L 110.665275 307.010605 
L 110.699838 307.09882 
L 110.803528 307.457979 
L 110.838092 307.451678 
L 111.391107 307.445377 
L 111.460234 307.445377 
L 111.494797 306.972799 
L 111.529361 307.451678 
L 111.563924 307.086218 
L 111.702178 307.451678 
L 111.978686 307.445377 
L 112.047813 307.457979 
L 112.151503 307.124024 
L 112.255194 307.445377 
L 112.289757 307.439076 
L 112.32432 307.092519 
L 112.393447 307.413872 
L 112.669955 307.457979 
L 113.257534 307.457979 
L 114.294437 307.451678 
L 114.329001 307.338259 
L 114.398128 307.457979 
L 115.331341 307.451678 
L 115.365905 307.275249 
L 115.435032 307.432775 
L 115.81523 307.457979 
L 116.402808 307.457979 
L 118.269235 307.457979 
L 118.303798 307.268948 
L 118.372925 307.439076 
L 118.649433 307.451678 
L 118.683996 307.34456 
L 118.753123 307.445377 
L 119.375266 307.457979 
L 119.962844 307.451678 
L 120.446733 307.445377 
L 120.757804 307.388668 
L 120.896058 307.451678 
L 121.207129 307.445377 
L 121.241692 306.960197 
L 121.310819 307.432775 
L 121.656454 307.451678 
L 124.179586 307.451678 
L 124.248713 307.067314 
L 124.283276 307.439076 
L 125.873195 307.445377 
L 125.907759 307.306754 
L 125.976886 307.451678 
L 127.048353 307.451678 
L 127.11748 306.802671 
L 127.152043 307.40127 
L 127.359424 307.445377 
L 127.463114 307.451678 
L 127.497678 307.287851 
L 127.566805 307.445377 
L 129.260414 307.369764 
L 129.294977 307.262647 
L 129.329541 307.407571 
L 129.606049 307.445377 
L 130.193627 307.439076 
L 130.781206 307.439076 
L 132.129181 307.445377 
L 132.163744 307.268948 
L 132.232871 307.432775 
L 132.336562 307.445377 
L 132.371125 307.331958 
L 132.440252 307.445377 
L 133.027831 307.439076 
L 133.684536 307.451678 
L 134.928821 307.445377 
L 134.963384 307.250045 
L 135.032511 307.420173 
L 135.239892 307.439076 
L 135.862034 307.445377 
L 136.41505 307.451678 
L 136.587867 307.445377 
L 136.62243 307.331958 
L 136.691557 307.445377 
L 137.279136 307.439076 
L 137.659334 307.439076 
L 137.797588 307.268948 
L 137.935842 307.432775 
L 138.212349 307.445377 
L 138.246913 307.34456 
L 138.31604 307.439076 
L 138.903618 307.445377 
L 139.491197 307.445377 
L 140.42441 307.451678 
L 140.458974 306.815273 
L 140.528101 307.369764 
L 140.666355 307.445377 
L 143.258614 307.439076 
L 143.293177 306.815273 
L 143.362304 307.363463 
L 143.500558 307.439076 
L 143.811629 307.439076 
L 143.846193 307.092519 
L 143.880756 307.451678 
L 143.91532 307.445377 
L 144.157264 307.451678 
L 144.191827 307.035809 
L 144.260954 307.092519 
L 144.399208 307.445377 
L 144.986787 307.439076 
L 145.297858 307.451678 
L 145.332421 307.350861 
L 145.401548 307.445377 
L 145.81631 307.445377 
L 145.850873 307.262647 
L 145.92 307.426474 
L 146.161944 307.445377 
L 146.784086 307.439076 
L 148.61595 307.445377 
L 148.650513 307.035809 
L 148.71964 307.407571 
L 148.961584 307.451678 
L 149.272655 307.451678 
L 151.41559 307.451678 
L 151.450153 219.552111 
L 151.51928 307.34456 
L 151.692097 307.432775 
L 152.314239 307.439076 
L 152.901818 307.439076 
L 152.936382 306.998003 
L 153.005509 307.420173 
L 153.696778 307.439076 
L 153.731341 307.325657 
L 153.800468 307.439076 
L 154.388047 307.445377 
L 154.699118 307.445377 
L 155.701458 307.439076 
L 155.736022 306.73966 
L 155.805149 307.413872 
L 156.185347 307.445377 
L 158.501098 307.445377 
L 158.535662 307.243744 
L 158.604788 307.426474 
L 159.296058 307.445377 
L 159.607129 307.445377 
L 159.641692 307.325657 
L 159.710819 307.439076 
L 160.298398 307.439076 
L 161.266175 307.439076 
L 161.300738 306.92239 
L 161.369865 307.407571 
L 161.577246 307.445377 
L 161.611809 307.325657 
L 161.680936 307.432775 
L 161.957444 307.439076 
L 161.992007 307.256346 
L 162.061134 307.420173 
L 162.303078 307.432775 
L 162.856094 307.432775 
L 162.890657 307.250045 
L 162.959784 307.432775 
L 163.478236 307.439076 
L 163.512799 306.758563 
L 163.581926 307.426474 
L 166.243312 307.376066 
L 166.277876 307.061013 
L 166.347003 307.40127 
L 166.554383 307.439076 
L 167.107399 307.432775 
L 167.453033 307.445377 
L 168.075176 307.439076 
L 169.077516 307.432775 
L 169.112079 307.155529 
L 169.181206 307.413872 
L 169.457714 307.445377 
L 170.114419 307.432775 
L 171.877156 307.439076 
L 171.911719 307.256346 
L 171.946283 41.472 
L 172.01541 307.054712 
L 172.153663 307.420173 
L 172.741242 307.432775 
L 172.775806 307.243744 
L 172.844932 307.40127 
L 173.052313 307.432775 
L 173.639892 307.432775 
L 175.195248 307.439076 
L 175.229811 307.256346 
L 175.298938 307.420173 
L 175.679136 307.445377 
L 176.02477 307.432775 
L 176.646913 307.439076 
L 177.71838 307.439076 
L 177.752943 307.256346 
L 177.82207 307.439076 
L 177.856634 307.376066 
L 177.925761 307.432775 
L 177.994887 307.432775 
L 178.029451 307.250045 
L 178.098578 307.420173 
L 178.444212 307.432775 
L 178.962664 307.432775 
L 178.997228 307.250045 
L 179.066355 307.413872 
L 179.411989 307.439076 
L 180.034131 307.432775 
L 180.483456 307.439076 
L 180.51802 307.250045 
L 180.587147 307.420173 
L 180.863654 307.439076 
L 181.001908 307.243744 
L 181.140162 307.432775 
L 183.041152 307.432775 
L 183.075716 307.250045 
L 183.144842 307.426474 
L 185.771665 307.432775 
L 185.806229 307.250045 
L 185.875356 307.420173 
L 186.151863 307.439076 
L 186.186427 307.319356 
L 186.255554 307.432775 
L 188.536742 307.426474 
L 188.571305 307.243744 
L 188.640432 307.420173 
L 189.262574 307.432775 
L 189.81559 307.432775 
L 190.437732 307.439076 
L 190.783366 307.426474 
L 191.129001 307.439076 
L 191.232691 307.439076 
L 191.267255 307.09882 
L 191.336382 307.40127 
L 191.612889 307.426474 
L 192.235032 307.432775 
L 193.963204 307.420173 
L 193.997768 306.834176 
L 194.066895 307.407571 
L 194.412529 307.439076 
L 194.758164 307.426474 
L 196.62459 307.439076 
L 196.659154 307.067314 
L 196.728281 307.407571 
L 197.004788 307.439076 
L 197.592367 307.439076 
L 199.458794 307.432775 
L 199.493357 307.256346 
L 199.562484 307.426474 
L 200.1155 307.426474 
L 200.737642 307.432775 
L 201.325221 307.432775 
L 201.947363 307.439076 
L 202.258434 307.432775 
L 202.292997 306.418307 
L 202.362124 307.369764 
L 202.569505 307.432775 
L 203.295338 307.439076 
L 203.329901 307.193335 
L 203.399028 307.432775 
L 204.954383 307.432775 
L 204.988947 307.256346 
L 205.058074 307.426474 
L 205.956724 307.432775 
L 205.991287 307.287851 
L 206.060414 307.426474 
L 206.647993 307.439076 
L 206.993627 307.426474 
L 207.304698 307.432775 
L 207.408389 307.426474 
L 207.442952 307.256346 
L 207.512079 307.413872 
L 207.754023 307.432775 
L 209.447633 307.432775 
L 209.482196 307.306754 
L 209.551323 307.432775 
L 210.173465 307.439076 
L 210.208029 307.256346 
L 210.277156 307.413872 
L 210.62279 307.432775 
L 211.867075 307.439076 
L 211.901638 307.313055 
L 211.970765 307.439076 
L 212.592907 307.432775 
L 212.834851 307.432775 
L 212.869415 307.086218 
L 212.938542 307.262647 
L 213.076796 307.420173 
L 213.698938 307.426474 
L 214.113699 307.426474 
L 214.148263 307.243744 
L 214.21739 307.413872 
L 214.908659 307.432775 
L 215.32342 307.426474 
L 215.357984 307.243744 
L 215.427111 307.407571 
L 215.496238 307.420173 
L 215.530801 307.09882 
L 215.599928 307.420173 
L 216.22207 307.432775 
L 216.809649 307.426474 
L 217.12072 307.432775 
L 217.742862 307.420173 
L 217.950243 307.426474 
L 217.984806 306.916089 
L 218.053933 307.407571 
L 218.745203 307.432775 
L 219.090837 307.420173 
L 219.436472 307.432775 
L 220.093177 307.420173 
L 220.646193 307.432775 
L 220.680756 307.243744 
L 220.71532 307.388668 
L 220.749883 81.691565 
L 220.81901 307.382367 
L 220.9227 307.413872 
L 220.957264 307.124024 
L 221.026391 307.426474 
L 221.095518 307.420173 
L 221.164644 307.048411 
L 221.199208 307.420173 
L 221.441152 307.426474 
L 221.475716 305.636977 
L 221.544842 307.394969 
L 221.648533 307.426474 
L 221.683096 307.079916 
L 221.752223 307.420173 
L 222.408929 307.432775 
L 223.376706 307.426474 
L 223.445833 307.256346 
L 223.480396 307.388668 
L 223.653213 307.420173 
L 226.107219 307.432775 
L 226.141782 306.9791 
L 226.176346 276.891614 
L 226.245473 307.394969 
L 226.41829 307.426474 
L 227.005869 307.426474 
L 227.558884 307.426474 
L 228.111899 307.426474 
L 228.21559 307.426474 
L 228.250153 306.9791 
L 228.31928 307.394969 
L 228.595788 307.420173 
L 229.21793 307.426474 
L 229.287057 307.426474 
L 229.390747 307.287851 
L 229.529001 307.432775 
L 229.840072 307.426474 
L 230.911539 307.426474 
L 230.946103 306.399404 
L 231.01523 307.420173 
L 232.328641 307.432775 
L 232.363204 304.332661 
L 232.432331 307.40127 
L 232.466895 307.073615 
L 232.501458 307.426474 
L 232.536022 307.420173 
L 233.089037 307.426474 
L 233.1236 307.061013 
L 233.192727 307.388668 
L 233.400108 307.426474 
L 233.745743 307.420173 
L 233.780306 307.237443 
L 233.849433 307.420173 
L 233.91856 307.426474 
L 233.953123 307.294152 
L 234.02225 307.420173 
L 234.264194 307.426474 
L 234.298758 307.369764 
L 234.367885 307.420173 
L 235.577606 307.432775 
L 235.612169 307.243744 
L 235.681296 307.407571 
L 236.061494 307.432775 
L 236.683636 307.426474 
L 237.271215 307.432775 
L 237.82423 307.432775 
L 238.066175 307.426474 
L 238.100738 307.350861 
L 238.169865 307.426474 
L 238.308119 307.426474 
L 238.342682 307.262647 
L 238.411809 307.407571 
L 239.103078 307.426474 
L 239.483276 307.426474 
L 239.51784 307.09882 
L 239.586967 307.432775 
L 240.243672 307.420173 
L 240.831251 307.426474 
L 240.969505 307.420173 
L 241.004068 307.243744 
L 241.073195 307.407571 
L 241.764464 307.426474 
L 242.352043 307.420173 
L 242.663114 307.426474 
L 243.285257 307.420173 
L 243.388947 307.420173 
L 243.42351 307.243744 
L 243.492637 307.407571 
L 243.665455 307.426474 
L 243.700018 307.262647 
L 243.769145 307.420173 
L 244.080216 307.432775 
L 244.391287 307.420173 
L 244.702358 307.420173 
L 245.3245 307.426474 
L 245.912079 307.420173 
L 246.01577 307.420173 
L 246.050333 307.231142 
L 246.11946 307.407571 
L 246.637912 307.426474 
L 246.672475 307.306754 
L 246.741602 307.420173 
L 248.608029 307.420173 
L 248.642592 307.237443 
L 248.711719 307.407571 
L 249.333861 307.420173 
L 249.956004 307.407571 
L 250.578146 307.420173 
L 251.165725 307.420173 
L 251.234851 307.420173 
L 251.269415 307.231142 
L 251.303978 223.565877 
L 251.373105 307.212238 
L 251.511359 307.413872 
L 251.960684 307.420173 
L 251.995248 307.231142 
L 252.064374 307.413872 
L 252.375446 307.426474 
L 252.686517 307.420173 
L 252.72108 306.916089 
L 252.790207 307.407571 
L 252.82477 307.331958 
L 252.893897 307.420173 
L 253.481476 307.420173 
L 254.829451 307.413872 
L 254.864014 307.262647 
L 254.933141 307.413872 
L 255.209649 307.420173 
L 255.244212 307.243744 
L 255.313339 307.388668 
L 255.589847 307.413872 
L 256.142862 307.413872 
L 256.765005 307.420173 
L 257.767345 307.420173 
L 257.801908 306.916089 
L 257.871035 307.40127 
L 260.290477 307.413872 
L 260.325041 307.105121 
L 260.394167 307.376066 
L 260.601548 307.407571 
L 261.085437 307.407571 
L 261.12 307.294152 
L 261.189127 307.413872 
L 261.811269 307.407571 
L 262.433411 307.426474 
L 262.779046 307.407571 
L 262.848173 307.413872 
L 262.882736 307.231142 
L 262.951863 307.40127 
L 263.262934 307.413872 
L 263.81595 307.413872 
L 264.299838 307.420173 
L 264.334401 307.363463 
L 264.403528 307.407571 
L 264.714599 307.413872 
L 265.302178 307.413872 
L 265.371305 307.420173 
L 265.405869 306.840477 
L 265.474995 307.394969 
L 266.166265 307.420173 
L 266.511899 307.407571 
L 266.82297 307.413872 
L 267.064914 307.413872 
L 267.099478 304.767433 
L 267.168605 307.388668 
L 267.375986 307.407571 
L 267.583366 307.413872 
L 267.61793 306.941293 
L 267.687057 307.382367 
L 268.067255 307.407571 
L 268.654833 307.413872 
L 269.242412 307.413872 
L 269.657174 307.407571 
L 269.691737 307.09882 
L 269.760864 307.237443 
L 269.933681 307.28155 
L 269.968245 307.268948 
L 270.071935 305.762998 
L 270.210189 307.40127 
L 271.489037 307.407571 
L 271.5236 307.218539 
L 271.592727 307.40127 
L 271.765545 307.407571 
L 271.800108 306.92239 
L 271.869235 307.388668 
L 272.180306 307.407571 
L 272.31856 307.407571 
L 273.286337 307.413872 
L 273.3209 307.218539 
L 273.390027 307.394969 
L 273.493717 307.40127 
L 273.528281 307.28155 
L 273.597408 307.407571 
L 273.977606 307.413872 
L 274.012169 306.638843 
L 274.081296 307.382367 
L 274.357804 307.407571 
L 276.466175 307.407571 
L 276.500738 306.714456 
L 276.569865 307.363463 
L 276.777246 307.407571 
L 277.399388 307.40127 
L 278.02153 307.407571 
L 278.263474 307.407571 
L 278.367165 306.651445 
L 278.401728 307.105121 
L 278.539982 307.407571 
L 279.092997 307.407571 
L 279.680576 307.413872 
L 280.302718 307.407571 
L 280.82117 307.413872 
L 280.855734 307.22484 
L 280.890297 307.376066 
L 280.92486 56.121928 
L 280.993987 307.28155 
L 281.132241 307.394969 
L 281.61613 307.407571 
L 281.650693 307.357162 
L 281.71982 307.413872 
L 282.307399 307.413872 
L 282.411089 307.413872 
L 282.445653 306.594736 
L 282.514779 307.394969 
L 283.206049 307.413872 
L 284.277516 307.407571 
L 284.312079 305.857514 
L 284.381206 307.388668 
L 284.692277 307.407571 
L 284.726841 307.218539 
L 284.795968 307.40127 
L 285.452673 307.426474 
L 285.798308 307.407571 
L 287.008029 307.420173 
L 287.042592 307.250045 
L 287.111719 307.420173 
L 287.180846 307.40127 
L 287.21541 307.035809 
L 287.284536 307.388668 
L 287.526481 307.413872 
L 288.114059 307.413872 
L 288.32144 307.413872 
L 288.356004 307.313055 
L 288.425131 307.407571 
L 289.669415 307.413872 
L 289.703978 307.22484 
L 289.773105 307.394969 
L 290.22243 307.407571 
L 290.256994 307.34456 
L 290.326121 307.407571 
L 290.913699 307.40127 
L 291.535842 307.407571 
L 292.12342 307.407571 
L 292.157984 306.903487 
L 292.227111 307.388668 
L 292.883816 307.40127 
L 294.577426 307.394969 
L 294.611989 307.231142 
L 294.681116 307.382367 
L 294.92306 307.407571 
L 295.234131 307.407571 
L 295.856274 307.40127 
L 296.996868 307.394969 
L 297.031431 307.029508 
L 297.100558 307.363463 
L 297.307939 307.388668 
L 297.653573 307.40127 
L 298.413969 307.40127 
L 298.448533 307.287851 
L 298.51766 307.407571 
L 299.105239 307.407571 
L 299.450873 307.407571 
L 299.485437 307.237443 
L 299.554563 307.394969 
L 300.038452 307.40127 
L 300.073015 307.275249 
L 300.142142 307.40127 
L 300.729721 307.40127 
L 301.870315 307.407571 
L 301.904878 306.953896 
L 301.974005 307.376066 
L 302.354203 307.407571 
L 302.941782 307.407571 
L 303.667615 307.40127 
L 303.702178 307.28155 
L 303.771305 307.407571 
L 304.497138 307.325657 
L 304.566265 307.388668 
L 304.600828 307.262647 
L 304.669955 307.40127 
L 305.292097 307.407571 
L 305.395788 307.40127 
L 305.430351 304.553198 
L 305.499478 307.388668 
L 305.534041 307.394969 
L 305.568605 307.035809 
L 305.637732 307.407571 
L 305.775986 307.40127 
L 305.810549 307.04211 
L 305.879676 307.407571 
L 306.294437 307.407571 
L 306.329001 305.800804 
L 306.398128 307.382367 
L 306.432691 306.783767 
L 306.467255 307.394969 
L 306.501818 307.035809 
L 306.605509 307.394969 
L 306.640072 306.846778 
L 306.674635 307.40127 
L 306.709199 307.40127 
L 307.262214 307.407571 
L 307.296778 307.205937 
L 307.365905 307.363463 
L 307.400468 307.319356 
L 307.469595 307.40127 
L 308.126301 307.40127 
L 308.229991 306.928691 
L 308.333681 307.394969 
L 308.368245 307.388668 
L 308.713879 307.407571 
L 309.336022 307.40127 
L 309.81991 307.407571 
L 309.854473 307.218539 
L 309.9236 307.388668 
L 310.269235 307.40127 
L 310.303798 307.338259 
L 310.372925 307.40127 
L 311.029631 307.40127 
L 311.064194 307.28155 
L 311.133321 307.40127 
L 312.066535 307.40127 
L 312.101098 307.218539 
L 312.170225 307.394969 
L 314.485977 307.40127 
L 314.52054 306.506521 
L 314.589667 307.376066 
L 314.935302 307.40127 
L 315.52288 307.40127 
L 316.870855 307.40127 
L 316.905419 306.903487 
L 316.974545 307.382367 
L 319.22117 307.40127 
L 319.255734 304.641412 
L 319.32486 307.388668 
L 321.640612 307.40127 
L 321.675176 307.231142 
L 321.744302 307.388668 
L 322.401008 307.40127 
L 324.094617 307.40127 
L 324.129181 307.231142 
L 324.198308 307.382367 
L 326.514059 307.40127 
L 326.548623 306.928691 
L 326.61775 307.382367 
L 327.309019 307.40127 
L 327.896598 307.40127 
L 328.968065 307.40127 
L 329.002628 306.878283 
L 329.071755 307.382367 
L 329.728461 307.40127 
L 330.350603 307.382367 
L 330.696238 307.394969 
L 331.31838 307.40127 
L 331.42207 307.407571 
L 331.456634 307.218539 
L 331.491197 307.357162 
L 331.525761 229.526664 
L 331.594887 307.350861 
L 331.905959 307.40127 
L 332.078776 307.40127 
L 332.113339 307.262647 
L 332.182466 307.40127 
L 333.703258 307.40127 
L 333.737822 307.22484 
L 333.806949 307.388668 
L 334.22171 307.407571 
L 334.256274 307.205937 
L 334.325401 307.40127 
L 334.982106 307.407571 
L 335.051233 306.745961 
L 335.12036 307.035809 
L 335.258614 307.394969 
L 335.638812 307.394969 
L 335.673375 307.199636 
L 335.742502 307.376066 
L 336.088137 307.394969 
L 338.058254 307.40127 
L 338.092817 307.231142 
L 338.161944 307.388668 
L 338.300198 307.40127 
L 338.334761 307.268948 
L 338.403888 307.394969 
L 339.026031 307.40127 
L 339.060594 307.34456 
L 339.129721 307.40127 
L 339.7173 307.40127 
L 340.512259 307.40127 
L 340.546823 306.928691 
L 340.61595 307.376066 
L 340.892457 307.40127 
L 341.203528 307.40127 
L 341.791107 307.40127 
L 343.000828 307.407571 
L 343.035392 306.815273 
L 343.104518 307.382367 
L 343.450153 307.40127 
L 345.489397 307.40127 
L 345.52396 306.903487 
L 345.593087 307.388668 
L 345.627651 307.262647 
L 345.696778 307.394969 
L 347.770585 307.40127 
L 347.805149 307.22484 
L 347.874275 307.388668 
L 348.185347 307.40127 
L 348.772925 307.394969 
L 349.395068 307.40127 
L 350.328281 307.40127 
L 350.362844 61.307687 
L 350.431971 307.319356 
L 350.604788 307.388668 
L 351.088677 307.40127 
L 351.12324 306.928691 
L 351.192367 307.029508 
L 351.330621 307.394969 
L 351.779946 307.40127 
L 351.814509 307.199636 
L 351.883636 307.394969 
L 352.125581 307.40127 
L 352.471215 307.394969 
L 352.505779 307.205937 
L 352.574905 307.376066 
L 352.678596 307.394969 
L 352.713159 306.909788 
L 352.782286 307.394969 
L 353.058794 307.394969 
L 353.093357 306.827875 
L 353.162484 307.388668 
L 353.508119 307.338259 
L 353.646373 307.394969 
L 353.81919 307.394969 
L 353.853753 307.061013 
L 353.92288 307.394969 
L 354.510459 307.40127 
L 355.132601 307.388668 
L 355.443672 307.40127 
L 355.478236 307.218539 
L 355.547363 307.388668 
L 356.169505 307.40127 
L 356.791647 307.394969 
L 357.897678 307.40127 
L 357.932241 307.212238 
L 358.001368 307.376066 
L 358.381566 307.40127 
L 360.282556 307.394969 
L 360.31712 306.909788 
L 360.386247 307.382367 
L 362.736562 307.394969 
L 362.771125 307.218539 
L 362.840252 307.382367 
L 363.496958 307.394969 
L 364.084536 307.394969 
L 365.156004 307.394969 
L 365.190567 307.029508 
L 365.259694 307.363463 
L 365.536202 307.394969 
L 367.610009 307.40127 
L 367.644572 307.155529 
L 367.713699 307.199636 
L 367.851953 307.388668 
L 370.029451 307.394969 
L 370.064014 307.212238 
L 370.133141 307.369764 
L 370.340522 307.394969 
L 370.375086 307.199636 
L 370.444212 307.382367 
L 370.858974 307.382367 
L 370.893537 307.331958 
L 370.962664 307.388668 
L 371.51568 307.394969 
L 372.068695 307.382367 
L 372.172385 307.205937 
L 372.310639 307.382367 
L 372.967345 307.394969 
L 373.278416 307.388668 
L 373.312979 307.268948 
L 373.382106 307.388668 
L 373.762304 307.394969 
L 373.796868 307.331958 
L 373.865995 307.388668 
L 374.142502 307.394969 
L 374.177066 307.205937 
L 374.246193 307.382367 
L 374.902898 307.394969 
L 375.490477 307.388668 
L 376.112619 307.394969 
L 376.596508 307.394969 
L 376.631071 306.916089 
L 376.700198 307.350861 
L 376.907579 307.388668 
L 379.01595 307.388668 
L 379.050513 231.196441 
L 379.11964 307.187034 
L 379.257894 307.382367 
L 379.499838 307.388668 
L 379.534401 307.319356 
L 379.603528 307.388668 
L 380.225671 307.376066 
L 380.571305 307.388668 
L 381.02063 307.388668 
L 381.055194 306.972799 
L 381.12432 307.363463 
L 381.400828 307.388668 
L 382.057534 307.394969 
L 382.092097 307.231142 
L 382.161224 307.388668 
L 382.748803 307.388668 
L 383.405509 307.388668 
L 383.440072 307.023207 
L 383.509199 307.357162 
L 383.889397 307.382367 
L 384.511539 307.388668 
L 384.995428 307.382367 
L 385.029991 304.124727 
L 385.099118 307.350861 
L 385.271935 307.382367 
L 385.306499 306.745961 
L 385.375626 306.998003 
L 385.410189 307.016906 
L 385.548443 307.376066 
L 385.686697 307.363463 
L 385.72126 306.985401 
L 385.755824 307.382367 
L 385.790387 307.382367 
L 385.963204 307.382367 
L 385.997768 306.808972 
L 386.066895 307.382367 
L 386.689037 307.34456 
L 386.792727 307.382367 
L 386.827291 307.010605 
L 386.896418 307.369764 
L 387.62225 307.394969 
L 387.760504 307.382367 
L 388.071575 307.394969 
L 388.693717 307.376066 
L 389.039352 307.388668 
L 389.177606 307.382367 
L 389.212169 307.205937 
L 389.281296 307.369764 
L 389.661494 307.394969 
L 390.249073 307.388668 
L 390.871215 307.394969 
L 391.458794 307.394969 
L 391.493357 306.802671 
L 391.562484 307.035809 
L 391.666175 307.388668 
L 391.700738 307.376066 
L 392.288317 307.382367 
L 392.875896 307.376066 
L 393.498038 307.382367 
L 393.705419 307.376066 
L 393.739982 306.985401 
L 393.809109 307.357162 
L 394.051053 307.382367 
L 394.085617 307.325657 
L 394.154743 307.382367 
L 394.776886 307.376066 
L 396.02117 307.376066 
L 396.055734 306.941293 
L 396.090297 307.231142 
L 396.12486 67.18026 
L 396.193987 307.325657 
L 396.401368 307.369764 
L 396.574185 307.369764 
L 396.677876 307.369764 
L 396.712439 307.04211 
L 396.747003 307.382367 
L 396.781566 307.382367 
L 396.988947 307.388668 
L 397.02351 307.268948 
L 397.092637 307.382367 
L 397.300018 307.382367 
L 397.334581 306.972799 
L 397.403708 307.357162 
L 397.680216 307.388668 
L 398.267795 307.382367 
L 398.855374 307.388668 
L 399.442952 307.388668 
L 399.71946 307.388668 
L 399.754023 306.853079 
L 399.82315 307.376066 
L 401.240252 307.382367 
L 401.274815 303.897889 
L 401.343942 306.783767 
L 401.413069 307.376066 
L 401.482196 307.369764 
L 401.51676 306.821574 
L 401.585887 307.357162 
L 401.931521 307.382367 
L 402.5191 307.382367 
L 402.726481 307.382367 
L 402.761044 307.218539 
L 402.830171 307.388668 
L 403.141242 307.382367 
L 403.659694 307.388668 
L 403.694257 307.205937 
L 403.763384 307.363463 
L 404.039892 307.388668 
L 404.662034 307.376066 
L 405.145923 307.382367 
L 405.180486 307.09882 
L 405.249613 307.382367 
L 405.768065 307.388668 
L 405.802628 307.331958 
L 405.871755 307.382367 
L 405.975446 307.382367 
L 406.010009 307.205937 
L 406.079136 307.363463 
L 406.32108 307.382367 
L 408.394887 307.388668 
L 408.429451 306.897186 
L 408.498578 307.363463 
L 408.705959 307.376066 
L 408.809649 307.382367 
L 410.745203 307.388668 
L 410.779766 307.016906 
L 410.848893 307.357162 
L 411.540162 307.388668 
L 411.712979 307.331958 
L 411.885797 307.388668 
L 413.130081 307.382367 
L 413.164644 306.796369 
L 413.233771 307.369764 
L 413.579406 307.382367 
L 413.613969 307.262647 
L 413.683096 307.376066 
L 414.028731 307.388668 
L 414.72 307.325657 
L 414.72 307.325657 
" style="fill:none;stroke:#ff7f0e;stroke-linecap:square;stroke-width:1.5;"/>
   </g>
   <g id="patch_3">
    <path d="M 69.12 307.584 
L 69.12 41.472 
" style="fill:none;stroke:#000000;stroke-linecap:square;stroke-linejoin:miter;stroke-width:0.8;"/>
   </g>
   <g id="patch_4">
    <path d="M 414.72 307.584 
L 414.72 41.472 
" style="fill:none;stroke:#000000;stroke-linecap:square;stroke-linejoin:miter;stroke-width:0.8;"/>
   </g>
   <g id="patch_5">
    <path d="M 69.12 307.584 
L 414.72 307.584 
" style="fill:none;stroke:#000000;stroke-linecap:square;stroke-linejoin:miter;stroke-width:0.8;"/>
   </g>
   <g id="patch_6">
    <path d="M 69.12 41.472 
L 414.72 41.472 
" style="fill:none;stroke:#000000;stroke-linecap:square;stroke-linejoin:miter;stroke-width:0.8;"/>
   </g>
   <g id="text_14">
    <!-- Messung_Ubuntu_1.csv -->
    <g transform="translate(171.725625 21.700875)scale(0.12 -0.12)">
     <defs>
      <path d="M 628 4666 
L 1569 4666 
L 2759 1491 
L 3956 4666 
L 4897 4666 
L 4897 0 
L 4281 0 
L 4281 4097 
L 3078 897 
L 2444 897 
L 1241 4097 
L 1241 0 
L 628 0 
L 628 4666 
z
" id="DejaVuSans-4d" transform="scale(0.015625)"/>
      <path d="M 3263 -1063 
L 3263 -1509 
L -63 -1509 
L -63 -1063 
L 3263 -1063 
z
" id="DejaVuSans-5f" transform="scale(0.015625)"/>
      <path d="M 556 4666 
L 1191 4666 
L 1191 1831 
Q 1191 1081 1462 751 
Q 1734 422 2344 422 
Q 2950 422 3222 751 
Q 3494 1081 3494 1831 
L 3494 4666 
L 4128 4666 
L 4128 1753 
Q 4128 841 3676 375 
Q 3225 -91 2344 -91 
Q 1459 -91 1007 375 
Q 556 841 556 1753 
L 556 4666 
z
" id="DejaVuSans-55" transform="scale(0.015625)"/>
      <path d="M 3116 1747 
Q 3116 2381 2855 2742 
Q 2594 3103 2138 3103 
Q 1681 3103 1420 2742 
Q 1159 2381 1159 1747 
Q 1159 1113 1420 752 
Q 1681 391 2138 391 
Q 2594 391 2855 752 
Q 3116 1113 3116 1747 
z
M 1159 2969 
Q 1341 3281 1617 3432 
Q 1894 3584 2278 3584 
Q 2916 3584 3314 3078 
Q 3713 2572 3713 1747 
Q 3713 922 3314 415 
Q 2916 -91 2278 -91 
Q 1894 -91 1617 61 
Q 1341 213 1159 525 
L 1159 0 
L 581 0 
L 581 4863 
L 1159 4863 
L 1159 2969 
z
" id="DejaVuSans-62" transform="scale(0.015625)"/>
      <path d="M 3122 3366 
L 3122 2828 
Q 2878 2963 2633 3030 
Q 2388 3097 2138 3097 
Q 1578 3097 1268 2742 
Q 959 2388 959 1747 
Q 959 1106 1268 751 
Q 1578 397 2138 397 
Q 2388 397 2633 464 
Q 2878 531 3122 666 
L 3122 134 
Q 2881 22 2623 -34 
Q 2366 -91 2075 -91 
Q 1284 -91 818 406 
Q 353 903 353 1747 
Q 353 2603 823 3093 
Q 1294 3584 2113 3584 
Q 2378 3584 2631 3529 
Q 2884 3475 3122 3366 
z
" id="DejaVuSans-63" transform="scale(0.015625)"/>
     </defs>
     <use xlink:href="#DejaVuSans-4d"/>
     <use x="86.279297" xlink:href="#DejaVuSans-65"/>
     <use x="147.802734" xlink:href="#DejaVuSans-73"/>
     <use x="199.902344" xlink:href="#DejaVuSans-73"/>
     <use x="252.001953" xlink:href="#DejaVuSans-75"/>
     <use x="315.380859" xlink:href="#DejaVuSans-6e"/>
     <use x="378.759766" xlink:href="#DejaVuSans-67"/>
     <use x="442.236328" xlink:href="#DejaVuSans-5f"/>
     <use x="492.236328" xlink:href="#DejaVuSans-55"/>
     <use x="565.429688" xlink:href="#DejaVuSans-62"/>
     <use x="628.90625" xlink:href="#DejaVuSans-75"/>
     <use x="692.285156" xlink:href="#DejaVuSans-6e"/>
     <use x="755.664062" xlink:href="#DejaVuSans-74"/>
     <use x="794.873047" xlink:href="#DejaVuSans-75"/>
     <use x="858.251953" xlink:href="#DejaVuSans-5f"/>
     <use x="908.251953" xlink:href="#DejaVuSans-31"/>
     <use x="971.875" xlink:href="#DejaVuSans-2e"/>
     <use x="1003.662109" xlink:href="#DejaVuSans-63"/>
     <use x="1058.642578" xlink:href="#DejaVuSans-73"/>
     <use x="1110.742188" xlink:href="#DejaVuSans-76"/>
    </g>
    <!-- Laufzeitveränderung je hinzugefügtes Element -->
    <g transform="translate(101.016563 35.472)scale(0.12 -0.12)">
     <defs>
      <path d="M 603 3500 
L 1178 3500 
L 1178 -63 
Q 1178 -731 923 -1031 
Q 669 -1331 103 -1331 
L -116 -1331 
L -116 -844 
L 38 -844 
Q 366 -844 484 -692 
Q 603 -541 603 -63 
L 603 3500 
z
M 603 4863 
L 1178 4863 
L 1178 4134 
L 603 4134 
L 603 4863 
z
" id="DejaVuSans-6a" transform="scale(0.015625)"/>
      <path d="M 3513 2113 
L 3513 0 
L 2938 0 
L 2938 2094 
Q 2938 2591 2744 2837 
Q 2550 3084 2163 3084 
Q 1697 3084 1428 2787 
Q 1159 2491 1159 1978 
L 1159 0 
L 581 0 
L 581 4863 
L 1159 4863 
L 1159 2956 
Q 1366 3272 1645 3428 
Q 1925 3584 2291 3584 
Q 2894 3584 3203 3211 
Q 3513 2838 3513 2113 
z
" id="DejaVuSans-68" transform="scale(0.015625)"/>
     </defs>
     <use xlink:href="#DejaVuSans-4c"/>
     <use x="55.712891" xlink:href="#DejaVuSans-61"/>
     <use x="116.992188" xlink:href="#DejaVuSans-75"/>
     <use x="180.371094" xlink:href="#DejaVuSans-66"/>
     <use x="215.576172" xlink:href="#DejaVuSans-7a"/>
     <use x="268.066406" xlink:href="#DejaVuSans-65"/>
     <use x="329.589844" xlink:href="#DejaVuSans-69"/>
     <use x="357.373047" xlink:href="#DejaVuSans-74"/>
     <use x="396.582031" xlink:href="#DejaVuSans-76"/>
     <use x="455.761719" xlink:href="#DejaVuSans-65"/>
     <use x="517.285156" xlink:href="#DejaVuSans-72"/>
     <use x="558.398438" xlink:href="#DejaVuSans-e4"/>
     <use x="619.677734" xlink:href="#DejaVuSans-6e"/>
     <use x="683.056641" xlink:href="#DejaVuSans-64"/>
     <use x="746.533203" xlink:href="#DejaVuSans-65"/>
     <use x="808.056641" xlink:href="#DejaVuSans-72"/>
     <use x="849.169922" xlink:href="#DejaVuSans-75"/>
     <use x="912.548828" xlink:href="#DejaVuSans-6e"/>
     <use x="975.927734" xlink:href="#DejaVuSans-67"/>
     <use x="1039.404297" xlink:href="#DejaVuSans-20"/>
     <use x="1071.191406" xlink:href="#DejaVuSans-6a"/>
     <use x="1098.974609" xlink:href="#DejaVuSans-65"/>
     <use x="1160.498047" xlink:href="#DejaVuSans-20"/>
     <use x="1192.285156" xlink:href="#DejaVuSans-68"/>
     <use x="1255.664062" xlink:href="#DejaVuSans-69"/>
     <use x="1283.447266" xlink:href="#DejaVuSans-6e"/>
     <use x="1346.826172" xlink:href="#DejaVuSans-7a"/>
     <use x="1399.316406" xlink:href="#DejaVuSans-75"/>
     <use x="1462.695312" xlink:href="#DejaVuSans-67"/>
     <use x="1526.171875" xlink:href="#DejaVuSans-65"/>
     <use x="1587.695312" xlink:href="#DejaVuSans-66"/>
     <use x="1622.900391" xlink:href="#DejaVuSans-fc"/>
     <use x="1686.279297" xlink:href="#DejaVuSans-67"/>
     <use x="1749.755859" xlink:href="#DejaVuSans-74"/>
     <use x="1788.964844" xlink:href="#DejaVuSans-65"/>
     <use x="1850.488281" xlink:href="#DejaVuSans-73"/>
     <use x="1902.587891" xlink:href="#DejaVuSans-20"/>
     <use x="1934.375" xlink:href="#DejaVuSans-45"/>
     <use x="1997.558594" xlink:href="#DejaVuSans-6c"/>
     <use x="2025.341797" xlink:href="#DejaVuSans-65"/>
     <use x="2086.865234" xlink:href="#DejaVuSans-6d"/>
     <use x="2184.277344" xlink:href="#DejaVuSans-65"/>
     <use x="2245.800781" xlink:href="#DejaVuSans-6e"/>
     <use x="2309.179688" xlink:href="#DejaVuSans-74"/>
    </g>
   </g>
   <g id="legend_1">
    <g id="patch_7">
     <path d="M 76.12 78.82825 
L 135.054375 78.82825 
Q 137.054375 78.82825 137.054375 76.82825 
L 137.054375 48.472 
Q 137.054375 46.472 135.054375 46.472 
L 76.12 46.472 
Q 74.12 46.472 74.12 48.472 
L 74.12 76.82825 
Q 74.12 78.82825 76.12 78.82825 
z
" style="fill:#ffffff;opacity:0.8;stroke:#cccccc;stroke-linejoin:miter;"/>
    </g>
    <g id="line2d_14">
     <path d="M 78.12 54.570437 
L 98.12 54.570437 
" style="fill:none;stroke:#1f77b4;stroke-linecap:square;stroke-width:1.5;"/>
    </g>
    <g id="line2d_15"/>
    <g id="text_15">
     <!-- Liste -->
     <g transform="translate(106.12 58.070437)scale(0.1 -0.1)">
      <use xlink:href="#DejaVuSans-4c"/>
      <use x="55.712891" xlink:href="#DejaVuSans-69"/>
      <use x="83.496094" xlink:href="#DejaVuSans-73"/>
      <use x="135.595703" xlink:href="#DejaVuSans-74"/>
      <use x="174.804688" xlink:href="#DejaVuSans-65"/>
     </g>
    </g>
    <g id="line2d_16">
     <path d="M 78.12 69.248562 
L 98.12 69.248562 
" style="fill:none;stroke:#ff7f0e;stroke-linecap:square;stroke-width:1.5;"/>
    </g>
    <g id="line2d_17"/>
    <g id="text_16">
     <!-- Array -->
     <g transform="translate(106.12 72.748562)scale(0.1 -0.1)">
      <defs>
       <path d="M 2188 4044 
L 1331 1722 
L 3047 1722 
L 2188 4044 
z
M 1831 4666 
L 2547 4666 
L 4325 0 
L 3669 0 
L 3244 1197 
L 1141 1197 
L 716 0 
L 50 0 
L 1831 4666 
z
" id="DejaVuSans-41" transform="scale(0.015625)"/>
       <path d="M 2059 -325 
Q 1816 -950 1584 -1140 
Q 1353 -1331 966 -1331 
L 506 -1331 
L 506 -850 
L 844 -850 
Q 1081 -850 1212 -737 
Q 1344 -625 1503 -206 
L 1606 56 
L 191 3500 
L 800 3500 
L 1894 763 
L 2988 3500 
L 3597 3500 
L 2059 -325 
z
" id="DejaVuSans-79" transform="scale(0.015625)"/>
      </defs>
      <use xlink:href="#DejaVuSans-41"/>
      <use x="68.408203" xlink:href="#DejaVuSans-72"/>
      <use x="107.771484" xlink:href="#DejaVuSans-72"/>
      <use x="148.884766" xlink:href="#DejaVuSans-61"/>
      <use x="210.164062" xlink:href="#DejaVuSans-79"/>
     </g>
    </g>
   </g>
  </g>
 </g>
 <defs>
  <clipPath id="pb738ef6a64">
   <rect height="266.112" width="345.6" x="69.12" y="41.472"/>
  </clipPath>
 </defs>
</svg>
